<svg xmlns="http://www.w3.org/2000/svg" xmlns:xlink="http://www.w3.org/1999/xlink" viewBox="0 0 172.42 170.58"><defs><style>.cls-1,.cls-4{fill:none;}.cls-2{clip-path:url(#clip-path);}.cls-3{fill:#6c6c6c;}.cls-4{stroke:#6c6c6c;stroke-miterlimit:10;stroke-width:3px;}</style><clipPath id="clip-path"><ellipse class="cls-1" cx="85.77" cy="85.26" rx="83.68" ry="83.5"/></clipPath></defs><title>Recurso 3</title><g id="Capa_2" data-name="Capa 2"><g id="Objects"><g class="cls-2"><path class="cls-3" d="M12.6,41.31c-1,6.9,1.43,10.48,0,13.81s-3.11,9.29-1.67,13.34,3.58,12.87,5.49,13.11S15,72,16.89,75.14,18.8,82.84,22.15,86s7.88,2.7,11.46,5.8,7.16,7.62,10.5,7.15a25.69,25.69,0,0,1-1.91,6.43c-1.67,4-1.91,8.81.24,11.67s4.3,7.15,6.21,9.29,3.34,13.58,2.86,19.3,2.15,18.58,8.12,21.44,0-1.43-1.19-5,.92-11.91,3.8-13.1,5.51-6,7.66-9.29,7.64-4.77,9.31-8.82,1-8.81,1.91-11S84.7,113,79,110.15s-8.12-1.42-8.36-4.05a7.38,7.38,0,0,0-5.73-6.67c-4-1.19-7.64-3.5-12.17-4s-5.49,3.06-7.88,1.16-4.3-3.82-5.25-6.2S35.76,89.43,36,88s4-5.48-.24-4-8.12,1-7.88-2.86,5.49-5.24,7.64-5.72,3.82,2.15,6.44,3.81.24-2.38,1.67-5.24,6.93-2.62,7.64-6.67-.23-7.38,4.06-7.86,8.84.24,9.31-1.91-5,.72-5.25-1.9S64.17,49.41,65.6,52s5,2.85,5.49,1.9,0-2.62-1.67-6.67-3.34-2.86-4.78-7.38-3.81.23-6.2-2.15-5.26-7.38-5.73-3.09-.48,6.67-2.63,10-3.1.72-5-1.43S38.86,38.92,40.29,37s2.87-6.91,5-5.48,5.49,1.43,5-.95,0-3.34,1-4.53,4.3-3.34,4.3,1-.48,5.48,2.87,6,7.16.71,6.92-1.43,1-1.67,0-5.24-3.82-3.81-6.92-5.48-4.78-4.29-7.4-3.34S48.17,19.39,47.93,22s-1.67,3.57-2.62,2.38.23-5-3.35-2.62S37,28.2,35,25.34s2.86-7.86-2.15-5.71-8.59,4.52-6,5.48,5.25,2.62,2.63,3.57-7.88-.72-9.79,1.19S12.6,41.31,12.6,41.31Z"/><path class="cls-3" d="M40.77,15.58c0,2.66.72,4.76,3.1,2.38s3.82-5.24,5.5-4.05,4.53.87,5.72.79,1.44-3.65,4.78-3.17S62,10.81,65.6,8.91s11.22-5.24,3.34-4.29S60.59,3.43,55.09,7,48.41,10.57,47,11.53s-3.11-2.86-5,0S40.78,12.86,40.77,15.58Z"/><path class="cls-3" d="M69.42,8.19c-2.82,2.43-7.16,6-3.82,6s5-1.75,6.78.55,1.1,5.88,1.1,7.55-1,5.48,1.43,10.24,2.63,7.86,5,4.77,8.11-9.06,11-9.53,5.73-1.67,7.16-4.05,0-4.7,2.39-6.4,1.91-3.85,2.62-6.47,7.17-2.62,4.3-4.05S99.26,4.38,93.06,5.09,74.67,3.67,69.42,8.19Z"/><path class="cls-3" d="M43.16,81.8c-1.52,2.48-.72,2.63,1,3.1s-.71,3.34,1.2,3.58,6.2,1.43,7.4,0S50.8,87.6,48.65,86,44.24,80.05,43.16,81.8Z"/><path class="cls-3" d="M158.71,120.64c-2.57,1.28-1.43,3.33-3.82,4.76s-1.43,1.91-2.14,5.24.23,5.24,1.9,2.62S161.58,119.21,158.71,120.64Z"/><path class="cls-3" d="M172.32,80.61c-.71-4-6-40.73-6-40.73s-14.08-9.06-16.47-7.15-6.45,1.62-6-.26,3.58-1.41-1.67-5S136,20.82,132,25.34s-5,8.34-7.4,9.53-4.3,5-1.67,6,2.87,0,5,1.9,5,1.43,5.5.24a52.85,52.85,0,0,0,1.19-6.43c.24-1.43,2.67-6.19,2.41-2.38s3.32,3.81.93,6.43-.95,4.77-5.73,5.24-5-2.38-7.64-.95-2.39,2.38-3.34,3.81-6,4.29-6,4.29-4.06-1.43-2.15,1.19,3.58,5.72,1.91,6-6.21-2.39-6.21.47-.71,6,1.2,6.67c1.35.51,2.22,1.6,3.46,1.45A6.15,6.15,0,0,0,111,70.61c-1.85,2.42-.71,6.67-4.53,8.1s-3.82,3.09-4.54,6.19,0,11,1,11.68,2.63,6.67,6.69,6.19,8.36-.66,9.79,0,3.82-1.46,4.54,4,2.38,6.19,3.34,9.05-.48,8.82,0,12.39S131,138,131,141.13a3.82,3.82,0,0,0,5.49,3.33c1.91-1.19,6-3.57,7.64-7.38s1.67-5.72,4.3-10.73,1.91-8.57,3.1-12.38,4.07-6.44,8-10.72,3.23-6.67,0-6.44-5.38-2.85-7.05-6.67-3.58-13.34-2.14-10.24,4.29,11.67,7.16,13.1,8.12-2.43,9.31-3.83.72-5.46-2.39-7.13-1.19-3.09,1.91-1.19S173,84.66,172.32,80.61ZM147,70.37c-.23,1.91.72,5-4.53,3.81s-5.25-4.05-7.4-1.9-4.78,4-7.88.71-2.63-4.29-4.3-4.53c-1.19-.17-5.16-1-8.47-.09a4.94,4.94,0,0,0,.83-.62c2.39-2.14,1.91-2.86,4.54-5.24s4.53-4.53,6.44-2.38,6,2.62,4.54,5-.48,3.81,1.19,2.38,4.06-2.38,2.39-4.29-3.34-6.91-1-3.57,3.1,5,4.53,6.91,2.87,3.1,3.34,1.9-.23-3.81.48-4.28,0,4,2.15,4.28S147.25,68.46,147,70.37Zm5.49-8.1c-1.67-1-4.77,0-8.59,1.19s-.76-2.65,1-5.24c1.53-2.31.71.72,4,1S154.18,63.22,152.5,62.27Zm8.36,7.39c-.71.71-1.91-3.34-2.62-5.25s-.7-5.21,1.31-7.06c2.51-2.29,1.31,3,1.31,5.87S161.58,68.94,160.86,69.66Z"/><path class="cls-3" d="M114.78,40.59c-1.46.44-2.62,3.34-1.91,4.77s-.71-.72-2.62.47-4.75,4.53-2.14,4.77,2.14-1.91,4.52-1,5,.72,5-1.66S117.17,39.88,114.78,40.59Z"/><path class="cls-3" d="M99.26,29.63c-1.43.21-1.91,3.81,1.2,4.29s8.66-.71,6.6-2.62S102.61,29.16,99.26,29.63Z"/></g><circle class="cls-4" cx="85.29" cy="85.29" r="83.79"/></g></g></svg>