<svg width="14" height="18" viewBox="0 0 14 18" fill="none" xmlns="http://www.w3.org/2000/svg">
<path d="M12.6392 7.26915H12.2943V5.62762C12.2943 2.5915 9.92509 0.05525 6.96387 0.00110944C6.88296 -0.000369813 6.72128 -0.000369813 6.64041 0.00110944C3.67912 0.05525 1.30997 2.5915 1.30997 5.62762V7.26915H0.965046C0.43354 7.26915 0 7.8269 0 8.51575V16.749C0 17.437 0.43354 18 0.965082 18H12.6392C13.1707 18 13.6042 17.437 13.6042 16.749V8.51575C13.6042 7.82694 13.1707 7.26915 12.6392 7.26915ZM7.89583 12.624V15.1118C7.89583 15.3966 7.66131 15.6377 7.38098 15.6377H6.22334C5.94297 15.6377 5.70846 15.3966 5.70846 15.1118V12.624C5.43656 12.3518 5.27826 11.9755 5.27826 11.5591C5.27826 10.7702 5.87795 10.0922 6.64045 10.0609C6.72125 10.0576 6.88311 10.0576 6.96391 10.0609C7.7264 10.0922 8.32609 10.7702 8.32609 11.5591C8.32602 11.9755 8.16773 12.3518 7.89583 12.624ZM10.0211 7.26915H6.96387H6.64041H3.58316V5.62762C3.58316 3.81906 5.02844 2.32364 6.80212 2.32364C8.57581 2.32364 10.0212 3.81906 10.0212 5.62762V7.26915H10.0211Z" fill="#656D78"/>
</svg>
