<svg width="13" height="18" viewBox="0 0 13 18" fill="none" xmlns="http://www.w3.org/2000/svg">
<path d="M11.0102 4.21277H10.6122V0.574468C10.6122 0.257208 10.4341 0 10.2143 0H2.78571C2.56593 0 2.38776 0.257208 2.38776 0.574468V4.21277H1.9898C0.892622 4.21277 0 5.5013 0 7.08511V15.1277C0 16.7115 0.892622 18 1.9898 18H11.0102C12.1074 18 13 16.7115 13 15.1277V7.08511C13 5.5013 12.1074 4.21277 11.0102 4.21277ZM3.18367 1.14894H9.81633V4.21277H3.18367V1.14894ZM12.2041 15.1277C12.2041 16.0779 11.6685 16.8511 11.0102 16.8511H1.9898C1.33149 16.8511 0.795918 16.0779 0.795918 15.1277V7.08511C0.795918 6.13482 1.33149 5.3617 1.9898 5.3617H11.0102C11.6685 5.3617 12.2041 6.13482 12.2041 7.08511V15.1277ZM9.10318 8.00437C8.79458 8.00437 8.49988 8.13489 8.24826 8.37808C7.99664 8.13485 7.70192 8.00437 7.39334 8.00437C6.97607 8.00437 6.58421 8.24293 6.2899 8.67612C6.18354 8.83264 6.09599 9.00643 6.02722 9.19149H2.78571C2.56593 9.19149 2.38776 9.4487 2.38776 9.76596C2.38776 10.0832 2.56593 10.3404 2.78571 10.3404H5.83854C5.8452 10.7406 5.92299 11.1386 6.0719 11.4894H5.17347C4.95369 11.4894 4.77551 11.7466 4.77551 12.0638C4.77551 12.3811 4.95369 12.6383 5.17347 12.6383H6.76531C6.77552 12.6383 6.7856 12.6377 6.7956 12.6367L7.59248 13.8096C7.76721 14.0667 8.00009 14.2084 8.24823 14.2084C8.24826 14.2084 8.24826 14.2084 8.24826 14.2084C8.49643 14.2084 8.72934 14.0668 8.90407 13.8096C8.90407 13.8096 10.195 11.9096 10.2069 11.892C10.809 11.0052 10.809 9.56271 10.2066 8.67612C9.91231 8.24293 9.52046 8.00437 9.10318 8.00437ZM9.63836 11.0879C9.63828 11.088 9.63815 11.0882 9.63807 11.0883C9.62371 11.1095 8.33581 13.0051 8.33581 13.0051C8.30528 13.05 8.27134 13.0595 8.24826 13.0595C8.22518 13.0595 8.19125 13.05 8.16071 13.0051L6.85814 11.0879C6.55707 10.6448 6.55707 9.92378 6.85814 9.4806C7.00153 9.26954 7.1916 9.15331 7.39334 9.15331C7.59505 9.15331 7.78512 9.26954 7.92851 9.48064C7.93642 9.49224 7.94401 9.50408 7.95146 9.51606C8.00429 9.60089 8.11282 9.70637 8.25625 9.70637C8.36648 9.70637 8.47091 9.63479 8.54469 9.51656C8.55228 9.50442 8.55997 9.4924 8.56801 9.48064C8.71138 9.26958 8.90142 9.15335 9.10316 9.15335C9.3049 9.15335 9.49493 9.26958 9.63833 9.48064C9.93946 9.92374 9.93946 10.6447 9.63836 11.0879Z" fill="#656D78"/>
</svg>
