<svg width="22" height="20" viewBox="0 0 22 20" fill="none" xmlns="http://www.w3.org/2000/svg">
<path d="M8.04179 8.03875C8.85136 8.03875 9.50765 7.34402 9.50765 6.48703C9.50765 5.63003 8.85136 4.9353 8.04179 4.9353C7.23222 4.9353 6.57593 5.63003 6.57593 6.48703C6.57593 7.34402 7.23222 8.03875 8.04179 8.03875Z" fill="#656D78"/>
<path d="M20.0742 12.1983C19.3819 11.5086 18.5065 11.056 17.5496 10.9267V3.03879C17.5496 2.19828 17.2239 1.44397 16.7149 0.883621C16.1856 0.323276 15.473 0 14.679 0H2.87065C2.07664 0 1.36407 0.344828 0.834727 0.883621C0.305388 1.44397 0 2.19828 0 3.03879V12.9741V13.9009V15.9052C0 16.7457 0.325747 17.5 0.834727 18.0603C1.36407 18.6207 2.07664 18.944 2.87065 18.944H14.2921C15.0454 19.5905 15.982 20 17.0203 20C18.2215 20 19.3005 19.4828 20.0742 18.6638C20.8478 17.8448 21.3364 16.7026 21.3364 15.431C21.3364 14.1595 20.8478 13.0172 20.0742 12.1983ZM1.07904 3.03879C1.07904 2.52155 1.28263 2.04741 1.60838 1.70259C1.93412 1.35776 2.38202 1.14224 2.87065 1.14224H14.679C15.1676 1.14224 15.6155 1.35776 15.9412 1.70259C16.267 2.04741 16.4706 2.52155 16.4706 3.03879V9.76293L13.4574 6.59483C13.2538 6.37931 12.9077 6.35776 12.6838 6.59483L8.14367 11.4224L5.06944 8.14655C4.86584 7.93103 4.51974 7.90948 4.29579 8.14655L1.07904 11.5948V3.03879ZM2.85029 17.8233V17.8017C2.36167 17.8017 1.91376 17.5862 1.58802 17.2414C1.28263 16.8966 1.07904 16.4224 1.07904 15.9052V13.9009V13.2112L4.70297 9.375L7.77721 12.6293C7.9808 12.8448 8.32691 12.8448 8.55086 12.6293L13.091 7.80172L16.0634 10.9698C16.0023 10.9914 15.9412 11.0129 15.8802 11.0345C15.7987 11.056 15.7173 11.0776 15.6155 11.1207C15.5341 11.1422 15.4526 11.1853 15.3712 11.2069C15.3101 11.2284 15.2694 11.25 15.2083 11.2931C15.1269 11.3362 15.0658 11.3578 15.0047 11.4009C14.9029 11.4655 14.8011 11.5302 14.6993 11.5948C14.6383 11.6379 14.5975 11.6595 14.5365 11.7026C14.4957 11.7241 14.4754 11.7457 14.4347 11.7672C14.2514 11.8966 14.0886 12.0474 13.946 12.2198C13.1724 13.0388 12.6838 14.181 12.6838 15.4526C12.6838 15.7759 12.7245 16.0776 12.7856 16.4009C12.8059 16.4871 12.8263 16.5517 12.8466 16.6379C12.9077 16.8534 12.9688 17.069 13.0502 17.2845V17.306C13.1317 17.4784 13.2131 17.6724 13.3149 17.8233H2.85029ZM19.2801 17.8448C18.6897 18.4698 17.8957 18.8362 16.9999 18.8362C16.1448 18.8362 15.3508 18.4698 14.7808 17.8879C14.6993 17.8017 14.6179 17.694 14.5365 17.6078C14.4754 17.5431 14.4143 17.4569 14.3532 17.3922C14.2718 17.2845 14.2107 17.1552 14.1496 17.0259C14.1089 16.9397 14.0682 16.875 14.0275 16.7888C13.9868 16.681 13.946 16.5517 13.9257 16.4224C13.9053 16.3362 13.8646 16.2284 13.8442 16.1422C13.8035 15.9267 13.7832 15.6897 13.7832 15.4526C13.7832 14.5043 14.1496 13.6638 14.7197 13.0388C15.3101 12.4138 16.1041 12.0474 16.9999 12.0474C17.8957 12.0474 18.6897 12.4353 19.2801 13.0388C19.8706 13.6422 20.2167 14.5043 20.2167 15.4526C20.2167 16.3793 19.8502 17.2198 19.2801 17.8448Z" fill="#656D78"/>
<path d="M18.7713 14.8492H17.5294V13.5345C17.5294 13.2112 17.2851 12.9526 16.9797 12.9526C16.6743 12.9526 16.43 13.2112 16.43 13.5345V14.8492H15.1881C14.8827 14.8492 14.6384 15.1078 14.6384 15.4311C14.6384 15.7543 14.8827 16.013 15.1881 16.013H16.43V17.3276C16.43 17.6509 16.6743 17.9095 16.9797 17.9095C17.2851 17.9095 17.5294 17.6509 17.5294 17.3276V16.013H18.7713C19.0767 16.013 19.321 15.7543 19.321 15.4311C19.321 15.1078 19.0767 14.8492 18.7713 14.8492Z" fill="#656D78"/>
</svg>
