<svg width="23" height="20" viewBox="0 0 23 20" fill="none" xmlns="http://www.w3.org/2000/svg">
<path d="M11.1406 16.25H3.59375C3.49844 16.25 3.40703 16.2829 3.33963 16.3415C3.27224 16.4001 3.23438 16.4796 3.23438 16.5625C3.23438 16.6454 3.27224 16.7249 3.33963 16.7835C3.40703 16.8421 3.49844 16.875 3.59375 16.875H11.1406C11.2359 16.875 11.3273 16.8421 11.3947 16.7835C11.4621 16.7249 11.5 16.6454 11.5 16.5625C11.5 16.4796 11.4621 16.4001 11.3947 16.3415C11.3273 16.2829 11.2359 16.25 11.1406 16.25Z" fill="#656D78"/>
<path d="M12.9375 16.25H12.2188C12.1234 16.25 12.032 16.2829 11.9646 16.3415C11.8972 16.4001 11.8594 16.4796 11.8594 16.5625C11.8594 16.6454 11.8972 16.7249 11.9646 16.7835C12.032 16.8421 12.1234 16.875 12.2188 16.875H12.9375C13.0328 16.875 13.1242 16.8421 13.1916 16.7835C13.259 16.7249 13.2969 16.6454 13.2969 16.5625C13.2969 16.4796 13.259 16.4001 13.1916 16.3415C13.1242 16.2829 13.0328 16.25 12.9375 16.25Z" fill="#656D78"/>
<path d="M15.4531 6.875H16.8906C16.9859 6.875 17.0773 6.84208 17.1447 6.78347C17.2121 6.72487 17.25 6.64538 17.25 6.5625V3.125C17.25 3.04212 17.2121 2.96263 17.1447 2.90403C17.0773 2.84542 16.9859 2.8125 16.8906 2.8125H15.4531C15.3578 2.8125 15.2664 2.84542 15.199 2.90403C15.1316 2.96263 15.0938 3.04212 15.0938 3.125V6.5625C15.0938 6.64538 15.1316 6.72487 15.199 6.78347C15.2664 6.84208 15.3578 6.875 15.4531 6.875ZM15.8125 3.4375H16.5312V6.25H15.8125V3.4375Z" fill="#656D78"/>
<path d="M15.4531 9.0625H16.8906C16.9859 9.0625 17.0773 9.02958 17.1447 8.97097C17.2121 8.91237 17.25 8.83288 17.25 8.75V7.5C17.25 7.41712 17.2121 7.33763 17.1447 7.27903C17.0773 7.22042 16.9859 7.1875 16.8906 7.1875H15.4531C15.3578 7.1875 15.2664 7.22042 15.199 7.27903C15.1316 7.33763 15.0938 7.41712 15.0938 7.5V8.75C15.0938 8.83288 15.1316 8.91237 15.199 8.97097C15.2664 9.02958 15.3578 9.0625 15.4531 9.0625ZM15.8125 7.8125H16.5312V8.4375H15.8125V7.8125Z" fill="#656D78"/>
<path d="M21.2031 5.93753C21.2037 5.12998 20.9471 4.33806 20.4617 3.64959C19.9763 2.96112 19.2811 2.40299 18.4532 2.03709C17.6253 1.67119 16.6971 1.51182 15.7714 1.57664C14.8457 1.64146 13.9587 1.92795 13.2088 2.40433C12.6739 2.12559 12.0974 1.91225 11.4955 1.77035C11.4651 1.37479 11.2629 1.00408 10.9298 0.733369C10.5968 0.462658 10.1578 0.312202 9.70187 0.3125C9.24597 0.312799 8.80725 0.463828 8.47465 0.734974C8.14205 1.00612 7.94047 1.37709 7.91075 1.77269C5.01239 2.46527 2.87501 4.79496 2.87501 7.55394V14.7313C2.87502 14.8484 2.8372 14.9632 2.76585 15.0625L2.1639 15.9C2.02777 16.0892 1.95239 16.3066 1.94558 16.5297C1.93876 16.7528 2.00077 16.9734 2.12515 17.1686C2.24954 17.3638 2.43176 17.5264 2.6529 17.6397C2.87403 17.7529 3.126 17.8126 3.38263 17.8125H7.21357C7.29995 18.3331 7.59918 18.8092 8.05641 19.1535C8.51365 19.4979 9.09826 19.6874 9.70314 19.6874C10.308 19.6874 10.8926 19.4979 11.3499 19.1535C11.8071 18.8092 12.1063 18.3331 12.1927 17.8125H16.0236C16.2803 17.8126 16.5322 17.7529 16.7534 17.6397C16.9745 17.5264 17.1567 17.3638 17.2811 17.1686C17.4055 16.9734 17.4675 16.7528 17.4607 16.5297C17.4539 16.3066 17.3785 16.0892 17.2424 15.9L16.6404 15.0625C16.5691 14.9632 16.5312 14.8484 16.5313 14.7313V10.3012C17.7996 10.2209 18.9861 9.72649 19.8526 8.91712C20.7192 8.10776 21.2016 7.04336 21.2031 5.93753ZM9.70314 0.937533C9.94032 0.937823 10.1708 1.00599 10.359 1.13152C10.5472 1.25704 10.6826 1.43294 10.7444 1.63206C10.3996 1.58592 10.0512 1.56268 9.70224 1.56253H9.69999C9.3524 1.56248 9.00533 1.58573 8.66185 1.63206C8.72364 1.43294 8.85909 1.25704 9.04728 1.13152C9.23548 1.00599 9.46595 0.937823 9.70314 0.937533ZM9.70314 19.0625C9.28906 19.0621 8.88781 18.9375 8.56704 18.7098C8.24626 18.4821 8.02558 18.1652 7.9422 17.8125H11.4641C11.3807 18.1652 11.16 18.4821 10.8392 18.7098C10.5185 18.9375 10.1172 19.0621 9.70314 19.0625ZM16.6332 16.2313C16.7012 16.3259 16.7389 16.4346 16.7422 16.5461C16.7456 16.6577 16.7146 16.768 16.6524 16.8655C16.5902 16.9631 16.499 17.0445 16.3885 17.1011C16.2779 17.1577 16.152 17.1875 16.0236 17.1875H3.38263C3.25432 17.1875 3.12835 17.1577 3.01779 17.1011C2.90723 17.0445 2.81612 16.9631 2.75391 16.8655C2.6917 16.768 2.66067 16.6577 2.66403 16.5461C2.6674 16.4346 2.70503 16.3259 2.77304 16.2313L3.37499 15.3938C3.51814 15.1952 3.59396 14.9656 3.59376 14.7313V7.55394C3.59376 4.59652 6.3331 2.1891 9.69999 2.18753H9.70224C10.7244 2.18641 11.7305 2.40914 12.6276 2.83519C11.9419 3.42674 11.4667 4.17749 11.2587 4.99767C11.0507 5.81785 11.1187 6.67278 11.4546 7.46023C11.7905 8.24769 12.3801 8.93436 13.1529 9.43817C13.9258 9.94197 14.8491 10.2416 15.8125 10.3012V14.7313C15.8123 14.9656 15.8881 15.1952 16.0313 15.3938L16.6332 16.2313ZM16.1719 9.68753C15.319 9.68753 14.4852 9.4676 13.776 9.05554C13.0668 8.64349 12.5141 8.05782 12.1877 7.3726C11.8613 6.68737 11.7759 5.93337 11.9422 5.20595C12.1086 4.47852 12.5194 3.81033 13.1225 3.28588C13.7256 2.76144 14.494 2.40428 15.3306 2.25959C16.1671 2.11489 17.0342 2.18916 17.8222 2.47299C18.6102 2.75681 19.2837 3.23746 19.7576 3.85415C20.2315 4.47083 20.4844 5.19585 20.4844 5.93753C20.483 6.93173 20.0282 7.88487 19.2198 8.58787C18.4113 9.29087 17.3152 9.68634 16.1719 9.68753Z" fill="#656D78"/>
</svg>
