<svg width="15" height="15" viewBox="0 0 15 15" fill="none" xmlns="http://www.w3.org/2000/svg">
<g clip-path="url(#clip0)">
<path d="M13.4982 12.8661C16.1091 9.85465 15.2007 5.17298 11.6498 3.34667C10.6242 1.36081 8.55149 0 6.16675 0C2.76644 0 0.000113206 2.7665 0.000113206 6.16699C0.000113206 7.66403 0.530035 9.07989 1.5012 10.2001L0.130865 11.5524C-0.146869 11.8266 0.0455233 12.3028 0.437457 12.3047L3.74672 12.3204C4.8871 13.9799 6.77097 15 8.83265 15C8.83687 15 14.5586 14.9707 14.562 14.9707C14.9526 14.9688 15.1472 14.4935 14.8685 14.2184L13.4982 12.8661ZM2.42443 9.90284C1.42784 8.9044 0.878961 7.57764 0.878961 6.16699C0.878961 3.25113 3.25107 0.878906 6.16675 0.878906C9.08244 0.878906 11.4545 3.25113 11.4545 6.16699C11.4545 8.96112 9.24343 11.4776 5.99528 11.4522L1.5053 11.4309L2.42209 10.5261C2.59547 10.355 2.59649 10.0753 2.42443 9.90284ZM8.83265 14.1211C7.29064 14.1211 5.85735 13.4622 4.86102 12.3258C6.53399 12.3368 6.08988 12.334 6.16675 12.334C10.1336 12.334 13.0956 8.61302 12.1635 4.72802C14.5941 6.71358 14.7932 10.3465 12.575 12.5689C12.4029 12.7413 12.4039 13.021 12.5773 13.1921L13.4941 14.0969C13.4906 14.0969 8.83605 14.1211 8.83265 14.1211Z" fill="#656D78"/>
<path d="M3.54501 4.86328H8.81816C9.06085 4.86328 9.25758 4.66652 9.25758 4.42383C9.25758 4.18113 9.06085 3.98438 8.81816 3.98438H3.54501C3.30232 3.98438 3.10559 4.18113 3.10559 4.42383C3.10559 4.66652 3.30235 4.86328 3.54501 4.86328Z" fill="#656D78"/>
<path d="M3.54501 6.62109H8.81816C9.06085 6.62109 9.25758 6.42434 9.25758 6.18164C9.25758 5.93895 9.06085 5.74219 8.81816 5.74219H3.54501C3.30232 5.74219 3.10559 5.93895 3.10559 6.18164C3.10559 6.42434 3.30235 6.62109 3.54501 6.62109Z" fill="#656D78"/>
<path d="M3.54501 8.37891H8.81816C9.06085 8.37891 9.25758 8.18215 9.25758 7.93945C9.25758 7.69676 9.06085 7.5 8.81816 7.5H3.54501C3.30232 7.5 3.10559 7.69676 3.10559 7.93945C3.10559 8.18215 3.30235 8.37891 3.54501 8.37891Z" fill="#656D78"/>
</g>
<defs>
<clipPath id="clip0">
<rect width="15" height="15" fill="white"/>
</clipPath>
</defs>
</svg>
