<svg width="19" height="16" viewBox="0 0 19 16" fill="none" xmlns="http://www.w3.org/2000/svg">
<path d="M18.4896 6.95923C18.4892 6.95886 18.4888 6.9585 18.4883 6.95813L10.737 0.431641C10.4066 0.15332 9.96737 0 9.50012 0C9.03287 0 8.5936 0.153198 8.26306 0.431519L0.515834 6.95471C0.513225 6.95691 0.510615 6.95923 0.508006 6.96143C-0.170469 7.53601 -0.169309 8.46826 0.51134 9.04138C0.822308 9.30334 1.23302 9.45508 1.67214 9.47095C1.68997 9.47241 1.70795 9.47314 1.72607 9.47314H2.03501V14.2762C2.03501 15.2267 2.95342 16 4.08247 16H7.11502C7.42236 16 7.67172 15.7902 7.67172 15.5312V11.7656C7.67172 11.3319 8.09069 10.9791 8.60578 10.9791H10.3945C10.9095 10.9791 11.3285 11.3319 11.3285 11.7656V15.5312C11.3285 15.7902 11.5777 16 11.8852 16H14.9178C16.0468 16 16.9652 15.2267 16.9652 14.2762V9.47314H17.2517C17.7188 9.47314 18.1581 9.31995 18.4888 9.04163C19.1701 8.46753 19.1704 7.53369 18.4896 6.95923Z" fill="#656D78"/>
</svg>
