<svg width="14" height="14" viewBox="0 0 14 14" fill="none" xmlns="http://www.w3.org/2000/svg">
<path d="M7 3.5C7.9625 3.5 8.75 2.7125 8.75 1.75C8.75 0.7875 7.9625 0 7 0C6.0375 0 5.25 0.7875 5.25 1.75C5.25 2.7125 6.0375 3.5 7 3.5ZM7 5.25C6.0375 5.25 5.25 6.0375 5.25 7C5.25 7.9625 6.0375 8.75 7 8.75C7.9625 8.75 8.75 7.9625 8.75 7C8.75 6.0375 7.9625 5.25 7 5.25ZM7 10.5C6.0375 10.5 5.25 11.2875 5.25 12.25C5.25 13.2125 6.0375 14 7 14C7.9625 14 8.75 13.2125 8.75 12.25C8.75 11.2875 7.9625 10.5 7 10.5Z" fill="#656D78"/>
</svg>
