<svg width="19" height="19" viewBox="0 0 19 19" fill="none" xmlns="http://www.w3.org/2000/svg">
<path d="M9.36455 9.15237C10.6219 9.15237 11.7106 8.70141 12.6003 7.81165C13.4898 6.92204 13.9409 5.83355 13.9409 4.57604C13.9409 3.31896 13.4899 2.23033 12.6002 1.34043C11.7104 0.450965 10.6218 0 9.36455 0C8.10703 0 7.01854 0.450965 6.12893 1.34057C5.23932 2.23018 4.78821 3.31882 4.78821 4.57604C4.78821 5.83355 5.23932 6.92219 6.12893 7.8118C7.01883 8.70126 8.10747 9.15237 9.36455 9.15237ZM6.91634 2.12784C7.59895 1.44523 8.3997 1.11342 9.36455 1.11342C10.3292 1.11342 11.1301 1.44523 11.8129 2.12784C12.4955 2.8106 12.8275 3.61149 12.8275 4.57604C12.8275 5.54088 12.4955 6.34163 11.8129 7.02439C11.1301 7.70714 10.3292 8.03895 9.36455 8.03895C8.39999 8.03895 7.59924 7.70699 6.91634 7.02439C6.23359 6.34178 5.90163 5.54088 5.90163 4.57604C5.90163 3.61149 6.23359 2.8106 6.91634 2.12784Z" fill="#656D78"/>
<path d="M17.372 14.61C17.3463 14.2398 17.2944 13.836 17.218 13.4095C17.1409 12.9798 17.0416 12.5737 16.9227 12.2024C16.7998 11.8187 16.633 11.4398 16.4264 11.0767C16.2123 10.6998 15.9607 10.3716 15.6783 10.1016C15.383 9.81903 15.0215 9.59188 14.6034 9.42619C14.1868 9.26138 13.7251 9.17788 13.2312 9.17788C13.0373 9.17788 12.8497 9.25746 12.4874 9.49331C12.2645 9.6387 12.0037 9.80685 11.7126 9.99283C11.4638 10.1514 11.1266 10.3 10.7101 10.4345C10.3038 10.566 9.89124 10.6327 9.48391 10.6327C9.07687 10.6327 8.66431 10.566 8.25771 10.4345C7.84167 10.3001 7.50436 10.1516 7.2559 9.99298C6.96758 9.80874 6.70665 9.64059 6.48037 9.49316C6.11841 9.25732 5.93083 9.17773 5.73688 9.17773C5.24286 9.17773 4.78131 9.26138 4.36485 9.42634C3.94707 9.59174 3.5854 9.81888 3.28983 10.1017C3.00745 10.3719 2.75581 10.6999 2.54185 11.0767C2.33557 11.4398 2.16858 11.8186 2.04565 12.2026C1.92693 12.5738 1.82764 12.9798 1.75052 13.4095C1.67398 13.8354 1.62223 14.2394 1.59657 14.6105C1.57135 14.9733 1.55859 15.3509 1.55859 15.7325C1.55859 16.7243 1.87388 17.5272 2.49561 18.1193C3.10965 18.7037 3.922 19 4.91018 19H14.0588C15.0467 19 15.859 18.7037 16.4732 18.1193C17.0951 17.5276 17.4104 16.7244 17.4104 15.7323C17.4102 15.3495 17.3973 14.9719 17.372 14.61ZM15.7055 17.3126C15.2998 17.6988 14.7611 17.8865 14.0587 17.8865H4.91018C4.20757 17.8865 3.6689 17.6988 3.26331 17.3128C2.86539 16.934 2.67202 16.4169 2.67202 15.7325C2.67202 15.3764 2.68376 15.0249 2.70724 14.6875C2.73015 14.3564 2.77697 13.9927 2.84641 13.6062C2.91497 13.2245 3.00224 12.8663 3.10603 12.5421C3.20561 12.2311 3.34144 11.9232 3.50988 11.6267C3.67064 11.344 3.85561 11.1015 4.05971 10.9061C4.25062 10.7233 4.49125 10.5737 4.77479 10.4615C5.03702 10.3577 5.33172 10.3009 5.65164 10.2923C5.69064 10.313 5.76007 10.3526 5.87256 10.426C6.10145 10.5751 6.36527 10.7453 6.65693 10.9316C6.98569 11.1412 7.40926 11.3305 7.91531 11.4939C8.43267 11.6612 8.96032 11.7461 9.48405 11.7461C10.0078 11.7461 10.5356 11.6612 11.0527 11.494C11.5591 11.3304 11.9826 11.1412 12.3118 10.9313C12.6102 10.7405 12.8667 10.5753 13.0956 10.426C13.208 10.3528 13.2775 10.313 13.3165 10.2923C13.6365 10.3009 13.9312 10.3577 14.1936 10.4615C14.477 10.5737 14.7176 10.7234 14.9085 10.9061C15.1126 11.1013 15.2976 11.3438 15.4584 11.6268C15.627 11.9232 15.7629 12.2313 15.8624 12.5419C15.9663 12.8666 16.0537 13.2247 16.1221 13.6061C16.1914 13.9932 16.2384 14.3571 16.2613 14.6876V14.6879C16.2849 15.024 16.2968 15.3754 16.297 15.7325C16.2968 16.4171 16.1034 16.934 15.7055 17.3126Z" fill="#656D78"/>
</svg>
