<svg xmlns="http://www.w3.org/2000/svg" viewBox="0 0 176.86 63.3"><defs><style>.cls-1{fill:#5d9cec;}.cls-2{fill:#ff6c6c;}.cls-3{fill:#ff4949;}</style></defs><title>Recurso 2logo</title><g id="Capa_2" data-name="Capa 2"><g id="Capa_1-2" data-name="Capa 1"><path class="cls-1" d="M37,36.1a.88.88,0,0,1,.8.48,2.38,2.38,0,0,1,.32,1.32,3.75,3.75,0,0,1-.76,2.48A17.53,17.53,0,0,1,33.52,44a8.47,8.47,0,0,1-4.64,1.24,7.15,7.15,0,0,1-4.44-1.4A13.3,13.3,0,0,1,21,39c-.88-1.81-1.57-3.15-2.08-4a6,6,0,0,0-1.52-1.88,3.52,3.52,0,0,0-1.8-.68c-.11.56-.41,2.32-.92,5.28-.21,1.33-.35,2.15-.4,2.44a7.22,7.22,0,0,1-1.6,3.76A4.77,4.77,0,0,1,9,45.22a7.72,7.72,0,0,1-4.76-1.56,10.33,10.33,0,0,1-3.16-4.4A17.36,17.36,0,0,1,0,32.82a26.73,26.73,0,0,1,2.32-11.6,17.25,17.25,0,0,1,6.56-7.44,18.33,18.33,0,0,1,9.76-2.6,15.85,15.85,0,0,1,6.44,1.16,8.27,8.27,0,0,1,3.84,3.2,8.5,8.5,0,0,1,1.28,4.6,9.75,9.75,0,0,1-1.08,4.4A10.75,10.75,0,0,1,26,28.3a14.2,14.2,0,0,1-5.16,2.44,6,6,0,0,1,3,1.68,14,14,0,0,1,2.08,3.4A13.36,13.36,0,0,0,28,39.34a3.52,3.52,0,0,0,2.56,1.12A4.1,4.1,0,0,0,33,39.62a20.36,20.36,0,0,0,2.92-3A1.41,1.41,0,0,1,37,36.1Zm-27-3.68a2.3,2.3,0,0,1-1.88-.64,2.35,2.35,0,0,1-.48-1.44,2,2,0,0,1,.6-1.52,2.16,2.16,0,0,1,1.44-.56h1c.43-2.61.83-4.87,1.2-6.76a3,3,0,0,1,3.36-2.6q2.28,0,2.28,2a4,4,0,0,1,0,.68l-1.2,6.64a9.53,9.53,0,0,0,3.92-1,7.11,7.11,0,0,0,2.84-2.56,6.6,6.6,0,0,0,1.08-3.72,4.88,4.88,0,0,0-1.72-4,7.69,7.69,0,0,0-5-1.44,12.15,12.15,0,0,0-6.88,2A12.5,12.5,0,0,0,6,23.26a23.46,23.46,0,0,0-1.64,9.28,16.19,16.19,0,0,0,.52,4.4A7.56,7.56,0,0,0,6.16,39.7a2.06,2.06,0,0,0,1.44.92.94.94,0,0,0,.84-.52A4.35,4.35,0,0,0,9,38.42Zm44.45.32a.86.86,0,0,1,.8.52,2.75,2.75,0,0,1,.28,1.32c0,1.28-.38,2-1.16,2.28a18.21,18.21,0,0,1-5.28,1,10,10,0,0,1-3,5.4,7.42,7.42,0,0,1-5.08,2A7.23,7.23,0,0,1,37,44.06,7.43,7.43,0,0,1,34.41,41a10,10,0,0,1-.88-4.16,12.11,12.11,0,0,1,1.16-5.4,9,9,0,0,1,3.2-3.72,8,8,0,0,1,4.52-1.36,6.14,6.14,0,0,1,4.88,2.12,8.79,8.79,0,0,1,2.2,5.16,24.38,24.38,0,0,0,4.48-.8A2.59,2.59,0,0,1,54.53,32.74ZM41.41,41a2.84,2.84,0,0,0,2.2-1,5.63,5.63,0,0,0,1.28-3A5.76,5.76,0,0,1,43,34.74a6.8,6.8,0,0,1-.64-2.88,6.93,6.93,0,0,1,.12-1.28h-.2a3.19,3.19,0,0,0-2.68,1.56,7.62,7.62,0,0,0-1,4.32,5.67,5.67,0,0,0,.84,3.36A2.55,2.55,0,0,0,41.41,41ZM57.1,45.22a4.87,4.87,0,0,1-4-1.8,7.17,7.17,0,0,1-1.48-4.72,12.85,12.85,0,0,1,1.48-6,12.52,12.52,0,0,1,3.92-4.6A8.92,8.92,0,0,1,62.3,26.3a1.43,1.43,0,0,1,1.16.36,2.5,2.5,0,0,1,.52,1.2,9.14,9.14,0,0,1,1.76-.16c1.31,0,2,.47,2,1.4a30.09,30.09,0,0,1-.6,4,39.25,39.25,0,0,0-.92,6.4,1.5,1.5,0,0,0,.28,1,1,1,0,0,0,.8.36,3.05,3.05,0,0,0,1.84-1A37.52,37.52,0,0,0,72,36.66a1.41,1.41,0,0,1,1.08-.56.88.88,0,0,1,.8.48,2.38,2.38,0,0,1,.32,1.32,3.66,3.66,0,0,1-.76,2.48A19.8,19.8,0,0,1,70,43.82a6,6,0,0,1-3.56,1.4A3.85,3.85,0,0,1,64,44.34a5.66,5.66,0,0,1-1.64-2.48C61,44.1,59.21,45.22,57.1,45.22Zm1.44-4a2.19,2.19,0,0,0,1.68-1,6.75,6.75,0,0,0,1.16-2.76L62.86,30a4.88,4.88,0,0,0-3.12,1.28,8.48,8.48,0,0,0-2.24,3.2,10.84,10.84,0,0,0-.84,4.24,2.91,2.91,0,0,0,.48,1.84A1.76,1.76,0,0,0,58.54,41.18ZM93.69,36.1a.88.88,0,0,1,.8.48,2.38,2.38,0,0,1,.32,1.32,3.66,3.66,0,0,1-.76,2.48,19.78,19.78,0,0,1-3.6,3.44,6.7,6.7,0,0,1-3.88,1.4c-2,0-3.57-1.19-4.64-3.56a11.41,11.41,0,0,1-3,2.84,5.72,5.72,0,0,1-2.92.72,5.17,5.17,0,0,1-4-1.8,7.11,7.11,0,0,1-1.56-4.76,13,13,0,0,1,1.36-5.92,12.09,12.09,0,0,1,3.72-4.48,10.9,10.9,0,0,1,5.36-2.08,50.86,50.86,0,0,1,2.88-13.24q2.16-5.52,5.64-5.52A3.37,3.37,0,0,1,92.25,9a7.91,7.91,0,0,1,1.16,4.72,31,31,0,0,1-2.2,10.48A78.3,78.3,0,0,1,85.33,36.5,9.08,9.08,0,0,0,86,39.82a1.61,1.61,0,0,0,1.4,1,3.43,3.43,0,0,0,2.2-1,28.85,28.85,0,0,0,3-3.2A1.41,1.41,0,0,1,93.69,36.1ZM89,11.34c-.51,0-1,.91-1.52,2.72a49.15,49.15,0,0,0-1.32,7q-.52,4.37-.76,9.12,4.48-9.76,4.48-15.68a7.7,7.7,0,0,0-.28-2.36Q89.33,11.34,89,11.34ZM77.45,41.18a2.45,2.45,0,0,0,1.52-.6,12.28,12.28,0,0,0,1.92-2.32,26.38,26.38,0,0,1-.4-4.84c0-.64,0-1.68.08-3.12a6.75,6.75,0,0,0-3.68,3,9,9,0,0,0-1.44,5C75.45,40.21,76.12,41.18,77.45,41.18Zm45.83-29.36a3.51,3.51,0,0,1,1.84.84,1.89,1.89,0,0,1,.64,1.4A2.32,2.32,0,0,1,125,16a3.23,3.23,0,0,1-2.32.48q-3.6-.29-5.64-.36c-1.34-.08-3.1-.13-5.28-.16q-1.49,7.37-2.72,14.8c-.3,1.81-.6,3.92-.92,6.32s-.54,4.29-.64,5.76a2.36,2.36,0,0,1-1,1.8,3.69,3.69,0,0,1-2.12.6,3,3,0,0,1-2-.64,2.15,2.15,0,0,1-.72-1.68,27.79,27.79,0,0,1,.28-3.16q.31-2.24.72-4.68c.29-1.63.52-3,.68-4.24q.44-3,1-6t1.12-5.68c.08-.4.17-.85.28-1.36s.22-1.12.36-1.76a32.67,32.67,0,0,0-6.16.64,6.63,6.63,0,0,0-3.2,1.48,3.21,3.21,0,0,0-.92,2.4,4.67,4.67,0,0,0,.8,2.6,1.28,1.28,0,0,1,.16.6,1.86,1.86,0,0,1-.92,1.44,3.07,3.07,0,0,1-1.84.64,1.57,1.57,0,0,1-1.12-.4,4.81,4.81,0,0,1-1.32-1.92A7.5,7.5,0,0,1,91,20.58a7,7,0,0,1,2.2-5.44,14,14,0,0,1,6.76-3,58.34,58.34,0,0,1,11.68-1q4.39,0,7,.16A39.59,39.59,0,0,1,123.28,11.82Zm.2,11.92A3.63,3.63,0,0,1,121,23a2.89,2.89,0,0,1-.84-2.2,2.92,2.92,0,0,1,1.08-2.32,4.07,4.07,0,0,1,2.76-1,3.81,3.81,0,0,1,2.4.72,2.45,2.45,0,0,1,.92,2,3.32,3.32,0,0,1-1,2.56A4.05,4.05,0,0,1,123.48,23.74Zm-.32,21.48a4.19,4.19,0,0,1-3.8-1.84,9,9,0,0,1-1.16-4.88,30,30,0,0,1,.44-4.6,45.74,45.74,0,0,1,1.2-5.28,3.4,3.4,0,0,1,1-1.76,3.08,3.08,0,0,1,1.92-.48c1.36,0,2,.45,2,1.36a32.35,32.35,0,0,1-.76,4.64,34.55,34.55,0,0,0-1,6,4.13,4.13,0,0,0,.32,1.84,1.1,1.1,0,0,0,1.08.64,3,3,0,0,0,1.8-1,36.3,36.3,0,0,0,2.88-3.16,1.41,1.41,0,0,1,1.08-.56.89.89,0,0,1,.8.48,2.38,2.38,0,0,1,.32,1.32,3.71,3.71,0,0,1-.76,2.48Q126.6,45.22,123.16,45.22Zm20.76-12.4a12.75,12.75,0,0,1-1.48,6,12.58,12.58,0,0,1-3.88,4.56,9,9,0,0,1-5.16,1.84A48.55,48.55,0,0,1,131,58.1q-1.84,5.2-5.4,5.2a3.57,3.57,0,0,1-3.2-1.56,7.75,7.75,0,0,1-1-4.32,28.79,28.79,0,0,1,1.8-9.16,62.53,62.53,0,0,1,5.56-11.48q0-5.84-.08-8.12a2,2,0,0,1,.92-1.84,4.07,4.07,0,0,1,2.4-.68,1.66,1.66,0,0,1,1.2.36,1.74,1.74,0,0,1,.44,1.32c0,.67,0,1.16,0,1.48A8.63,8.63,0,0,1,136.2,27a5.19,5.19,0,0,1,2.64-.72,4.4,4.4,0,0,1,3.64,1.8A7.32,7.32,0,0,1,143.92,32.82ZM133.6,41.38a5.2,5.2,0,0,0,2.64-1.56,9.16,9.16,0,0,0,2-3.12,10.85,10.85,0,0,0,.72-3.92,2.84,2.84,0,0,0-.48-1.8,1.52,1.52,0,0,0-1.28-.64q-1.44,0-3.48,3c0,1.17,0,2.89,0,5.16C133.64,39.77,133.63,40.71,133.6,41.38Zm-7.64,18q1.08,0,1.8-4.72A96.4,96.4,0,0,0,128.68,43,59,59,0,0,0,126,50.62a23.77,23.77,0,0,0-1,6.12,4.8,4.8,0,0,0,.32,2C125.47,59.15,125.69,59.38,126,59.38ZM153.6,46.1a4.8,4.8,0,0,1-3.2-1A2.84,2.84,0,0,1,149.32,43a2.47,2.47,0,0,1,.77-1.8,3,3,0,0,1,2.23-.76,7.14,7.14,0,0,1,1.21.12l1.07.12a4.72,4.72,0,0,0-.48-2,8.52,8.52,0,0,0-1-1.76c-.43-.59-.83-1.09-1.2-1.52a25.22,25.22,0,0,1-2.49,3.92,26.24,26.24,0,0,1-2.64,3,2.11,2.11,0,0,1-1.51.72,1.37,1.37,0,0,1-1.05-.44,1.79,1.79,0,0,1-.39-1.16,2.25,2.25,0,0,1,.56-1.48l.52-.64a51.23,51.23,0,0,0,3.31-4.48,23.15,23.15,0,0,0,1.45-2.76c.5-1.07,1.16-2.52,1.95-4.36a3.09,3.09,0,0,1,3.16-1.76,4.24,4.24,0,0,1,1.56.2.66.66,0,0,1,.44.64,2.83,2.83,0,0,1-.16.76,5.72,5.72,0,0,1-.43,1,5.55,5.55,0,0,0-.72,2.44,2.81,2.81,0,0,0,.39,1.32,18.17,18.17,0,0,0,1.33,1.8A23,23,0,0,1,159.09,37a5,5,0,0,1,.67,2.56,6.69,6.69,0,0,1-.8,3.2,6.14,6.14,0,0,1-2.15,2.4A5.75,5.75,0,0,1,153.6,46.1Z"/><path class="cls-1" d="M37.55,35.88a.88.88,0,0,1,.8.48,2.38,2.38,0,0,1,.32,1.32,3.75,3.75,0,0,1-.76,2.48A17.53,17.53,0,0,1,34,43.76,8.47,8.47,0,0,1,29.39,45,7.15,7.15,0,0,1,25,43.6a13.3,13.3,0,0,1-3.44-4.8c-.88-1.81-1.57-3.15-2.08-4a6,6,0,0,0-1.52-1.88,3.52,3.52,0,0,0-1.8-.68c-.11.56-.41,2.32-.92,5.28-.21,1.33-.35,2.15-.4,2.44a7.22,7.22,0,0,1-1.6,3.76A4.77,4.77,0,0,1,9.55,45a7.72,7.72,0,0,1-4.76-1.56A10.33,10.33,0,0,1,1.63,39,17.36,17.36,0,0,1,.51,32.6,26.73,26.73,0,0,1,2.83,21a17.25,17.25,0,0,1,6.56-7.44A18.33,18.33,0,0,1,19.15,11a15.85,15.85,0,0,1,6.44,1.16,8.27,8.27,0,0,1,3.84,3.2,8.5,8.5,0,0,1,1.28,4.6,9.75,9.75,0,0,1-1.08,4.4,10.75,10.75,0,0,1-3.16,3.76,14.2,14.2,0,0,1-5.16,2.44,6,6,0,0,1,3,1.68,14,14,0,0,1,2.08,3.4,13.36,13.36,0,0,0,2.2,3.52,3.52,3.52,0,0,0,2.56,1.12,4.1,4.1,0,0,0,2.44-.84,20.36,20.36,0,0,0,2.92-3A1.41,1.41,0,0,1,37.55,35.88Zm-27-3.68a2.3,2.3,0,0,1-1.88-.64,2.35,2.35,0,0,1-.48-1.44,2,2,0,0,1,.6-1.52A2.16,2.16,0,0,1,10.27,28h1c.43-2.61.83-4.87,1.2-6.76a3,3,0,0,1,3.36-2.6q2.28,0,2.28,2a4,4,0,0,1,0,.68L16.87,28a9.53,9.53,0,0,0,3.92-1,7.11,7.11,0,0,0,2.84-2.56,6.6,6.6,0,0,0,1.08-3.72,4.88,4.88,0,0,0-1.72-4,7.69,7.69,0,0,0-5-1.44,12.15,12.15,0,0,0-6.88,2A12.5,12.5,0,0,0,6.51,23a23.46,23.46,0,0,0-1.64,9.28,16.19,16.19,0,0,0,.52,4.4,7.56,7.56,0,0,0,1.28,2.76,2.06,2.06,0,0,0,1.44.92A.94.94,0,0,0,9,39.88a4.35,4.35,0,0,0,.56-1.68ZM55,32.52a.86.86,0,0,1,.8.52,2.75,2.75,0,0,1,.28,1.32c0,1.28-.38,2-1.16,2.28a18.21,18.21,0,0,1-5.28,1,10,10,0,0,1-3,5.4,7.42,7.42,0,0,1-5.08,2,7.23,7.23,0,0,1-4.12-1.16,7.43,7.43,0,0,1-2.56-3.08A10,10,0,0,1,34,36.6a12.11,12.11,0,0,1,1.16-5.4,9,9,0,0,1,3.2-3.72,8,8,0,0,1,4.52-1.36,6.14,6.14,0,0,1,4.88,2.12A8.79,8.79,0,0,1,50,33.4a24.38,24.38,0,0,0,4.48-.8A2.59,2.59,0,0,1,55,32.52ZM41.92,40.76a2.84,2.84,0,0,0,2.2-1,5.63,5.63,0,0,0,1.28-3,5.76,5.76,0,0,1-1.92-2.2,6.8,6.8,0,0,1-.64-2.88A6.93,6.93,0,0,1,43,30.36h-.2a3.19,3.19,0,0,0-2.68,1.56,7.62,7.62,0,0,0-1,4.32,5.67,5.67,0,0,0,.84,3.36A2.55,2.55,0,0,0,41.92,40.76ZM57.61,45a4.87,4.87,0,0,1-4-1.8,7.17,7.17,0,0,1-1.48-4.72,12.85,12.85,0,0,1,1.48-6,12.52,12.52,0,0,1,3.92-4.6,8.92,8.92,0,0,1,5.24-1.76,1.43,1.43,0,0,1,1.16.36,2.5,2.5,0,0,1,.52,1.2,9.14,9.14,0,0,1,1.76-.16c1.31,0,2,.47,2,1.4a30.09,30.09,0,0,1-.6,4,39.25,39.25,0,0,0-.92,6.4,1.5,1.5,0,0,0,.28,1,1,1,0,0,0,.8.36,3.05,3.05,0,0,0,1.84-1,37.52,37.52,0,0,0,2.92-3.2,1.41,1.41,0,0,1,1.08-.56.88.88,0,0,1,.8.48,2.38,2.38,0,0,1,.32,1.32A3.66,3.66,0,0,1,74,40.16a19.8,19.8,0,0,1-3.48,3.44A6,6,0,0,1,66.93,45a3.85,3.85,0,0,1-2.44-.88,5.66,5.66,0,0,1-1.64-2.48C61.46,43.88,59.72,45,57.61,45Zm1.44-4a2.19,2.19,0,0,0,1.68-1,6.75,6.75,0,0,0,1.16-2.76l1.48-7.36a4.88,4.88,0,0,0-3.12,1.28A8.48,8.48,0,0,0,58,34.28a10.84,10.84,0,0,0-.84,4.24,2.91,2.91,0,0,0,.48,1.84A1.76,1.76,0,0,0,59.05,41ZM94.2,35.88a.88.88,0,0,1,.8.48,2.38,2.38,0,0,1,.32,1.32,3.66,3.66,0,0,1-.76,2.48A19.78,19.78,0,0,1,91,43.6,6.7,6.7,0,0,1,87.08,45c-2,0-3.57-1.19-4.64-3.56a11.41,11.41,0,0,1-3,2.84,5.72,5.72,0,0,1-2.92.72,5.17,5.17,0,0,1-4-1.8A7.11,7.11,0,0,1,71,38.44a13,13,0,0,1,1.36-5.92A12.09,12.09,0,0,1,76,28,10.9,10.9,0,0,1,81.4,26a50.86,50.86,0,0,1,2.88-13.24Q86.44,7.2,89.92,7.2a3.37,3.37,0,0,1,2.84,1.56,7.91,7.91,0,0,1,1.16,4.72A31,31,0,0,1,91.72,24a78.3,78.3,0,0,1-5.88,12.32,9.08,9.08,0,0,0,.68,3.32,1.61,1.61,0,0,0,1.4,1,3.43,3.43,0,0,0,2.2-1,28.85,28.85,0,0,0,3-3.2A1.41,1.41,0,0,1,94.2,35.88ZM89.48,11.12c-.51,0-1,.91-1.52,2.72a49.15,49.15,0,0,0-1.32,7q-.52,4.36-.76,9.12,4.49-9.76,4.48-15.68A7.7,7.7,0,0,0,90.08,12Q89.84,11.12,89.48,11.12ZM78,41a2.45,2.45,0,0,0,1.52-.6A12.28,12.28,0,0,0,81.4,38,26.38,26.38,0,0,1,81,33.2c0-.64,0-1.68.08-3.12a6.75,6.75,0,0,0-3.68,3A9,9,0,0,0,76,38C76,40,76.63,41,78,41ZM123.79,11.6a3.51,3.51,0,0,1,1.84.84,1.89,1.89,0,0,1,.64,1.4,2.32,2.32,0,0,1-.76,1.92,3.23,3.23,0,0,1-2.32.48q-3.6-.28-5.64-.36c-1.34-.08-3.1-.13-5.28-.16q-1.48,7.36-2.72,14.8c-.3,1.81-.6,3.92-.92,6.32s-.54,4.29-.64,5.76a2.36,2.36,0,0,1-1,1.8,3.69,3.69,0,0,1-2.12.6,3,3,0,0,1-2-.64,2.15,2.15,0,0,1-.72-1.68,27.79,27.79,0,0,1,.28-3.16q.31-2.24.72-4.68c.29-1.63.52-3,.68-4.24q.44-3,1-6T106,18.88c.08-.4.17-.85.28-1.36s.22-1.12.36-1.76a32.67,32.67,0,0,0-6.16.64,6.63,6.63,0,0,0-3.2,1.48,3.21,3.21,0,0,0-.92,2.4,4.67,4.67,0,0,0,.8,2.6,1.28,1.28,0,0,1,.16.6,1.86,1.86,0,0,1-.92,1.44,3.07,3.07,0,0,1-1.84.64,1.57,1.57,0,0,1-1.12-.4,4.81,4.81,0,0,1-1.32-1.92,7.5,7.5,0,0,1-.52-2.88,7,7,0,0,1,2.2-5.44,14,14,0,0,1,6.76-3,58.34,58.34,0,0,1,11.68-1q4.4,0,7,.16A39.59,39.59,0,0,1,123.79,11.6Zm.2,11.92a3.63,3.63,0,0,1-2.52-.76,2.89,2.89,0,0,1-.84-2.2,2.92,2.92,0,0,1,1.08-2.32,4.07,4.07,0,0,1,2.76-1,3.81,3.81,0,0,1,2.4.72,2.45,2.45,0,0,1,.92,2,3.32,3.32,0,0,1-1,2.56A4.05,4.05,0,0,1,124,23.52ZM123.67,45a4.19,4.19,0,0,1-3.8-1.84,9,9,0,0,1-1.16-4.88,30,30,0,0,1,.44-4.6,45.74,45.74,0,0,1,1.2-5.28,3.4,3.4,0,0,1,1-1.76,3.08,3.08,0,0,1,1.92-.48c1.36,0,2,.45,2,1.36a32.35,32.35,0,0,1-.76,4.64,34.55,34.55,0,0,0-1,6,4.13,4.13,0,0,0,.32,1.84,1.1,1.1,0,0,0,1.08.64,3,3,0,0,0,1.8-1,36.3,36.3,0,0,0,2.88-3.16,1.41,1.41,0,0,1,1.08-.56.89.89,0,0,1,.8.48,2.38,2.38,0,0,1,.32,1.32,3.71,3.71,0,0,1-.76,2.48Q127.11,45,123.67,45Zm20.76-12.4a12.75,12.75,0,0,1-1.48,6,12.58,12.58,0,0,1-3.88,4.56A9,9,0,0,1,133.91,45a48.55,48.55,0,0,1-2.36,12.88q-1.85,5.2-5.4,5.2a3.57,3.57,0,0,1-3.2-1.56,7.75,7.75,0,0,1-1-4.32,28.79,28.79,0,0,1,1.8-9.16,62.53,62.53,0,0,1,5.56-11.48q0-5.84-.08-8.12a2,2,0,0,1,.92-1.84,4.07,4.07,0,0,1,2.4-.68,1.66,1.66,0,0,1,1.2.36,1.74,1.74,0,0,1,.44,1.32c0,.67,0,1.16,0,1.48a8.63,8.63,0,0,1,2.52-2.28,5.19,5.19,0,0,1,2.64-.72,4.4,4.4,0,0,1,3.64,1.8A7.32,7.32,0,0,1,144.43,32.6Zm-10.32,8.56a5.2,5.2,0,0,0,2.64-1.56,9.16,9.16,0,0,0,2-3.12,10.85,10.85,0,0,0,.72-3.92,2.84,2.84,0,0,0-.48-1.8,1.52,1.52,0,0,0-1.28-.64q-1.44,0-3.48,3c0,1.17,0,2.89,0,5.16C134.15,39.55,134.14,40.49,134.11,41.16Zm-7.64,18q1.08,0,1.8-4.72a96.4,96.4,0,0,0,.92-11.68,59,59,0,0,0-2.72,7.64,23.77,23.77,0,0,0-1,6.12,4.8,4.8,0,0,0,.32,2C126,58.93,126.2,59.16,126.47,59.16Zm27.64-13.28a4.8,4.8,0,0,1-3.2-1,2.84,2.84,0,0,1-1.08-2.16,2.47,2.47,0,0,1,.77-1.8,3,3,0,0,1,2.23-.76,7.14,7.14,0,0,1,1.21.12l1.07.12a4.72,4.72,0,0,0-.48-2,8.52,8.52,0,0,0-1-1.76c-.43-.59-.83-1.09-1.2-1.52a25.22,25.22,0,0,1-2.49,3.92,26.24,26.24,0,0,1-2.64,3,2.13,2.13,0,0,1-1.51.72,1.37,1.37,0,0,1-1-.44,1.79,1.79,0,0,1-.39-1.16,2.25,2.25,0,0,1,.56-1.48l.52-.64a51.23,51.23,0,0,0,3.31-4.48,21.82,21.82,0,0,0,1.44-2.76c.51-1.07,1.17-2.52,2-4.36a3.09,3.09,0,0,1,3.16-1.76,4.24,4.24,0,0,1,1.56.2.66.66,0,0,1,.44.64,2.83,2.83,0,0,1-.16.76,5.72,5.72,0,0,1-.43,1A5.55,5.55,0,0,0,156,30.8a2.81,2.81,0,0,0,.39,1.32,18.17,18.17,0,0,0,1.33,1.8,23,23,0,0,1,1.92,2.88,5,5,0,0,1,.67,2.56,6.69,6.69,0,0,1-.8,3.2,6.14,6.14,0,0,1-2.15,2.4A5.75,5.75,0,0,1,154.11,45.88Z"/><path class="cls-2" d="M166.31,0a10.79,10.79,0,0,0-10.55,11,11,11,0,0,0,1.75,6L166.31,31l8.81-14a11.08,11.08,0,0,0,1.74-6A10.79,10.79,0,0,0,166.31,0Zm0,16.41A5.38,5.38,0,0,1,161,11a5.28,5.28,0,1,1,10.55,0A5.38,5.38,0,0,1,166.31,16.41Z"/><path class="cls-3" d="M176.86,11a11.08,11.08,0,0,1-1.74,6L166.31,31V16.41A5.38,5.38,0,0,0,171.59,11a5.44,5.44,0,0,0-5.28-5.51V0A10.79,10.79,0,0,1,176.86,11Z"/></g></g></svg>