<svg xmlns="http://www.w3.org/2000/svg" viewBox="0 0 94.03 94.05"><defs><style>.cls-1{fill:#0f197b;}</style></defs><title>Recurso 1</title><g id="Capa_2" data-name="Capa 2"><g id="OBJECTS"><path class="cls-1" d="M5,27.63c.23-.05.57.12.63-.3h0a1.71,1.71,0,0,0,.74-.69c.12-.18,0-.5.24-.64s.4,0,.47-.32-.31-.51-.56-.7c-.32.08-.52.21-.23.56l-1,.24c-.19-.73.47-.84.78-1.18-.31-.38-.06-.62.25-.92.22.62.91.6,1.3,1.17a3.3,3.3,0,0,0,.18-1.95c-.22-.11-.34.05-.49.08l-.24-.71c.11-.23.1-.52.54-.48s.4-.05.65-.55c-.13-.22-.27,0-.49-.07a3.06,3.06,0,0,1,.7-1.07c.27-.11.43.17.65,0S9,19.74,9,19.45a32.34,32.34,0,0,1,3.59-4.39,42.15,42.15,0,0,1,3.22-3.19,3.46,3.46,0,0,1,2.12-.75c.25-.32-.1-.59-.08-1,1-.57,1.75-1.58,2.92-1.73.37.27.13.66.44.81.32-.58.32-.58-.06-1.44a14.86,14.86,0,0,1,3-1.79c0,.23-.07.48.19.67a1.62,1.62,0,0,0,.32,0,.27.27,0,0,0,.26-.24c0-.37-.44-.36-.67-.54A42.75,42.75,0,0,1,35.13,1.46a8.12,8.12,0,0,1,2.4-.36c-.14.59-.81.22-1.11.6.35.34.22.89.7,1.23.32.23.41.78.58,1.12.87.15.81-.51,1-.91C38,2.75,38,2.75,38.29,2l-.61-.72A4.34,4.34,0,0,1,40.24.45C41.51.31,42.77.14,43.94,0c.43.25.27.79.73.88s.37-.45.58-.65a1.82,1.82,0,0,1,1.88.13c-.32.24-.59.51-.37,1,.4.26.81.52,1.3.25.06-.48-.62-.39-.53-.84a1.71,1.71,0,0,0,.33-.66c1.23-.15,1.23-.15,1.88.59a5.13,5.13,0,0,1,3-.41,1,1,0,0,1,1,.49c.22.5.66.47,1,.59.26-.16,0-.39.14-.57a.9.9,0,0,1,.9,0c.66.53,1.68-.08,2.24.82a1.71,1.71,0,0,1,1.1-.09c1.22.39,2.45.74,3.65,1.16s2.08.78,3.1,1.23c.82.36,1.62.79,2.42,1.18l-.19.3c.08.06.15.14.2.13a2,2,0,0,1,1.42.34c.67.42,1.41.73,2,1.19.12.56-.49.26-.62.6s.76.2.79.7a2.11,2.11,0,0,1,1-.58l1.92,1.32c-.3.3-.54.57-.25.94.46.22.29-.5.93-.39a46.19,46.19,0,0,1,7.38,7c.08.3-.24.3-.1.57.56,0,.91.38,1.26.83A43.36,43.36,0,0,1,90,27.92a41.8,41.8,0,0,1,1.83,4.74c.46,1.61.92,3.22,1.26,4.86A50.29,50.29,0,0,1,93.87,51a3.55,3.55,0,0,0-1.42,2.09c.52-.33,1-.1,1.17-.73.15.11.09.26.07.38-.23,1.33-.5,2.65-.69,4-.07.41-.3.51-.64.63l-.24,1.06.33.54c0,.36-.38.41-.55.59.4.66-.12,1.22-.07,1.79-.37.1-.47-.26-.72-.2-.42,0-.6.92-1.18.26-.24-.3.54-.56.06-.89.37-.5.19-1.15.47-1.67.21-.06.46,0,.68-.25,0-.26.15-.6-.19-.86v-.83c.36,0,0,.48.39.44a.46.46,0,0,0,.46-.44,2,2,0,0,0-.81-.75c-.21.21-.15.42-.17.61h-.6c.58-.61.08-1.38.42-2-.54-.29-.83,0-1.17.24.36.57-.21.71-.54,1.06.53.14.75.6,1.16.84s.47.63.71.95-.26.58-.47.83l-.58-.34c.22-.17.47-.32.39-.69a.78.78,0,0,0-.94,0l.4.56c-.38,0-.78-.12-1.13.19a1.47,1.47,0,0,1,0,.34c-.14,1,.44,1.44,1.31,1.63l-.58.53c0,.31.18.57,0,.84.19.24.54.23.72.53s.49-.16.75,0,.08.47.08.72c-.36.25-.69,0-1.06-.1-.19.45-.23.84.34,1.07a1,1,0,0,0-.41.81c-.37.26-1,.17-1.24.74.76.29.36,1.22.92,1.6a1.53,1.53,0,0,1-.36.93c-.3-.27.19-.73-.44-.84-.39.14-.45.59-.59.91.11.42.46.43.78.67-.9.46-2,.25-2.72,1-.27-.44,0-.84,0-1.23-.14-.17-.26-.33-.51-.23-.18,1.28,0,2.62-.64,3.85a2.41,2.41,0,0,0,0,1.31,2.88,2.88,0,0,1-1.41,2.91,2.21,2.21,0,0,0-1.07,1.34c0,.25-.3.47-.48.68A46,46,0,0,1,77.23,83a9.35,9.35,0,0,0-1.52,1.13,5.52,5.52,0,0,0,0-1.51c-.28-.41-.68-.45-1.19-.68L75,84.61l-.33.21c-.26,0-.23-.32-.44-.32-.59.16-.27.62-.29,1-.29.21-.61.39-.87.62s-1,.35-1.09.12c-.35-.54-.84,0-1.11-.35-.35.52.06.8.15,1.11.19.12.32-.15.47,0a32.78,32.78,0,0,1-5.55,3,10.46,10.46,0,0,0-1.84-.52c0,.43.42.58.53.91-.08.4-2,1-2.9.82-.21.21-.25.62-.66.59s-.33-.47-.62-.42-.22.4-.32.68a27.56,27.56,0,0,1-5.57,1.26,1,1,0,0,1-.58-1c.29-.35.57.32,1-.17.12-.18-.22-.4-.32-.67-.38-.27-1,.1-1.26-.55a1.37,1.37,0,0,0,0,1.67c.21.44.1.68-.28.79a5,5,0,0,1-1.67.4,2.8,2.8,0,0,0-1.75.27h-5a2.2,2.2,0,0,0-1.28-.26A32.06,32.06,0,0,1,38,93.07c-1.45-.32-2.9-.64-4.33-1a39,39,0,0,1-4.4-1.55c-1.4-.59-2.78-1.22-4.12-1.93a45.27,45.27,0,0,1-3.91-2.33,20.9,20.9,0,0,1-2.42-1.74c-.41-.36-.57-1-.91-1.45s.27-.41.22-.69L17.49,82c-.45.09-.39.59-.72.77A15.56,15.56,0,0,1,12.88,79c-.34,0-.63-.37-.94-.72A47.13,47.13,0,0,1,4,66a4.3,4.3,0,0,1-.29-.78c0-.1,0-.23.07-.38.17-.36.78-.17.88-.62s-.19-.69-.13-1.05c.26,0,.46-.11.35-.51-.52,0-.84-.51-1.35-.71,0,.93.13,1.34.38,1.35l.2-.13c0,.55.08,1.08-.74,1.06A32.55,32.55,0,0,1,1,56.59c.78-.52,1.06.4,1.65.4-.25.16-.55-.08-.76.18l.27,1.34c.51.12.6-.4.88-.65l.29.63.3-.16c0-.09.08-.17.06-.23-.28-.66-.06-1.54-.89-2-.2-.1.22-.18.11-.43l-.66-.77A2,2,0,0,1,.6,54.12a1.86,1.86,0,0,1,.08-1.61A2.06,2.06,0,0,1,.2,51.45a48.17,48.17,0,0,1,.94-14.76c.15-.7.66-1.06,1-1.66a2,2,0,0,1-.05-1.9A47,47,0,0,1,4,28c.17-.39.34-.75.87-.47a3.12,3.12,0,0,0-.45,1.18c.54.21.87.12,1-.38C5.43,28,4.94,28,5,27.63Zm24.31,55.2c.28.15.17.7.7.65L30,82.27a1,1,0,0,1,.05-.16,1.24,1.24,0,0,1,.7.11A36.34,36.34,0,0,0,42.22,85.5a1.38,1.38,0,0,1,1.07.69c.43-.62,1-.51,1.48-.46a19.61,19.61,0,0,0,4.53,0,10.15,10.15,0,0,1,1.56,0c.31,0,.41.19.25.49-.44.08-.73-.44-1.18-.31-.4.58-.27,1.18.27,1.39.36-.06.36-.53.84-.63.3-.21.69.29,1.17.15l.2-.83c-.22-.23-.58-.06-.79-.45a17.6,17.6,0,0,0,3.74-.62,2.17,2.17,0,0,1,1.54.22c.18.42,0,.84,0,1.22.26.05.41.07.54,0,.46-.6-.41-1.21.11-1.92.79-.11,1.56-.72,2.53-.59.09.69.64.41,1,.63,0-.75-.46-.74-.88-.77.76-.22,1.37-.86,2.2-.91.17.45-.34.58-.29.91a3.75,3.75,0,0,1,.35.33.46.46,0,0,0,.36.26c.75-.34.75-.34.68-.87-.14-1-.11-1.13.74-1.58l.89-.45a2.35,2.35,0,0,0,1.85.22,2.19,2.19,0,0,0,0-1.11,5.08,5.08,0,0,1,1.78-1.2A4.06,4.06,0,0,1,68.05,81c.31-.23.57.21.82-.08s.1-.69.39-.94c.29-.08.64-.1.67-.57A1.45,1.45,0,0,1,69.3,79c.51-.25,1.1.24,1.57-.16,0-.52-.45-.19-.62-.37a3.17,3.17,0,0,1,1.35-1.34c.39,0,.79.38,1.17.07.13-.47-.45-.34-.52-.6.21-.36.65-.13.86-.42,0-.14,0-.35.13-.44a45.24,45.24,0,0,0,5.51-6.35c.33-.17.39.33.68-.08-.24-.7.26-1.27.62-1.89.62-1.06,1.27-2.12,1.8-3.24a2.71,2.71,0,0,1,1.35-1.4c-1-1.17.56-1.33.74-2-.45-1.36.24-2.43.85-3.45a23.12,23.12,0,0,1,.79-4.68,25.69,25.69,0,0,0,.4-3.5c0-.29-.12-.6,0-.9a1.39,1.39,0,0,0,.09-.94,3.79,3.79,0,0,1-.07-2.33A43.52,43.52,0,0,1,85.28,40a39,39,0,0,0-6.65-15.63,1.84,1.84,0,0,1-.48-1.13c-1-.46-1.39-1.42-2.05-2.05s-1.31-1.4-2-2.07-1.46-1.38-2.22-2-1.5-1.18-2.27-1.74S68,14.27,67.23,13.73l.09-.45c-.42-.65-1.1,0-1.64-.37s-.81-.9-1.56-.81c0-.34.26-.61.08-.85-.33-.43.42-.43.3-.78-.25-.65-.64-1.06-1.4-.88l-.2,1.85L59.34,10c.06-.21.24-.46-.05-.66a1.16,1.16,0,0,0-1,.06c-.6.48-.87.09-1.14-.37,0-.06-.13-.08-.21-.13l-.43.37a31,31,0,0,0-6.83-1.11c-.68,0-1.38-.38-2-.24a21.12,21.12,0,0,1-2.85.2c-.77.07-1.56.1-2.33.19-1.53.18-3,.54-4.56.87A.86.86,0,0,1,37.18,9a2.87,2.87,0,0,0-1.38-.64c-.3.51.09.49.37.62-.31.11-.3.35-.29.59a1.66,1.66,0,0,1-1.31.42c.1-.23.37-.48-.07-.68-.39.07-.36.41-.47.7l.38.11c-1.57.7-3.21,1.26-4.73,2.07a.59.59,0,0,1-.65,0c-.44-.37-.25-1-.7-1.32.13-.32.51-.13.55-.44-.18-.15-.35-.32-.59-.28s-.32.38-.64.27c-.15-.55-.64-.56-1.06-.74-.16.47.07.78.08,1.11.93.22,1.17.46,1.23,1.28.37-.1.62.28,1,.26,0,.4-.26.43-.37.46-.46,0-.4-.36-.62-.49-.21.06-.44.09-.57.33l.32.34a1.17,1.17,0,0,1-.59.7l-.61.38a27.16,27.16,0,0,0-3.73,2.66,1.6,1.6,0,0,1-1.57.54A1.88,1.88,0,0,1,19.4,19c-.18.3,0,.76-.34,1-.75.47-1.11,1.3-1.7,1.85-.26,0-.36-.29-.59-.19.07,1.62-1.39,2.36-2,3.69-.23-.27-.32-.47-.58-.42a.88.88,0,0,0-.56.69l.73.2a42.58,42.58,0,0,0-2.89,5.4c-.13.3-.43.12-.56.36s.21.62,0,1A8.25,8.25,0,0,0,10.39,34,35.79,35.79,0,0,0,8.33,43.2a37.12,37.12,0,0,0,.12,8.36c.13.86.22,1.73.32,2.56-.28.39-.8.48-.89,1,.14.23.28.47.59.51s.14-.49.52-.41c.35,1.24.7,2.51,1,3.77,0,.16-.07.21-.19.22,0-.19-.05-.4-.36-.43a.54.54,0,0,0-.43.65c.27.21.45.05.65-.07.12.27.64.19.61.48-.07.73.5,1.15.72,1.74a32.16,32.16,0,0,0,2.39,4.9,2.32,2.32,0,0,1,.43,1c-.31,0-.58.27-.9.16-.3-.32-.62-.26-1-.07.17.37.22.79.64,1l.23-.82c.46.61.6.64,1.21.23l-.2-.56c.39.19.53.59.74.92a11.79,11.79,0,0,1,1.5,2.42c1.42,1.17,2.4,2.73,3.75,4-.49.2-.7.43-.33.8.35.15.52-.41.89-.17-.21.18-.41.32-.37.59-.21.13-.4-.25-.68,0,.13.5.43.66,1,.49l-.15-.38c.27,0,.57,0,.75-.24.81.61,1.78,1.06,2.17,2.09.26.12.58,0,.81.25s-.18.61.08.89c.38.11.75-.09,1.08-.08.62.39,1.2.75,1.76,1.12.25.17.63.22.64.64-.2.22-.63.18-.67.76.5,0,.76-.11.81-.63a2.3,2.3,0,0,1,2,1.07c-.3,0-.5.15-.66.58Zm-6.71,1.68c.17.37-.31.71-.1,1.11.58-.34.58-.34.25-1.24.12-.14.38-.12.42-.39s-.23-.5-.61-.5A.72.72,0,0,0,22.64,84.51Zm43.44-1.57c-.67.15-.65.64-.57,1.21.17-.39.66-.26.83-.49l-.12-.57c.25-.07.4.14.59.23a.57.57,0,0,0-.09.69c.32-.48.69-.27,1-.09.25-.23.06-.59.32-.79.29,0,.57.34.9,0a.89.89,0,0,0-.5-.84c-.4.47-1.07.44-1.5.85a1.1,1.1,0,0,0-.71-.88C66,82.47,65.82,82.64,66.08,82.94Zm-47-71.3a.51.51,0,0,0-.05.8c.39.11.63,0,.69-.41a.82.82,0,0,0,.37-.46l-.67-.88C19.33,11.11,19,11.29,19.05,11.64ZM50.63,7c.3-.06.64.09.87-.21.06-.21.09-.4-.11-.55a.84.84,0,0,0-.82.06l-.07.54c-.23-.11-.47-.36-.68,0,.06.34.23.54.58.51S50.59,7.14,50.63,7ZM51,2c.22.17,0,.53.27.67a.5.5,0,0,0,.49-.39.64.64,0,0,0-.62-.43c.14-.19.48,0,.58-.29C50.75,1,50.1,1,50.06,1.76c.17.2.3.49.66.57Zm10.8,85a1.49,1.49,0,0,0,1.13.66,1.4,1.4,0,0,0,0-1.28c0-.49-.53-.64-.73-1,.11-.28.78-.18.59-.81a2.31,2.31,0,0,0-1.11.27c-.67.26-.8.5-.61,1.28a1,1,0,0,1-.32,1C61.14,87.33,61.42,86.87,61.77,86.92Zm6.23.82-.5-.37c0-.8.37-.93.83-.91.12-.77-.64-.72-.89-1.12,0-.3-.13-.53-.48-.59a.72.72,0,0,0,0,.87l.33-.13c-.13.63-.54.17-.86.22-.55,1.23.37,2.46-.08,3.72a3.05,3.05,0,0,0,1.79-1.55c.19-.18.5-.19.6-.48-.13-.21-.27-.39-.56-.3S68.05,87.52,68,87.74Zm9.68-11.46h0l-.26,1c.07.21.21.43.39.43.42,0,.13.31.22.42s.35.1.62,0c.16-1.29-.18-2.64.14-4C77.86,74,77,74.54,76,74c.11.55.4.83.42,1.25C76.5,76.32,76.54,76.32,77.68,76.28ZM57,89.26c.12.24.22.41.51.42A3.62,3.62,0,0,1,58.89,89l.54-1.32a1.92,1.92,0,0,1-.23-2c-.1-.37-.5-.17-.51-.54a.42.42,0,0,0-.6-.38c-.46.59.25,1.09.14,1.66-.3.26-.83.12-1,.65-.14.37.48.49.4.75ZM90.85,45.31c.17-1.32.23-1.47,1-1.54a1.08,1.08,0,0,0,0-.71c-.36-.51-1.33-.25-1.39-1.12a.58.58,0,0,0-.55.52c.07.5.78.48.73,1a3.27,3.27,0,0,1-.53.17c-.8.1-.81.09-.77.86,0,.27-.32.5,0,.89a1.38,1.38,0,0,0,.85.39c.29-.25-.22-.55.14-.74ZM84.69,67.6a5.46,5.46,0,0,1,1.69.59c.27.19-.19.47.06.64a.53.53,0,0,0,.49,0c-.09-.39.33-.59.38-.92s0-.64-.47-.67c-1.09-.09-1.25-.17-1.39-1-.09-.55-.28-1.06-.39-1.61-.74.29-.4.77-.28,1.2l-.64.84A1.5,1.5,0,0,1,84.69,67.6Zm1.5-7.86c.27-.88.49-1.62,1.32-2,.48-.24.41-.72-.1-1.08-.36,1-1.16,1-2,.94-.31,2-.14,2.51.9,3,.09,0,.15,0,.24-.14S86.21,60,86.19,59.74ZM81,76.69c.89,0,1.88-1,1.65-1.57-.22-.16-.46,0-.69-.06a4.53,4.53,0,0,1-.5-1.17c-.64-.12-.92.32-.78.65.29.71,0,1.3-.17,1.93-.08.37-.15.68.2.93C81,77.25,80.76,76.88,81,76.69Zm-19.59,14c1.12,0,1.16,0,1.25-.85,0-.35.07-.7.11-1.07l-.84-.79c-.5.75-1.37-.16-2,.56.47,0,.63.45,1.1.56.14,0,.38-.44.62,0C61.18,89.5,61.3,90,61.37,90.65ZM71.89,79.54c-.12-.24-.23-.44-.62-.16s0,.62-.24.91-.68.27-.76.75c.51.39.52,1.53,1.73,1.14a1.52,1.52,0,0,1-.19-1.39c.41-.21,1.06-.26.81-1a2.38,2.38,0,0,1-1.06.08Zm12.84-16.7c.21-.23.54-.11.64-.42A1.18,1.18,0,0,0,85,61.7a1,1,0,0,0-.62.29,2.5,2.5,0,0,0-.22.48l.5,1.75c.27.17.6.18.84.43s.43.59.87.61a1.2,1.2,0,0,0,.42-1.07L86,63.6C85.25,63.82,85.25,63.82,84.73,62.84ZM4.67,58.06c.36.11.49-.53.87-.32.21.39-.27.45-.27.73.27.12.48.43.94.17-.23-.48.4-.87.17-1.43-.29-.13-.62.22-.89-.09-.7-.49.44-1.43-.44-1.9C4.28,55.92,4.28,55.92,4.67,58.06ZM89.36,46a.88.88,0,0,0-1-.18l-.53.77.25.79a2.45,2.45,0,0,0,1.39.48A2.66,2.66,0,0,1,89.36,46ZM64.24,7.46c-1.22-.81-1.52-.78-2.52.13,0,.71.8-.32,1,.45,0,.26.91.1.9,1ZM49.71,90.65c.59.27.92-.16,1.32-.33a4.32,4.32,0,0,0,.11-1.84l-1,.35c-.19.35.23.42.16.67s-.61,0-.85.29ZM35.13,4.79c.48.36.22.78-.18,1.15l.34.21c.57-.05.27-.77.76-.93.08.51-.35.77-.32,1.2l.55.7c.09-.55,0-1.06.15-1.59a8.58,8.58,0,0,0,0-1.68c-.35-.1-.63-.21-.64.25S35.33,4.42,35.13,4.79ZM24.3,9.55c.13-.27.45-.35.49-.65-.25-.17-.66-.1-.7-.28-.12-.46.43-.44.2-.79s-1.14,0-1.46-.6l-.11.1-.24.84C23.23,8.4,23.52,9.2,24.3,9.55ZM15.44,19a3.29,3.29,0,0,1-1.62-1.13c-.37.25-.68.43-.73.91a1.71,1.71,0,0,1,1,1C14.74,19.82,14.92,19.18,15.44,19ZM6.25,52.3,4.92,53.46c.17.43.6.28.81.55s0,.7.57.67a1.23,1.23,0,0,0,0-1.49c0-.36.29-.35.35-.54A.55.55,0,0,0,6.25,52.3ZM72.68,84.55a3.69,3.69,0,0,0-2.24-.21c.1.4-.29.78,0,1.25l1.25-.2C71.54,84.67,72.21,84.82,72.68,84.55ZM56.56,4.1l-.94-.19c-.19.63.07,1.22-.16,1.79a1.16,1.16,0,0,0,1.1-.09ZM20.11,82.31c.48-.24,1-.15,1.2-.65s1.11-.21.59-1c-.49.73-1.32-.24-1.85.39ZM3.51,60.57c.58-.47.7-1,1.2-1.16l.18-1.07c-.71-.15-.84.35-1,.71s-.53-.19-.72.29C3.23,59.64,3.6,60,3.51,60.57ZM57.41,8.82c-.31-.69.55-1.53-.28-2.16A3.86,3.86,0,0,0,56.27,8Zm26,58.64a2.8,2.8,0,0,0-1.22.65c.38.85.38.85,1.53.55ZM52,87.19c.56.23.39.77.65,1.15.54-.13.62-.75,1.05-.93-.14-.32,0-.62-.36-.9A2.21,2.21,0,0,1,52,87.19Zm-43.17-23c-.34-.06-.18-.44-.44-.56-.23.22-.21.63-.55.78.35.3.55.78,1.14.79a1.4,1.4,0,0,0,.46-1.53C9.11,63.68,9.31,64.21,8.87,64.19Zm23.43-59c.44.76.53,1.59,1.37,1.9.33-.5-.37-.62-.27-1.07C33.53,5.38,33,5.23,32.3,5.22ZM13,16.52c-.42.19-.34.63-.53.94.55.21,1-.09,1.54,0,.11-.28.13-.47,0-.64ZM87.13,41c.56-.1.8-.66,1.32-.77a1.1,1.1,0,0,0-.64-.63c0,.69-.8.19-1,.68a2.53,2.53,0,0,0,.12.33A3.68,3.68,0,0,0,87.13,41ZM40.2,89.77c.34-.12.6-.24.41-.61s.39-.49.25-.82c-.57,0-1.26.48-1.3.84A1.48,1.48,0,0,0,40.2,89.77ZM23.15,13.08a1.84,1.84,0,0,0,1,1.07c0-.54.56-.93.12-1.49A2.8,2.8,0,0,0,23.15,13.08ZM81.82,27.54a2,2,0,0,0,1.32,0L83,26.72l-.62-.29A2.13,2.13,0,0,0,81.82,27.54Zm6,35.49c-.06-.64.15-1.18-.33-1.78-.3.66-.32,1.27-.74,1.69C87.14,63.24,87.43,62.93,87.82,63ZM2.7,51.11c-.34.19-.6.37-.64.72.58.75.58.75,1.39.57C2.85,52.19,3,51.57,2.7,51.11ZM79.86,78.36a1.12,1.12,0,0,0,1.16,0,.65.65,0,0,0-.07-.58,2.38,2.38,0,0,1-1-.21A1,1,0,0,0,79.86,78.36Zm-67-58.69c-.56-.13-.92,0-1.33.72.78-.4.63.43,1.08.41C13,20.51,13,20.11,12.82,19.67Zm3.3-4.59c-.09-.41.26-.94-.34-1.2-.56.45-.56.45-.37,1.2A1.08,1.08,0,0,0,16.12,15.08ZM85.29,55.76c.48-.23.49.6.95.31-.16-.61.13-1.26-.24-1.9A5.65,5.65,0,0,1,85.29,55.76ZM8.43,61.65l1.51-.29c-.06-.26-.09-.5-.34-.64A1.92,1.92,0,0,1,8.36,61,.6.6,0,0,0,8.43,61.65ZM53.72,89.44a2.63,2.63,0,0,0,0,1.5c.23-.58.94,0,1.09-.63ZM70.49,7.75c-.53-.26-.93-.26-1.13.37,0,.09-.06.15,0,.21s.41.37.73.26A1.34,1.34,0,0,0,70.49,7.75Zm5.74,5.09c-.44.48-.72.92-.35,1.55C76.54,14,76.61,13.69,76.23,12.84ZM7.07,59.48c-.38-.31-.65-.11-.91-.12L5.9,60c.61-.3.38.55.85.51A2,2,0,0,0,7.07,59.48ZM47.17,3c.14.35.13.79.53,1.13.4-.38.22-.84.42-1.18A.74.74,0,0,0,47.17,3ZM50,4.3c.54.12.77-.23,1-.72-.57.06-1-.46-1.45.16C49.79,3.88,49.74,4.17,50,4.3Zm41.5,46.25a1,1,0,0,0-.31,1c.43-.18,1-.1,1.27-.63Zm-3.66,2.52a.8.8,0,0,0-.29.62,1,1,0,0,0,.88.42C88.64,53.5,88.47,53.16,87.86,53.07ZM12.68,15.38a.61.61,0,0,0,.34.88c.05-.47.83-.21.82-.88Zm64.51,1.19c0,.48-.3.87-.14,1.53a3.63,3.63,0,0,0,.88-1.42C77.74,16.48,77.55,16.48,77.19,16.57Zm5.87,1.9c-.37.25-.47.51-.29.87a.71.71,0,0,0,.92-.09A1,1,0,0,0,83.06,18.47ZM1.94,38.57c.48-.16.86-.34.5-.94-.29,0-.59-.16-.85.21C1.57,38.09,1.76,38.3,1.94,38.57ZM18.51,17.46c.61-.72.6-.74-.33-1.09C18.11,16.76,18,17.13,18.51,17.46Zm25-9.52c0-.43-.21-.91.34-1.16-.5-.25-.81-.09-.94.28S42.93,7.8,43.49,7.94ZM1,50.57c.44-.2.53-.51.33-.87S1,49.25.63,49.56A2.54,2.54,0,0,0,1,50.57ZM66.08,8.18c.32.28.42.85,1.2.48a2.17,2.17,0,0,1-.72-1C66.32,7.77,66.22,7.89,66.08,8.18Zm1.84,2c.19-.49.45,0,.63-.31-.1-.73-.26-.93-.63-.76C67.73,9.37,67.77,9.63,67.92,10.21Zm-.59,1.32a.72.72,0,0,0,.43-.77c-.26-.29-.52-.39-.84-.12C67.08,10.9,67,11.27,67.33,11.53Zm.94.83c-.63-.61-.69-.61-1.13.24C67.48,12.26,68,13,68.27,12.36Zm-27.48-5c-.18-.51.48-.84,0-1.42-.13.44-.57.6-.56,1C40.3,7.18,40.41,7.29,40.79,7.39ZM16.52,73.52c.18.32.34.64.92.6-.27-.31.18-.56-.09-.9A2,2,0,0,0,16.52,73.52Zm-8-45.75c-.22.11-.38.21-.38.43.67.37.67.37,1.29.11C9,28.39,8.91,27.92,8.53,27.77Zm28.4,63.17c0,.21-.3.37-.17.67.44.22.71-.1,1-.31A1,1,0,0,0,36.93,90.94Zm33.91-8.46c-.56.63-.56.66,0,1.3A1.72,1.72,0,0,0,70.84,82.48ZM5.06,62.37c0-.78-.08-.85-.88-.47A1.13,1.13,0,0,0,5.06,62.37ZM8,44.65c-.38-.08-.72-.22-1,.21.27.38.64.32.93.4A.63.63,0,0,0,8,44.65ZM2.52,36.56c-.12-.22-.25-.41-.58-.32a1.06,1.06,0,0,0,0,1.09C2.23,37.15,2.18,36.69,2.52,36.56Zm88,.86c-.26.39-.17.68.25.9a.91.91,0,0,0,.33-.58C91,37.52,90.8,37.35,90.5,37.42Zm0,9.17c-.11.85-.11.85.81.83C91,47.18,91,46.69,90.51,46.59ZM85.62,61c-.1.41.17.64.36.88.31,0,.45-.13.55-.46C86.18,61.42,86.05,61,85.62,61ZM35.23,89.12c.22.19.39.33.63.31s.37-.28.26-.57C35.77,88.62,35.49,88.71,35.23,89.12Zm31.6-76.41a1.24,1.24,0,0,0-.24-1.22A.74.74,0,0,0,66.83,12.71Zm-44,1.39a1.08,1.08,0,0,0,0-1.16C22.28,13.38,22.29,13.72,22.86,14.1Zm-5.11,4.28a1.08,1.08,0,0,0,1.1,0c.09-.33-.1-.46-.32-.59C18.39,18.1,18,18.06,17.75,18.38Zm63,2.27c-.25.13-.55.06-.6.4.09.14.18.31.29.46s.14,0,.23,0C80.93,21.32,80.87,21,80.73,20.65ZM16.89,12.94c-.28,0-.57-.2-.83.11.1.19,0,.48.34.54A.76.76,0,0,0,16.89,12.94Zm7.89-1.71a.75.75,0,0,0,0-.87c-.24.19-.49.31-.59.58A.5.5,0,0,0,24.78,11.23ZM33.07,9.3a1.31,1.31,0,0,0-.78,1.25A1.3,1.3,0,0,0,33.07,9.3ZM7.91,26.86c-.3.22-.72.34-.81.81C7.75,27.75,7.94,27.42,7.91,26.86ZM15.24,24a1.45,1.45,0,0,0-.93.07c0,.22-.06.37.08.51C14.75,24.57,15.1,24.5,15.24,24Zm66-1.19c-.26-.07-.5-.23-.74.17a.53.53,0,0,0,.42.44A.56.56,0,0,0,81.27,22.83ZM77.46,74c.32-.43.34-.72.09-1.05C77.1,73.27,77.07,73.55,77.46,74Zm-64-52.24c-.44.12-.36.45-.49.69.36.13.61.21.93-.12C13.44,22.32,13.67,22,13.41,21.77Zm58.94,56c-.38-.17-.72-.26-.95.24C71.85,78.37,72.14,78.28,72.35,77.81ZM63.89,89.27a.94.94,0,0,0,.78-.46l-.83-.23A.52.52,0,0,0,63.89,89.27ZM52.06,6.21c-.17.22-.43.33-.25.64.21.13.42.2.6,0A.89.89,0,0,0,52.06,6.21ZM7.82,54.32c-.2-.2-.41-.19-.68,0,.15.17.09.45.36.56C7.73,54.76,7.91,54.62,7.82,54.32ZM86.58,55c.26.47.53.54.88.3C87.3,54.88,87,54.81,86.58,55ZM84.25,20.34a.91.91,0,0,0,.6-.67c-.93.21-.93.21-.83.47ZM13.58,70.63c-.32-.41-.32-.41-.71,0C13.12,70.8,13.34,70.9,13.58,70.63ZM5.76,40.21c.46-.4.46-.4.19-1.06ZM79.23,80.33l.51-.89c-.27-.08-.46-.11-.6.09A.77.77,0,0,0,79.23,80.33ZM27.08,81.81c-.43,0-.68-.13-.95.1C26.4,82.42,26.67,82.44,27.08,81.81Zm35-72.89c-.08.36.11.49.32.61a.47.47,0,0,0,.33-.31C62.65,9,62.51,8.75,62.1,8.92ZM12,28.17c.16-.26.61-.46.18-.87C11.73,27.48,11.88,27.83,12,28.17Zm76,8.3c.14.4.31.57.64.63C88.84,36.55,88.68,36.34,88,36.47ZM37.94,7.84a.73.73,0,0,0,.31-.59.45.45,0,0,0-.64,0C37.54,7.58,37.71,7.73,37.94,7.84Zm.63,79.31c.15.49-.22.87.4,1.09C39.13,87.86,39.2,87.55,38.57,87.15Z"/><path class="cls-1" d="M5.67,27.33l-1-.42c-.06-.21.06-.33.15-.5.35.27.84.37.91.91Z"/><path class="cls-1" d="M7.11,22.26l.24.71a.35.35,0,0,1-.46.17C6.91,22.83,6.75,22.48,7.11,22.26Z"/><path class="cls-1" d="M87.89,70.17l-.48.14a.38.38,0,0,1,.18-.54C87.79,69.79,87.92,69.88,87.89,70.17Z"/><path class="cls-1" d="M2,55.69c-.22-.08-.36-.18-.39-.41C2,55.19,2.05,55.33,2,55.69Z"/><path class="cls-1" d="M27.11,24.86a2.53,2.53,0,0,1,1.67-.05c.34.44-.36.51-.19.89.44.31.85-.12,1.24-.06.21-.32,0-.52-.07-.71.34-.35.51-.1.67.13a5.18,5.18,0,0,1,3.89,0c0,.53,0,1,.76.82.12-.29-.26-.27-.24-.51.4-.82,1.11-.68,1.86-.58l.24.84.79-.85c.85,0,1.75-.3,2.64.25.85-.61,1.89-.17,2.9-.32l1,1c-.33.4-.11.79,0,1.17l.51.19.37-1-.71-.46a1,1,0,0,0-.35-.86c2.12,0,4.12,0,6.11,0,.49,0,.58.53,1.12.49.25-.52.83-.3,1.31-.4s1.07-.17,1.49.37c.07.09.37,0,.56,0h0c-.1.33,0,.54.4.7.11-.31.46-.52.31-.94h0a3,3,0,0,1,1.28-.21H60c.51,0,1-.07,1.31.55.38-.3.64-.57,1.09-.56,2.18,0,4.35,0,6.53.05a5.94,5.94,0,0,1,.94.15.94.94,0,0,0,.25,1c.5.06.57-.38.85-.64a3.09,3.09,0,0,1,1.92,1,1.61,1.61,0,0,1-.37.81c.81-.18.84.61,1.24.74.49-.06.26-.54.61-.64a.78.78,0,0,1,.28.13,9.55,9.55,0,0,1,3.48,7.11c.08,3.88,0,7.75,0,11.63a13.87,13.87,0,0,1-.38,2c.69,1.17.35,2.54.3,3.86,0,.34-.43.58-.58,1s.55.66,0,1.06a.66.66,0,0,0-.08,1,2.07,2.07,0,0,0-.5.83c.6.47,0,1.34.6,1.93.34-.37,0-.87.31-1.2.53.78.45,1.55-.36,3.48,0,.34.42.15.52.37.37,1-.33,1.56-.77,2.25-.07.28.24.38.3.61a9.52,9.52,0,0,1-3,4.4c-.22,0-.29-.41-.58-.22,0,.45.2,1.13-.71.92a.31.31,0,0,0-.39.18c-.39.89-1.19.74-2,.76a1.3,1.3,0,0,1-2,.45,2.94,2.94,0,0,0-.76-3.09l-1.09.54c.3,1,.1,2,.6,3h-3.4c-.43-.22,0-.88-.5-1.1-.4.24.17.7-.19.91s-.65.33-1.83.12l.1-1.68c-.7.07-.37,1.1-1.13.9,0,.4.44.23.52.47s-.3.45-.59.44c-2.55-.11-5.1.24-7.64-.19a9.55,9.55,0,0,0-1.6.17c-2.67,0-5.35.14-8-.07a20.48,20.48,0,0,0-2.07.09c-1.58,0-3.17,0-4.75,0-.35,0-.73.06-.91-.31-1.92.64-3.86.15-5.72.33-.09-.16-.15-.23-.15-.3s0-.14.08-.26L31,70c.44-.2.33-.76.58-1,.41-.23.43.35.73.27.32-.83.31-.85-.78-1.57l-.21.1c-.23.14-.2.41-.33.66a8.24,8.24,0,0,0-2.42,1c.05.37.48.37.62.54s0,.22-.13.22a2.58,2.58,0,0,1-1.29-.13c-.1-.06-.26-.12-.34-.08-1,.43-1.87,0-2.8-.11-.3,0-.28-.51-.68-.38s-.48.32-.91.15A1.55,1.55,0,0,0,21.59,69c-.36,0-.66-.26-1-.45A10.37,10.37,0,0,1,15.84,60c-.1-2.2,0-4.4,0-6.6,0-.45,0-.88.46-1-.07-.34-.25-.32-.42-.36,0-.15,0-.31,0-.46,0-5.44,0-10.88,0-16.32a10.33,10.33,0,0,1,4.6-8.77,5.42,5.42,0,0,1,1.93-.94,2.93,2.93,0,0,0,1.18-.47A1.83,1.83,0,0,1,24.73,25c-.29.57,0,.87.5,1.14l.55-.26-.19-1A1.35,1.35,0,0,1,27,25c-.26.45.1.82.12,1.36A3.09,3.09,0,0,0,27,29.17a.67.67,0,0,0,.75-.31.76.76,0,0,1-.08-.62c.1-.22.55,0,.64-.62a9.79,9.79,0,0,0-.41-1.76c.08-.18.44-.2.35-.55A2.94,2.94,0,0,1,27.11,24.86ZM73.28,50.79c-.38.26-.62.57-.28,1,.2,0,.39.08.51-.08l-.08-.81c.25-.2.53-.38.52-.78C73.73,50.37,73,50,73.28,50.79ZM29.77,27.63a.67.67,0,0,0-.1-1.07c-.39.31-.26.67-.27,1l0,.92c-.18.5-1,.52-.55,1.18l.9-.71Zm.08,12.49a1.07,1.07,0,0,0,1.5,0c-.43-.3-.92-.11-1.37-.19a.73.73,0,0,0,0-1.06c.19-.08.4-.15.55,0A7.64,7.64,0,0,0,32.3,40c1.68,1,3.38,2.06,5.06,3.1.32.2.75.3.87.74-.17.38-.84.06-.9.73.49,0,1,.08,1.45.09.25,0,.3-.22.32-.43a10.62,10.62,0,0,0,1.36.75,1.58,1.58,0,0,1,.94,1.38c0,.49.2,1.28-.54,1.61a.13.13,0,0,0-.07.2c.27.08.07.48.48.59s.92-.11,1.38.32c-.07-.59,0-1.28-.36-1.52-.67-.5.25-1-.2-1.5,1.07.85,2.46,1,3.5,2a1.07,1.07,0,0,1,1.11-.43,6.74,6.74,0,0,0,3.17-.46A1.94,1.94,0,0,1,51.23,47c.06,0,.14-.06.21-.08.28-.2-.21-.67.31-.79.3,0,.24.6.66.51.29-.29-.27-.58,0-.85a27.1,27.1,0,0,1,3.49-2.2,1.65,1.65,0,0,1,1.3.82.32.32,0,0,0,.51.09c.07-.19-.26-.45.08-.61.33,0,.58-.06.66-.47-.33-.08-.57-.58-1-.14a1,1,0,0,1-.83-.17c.9-.56,1.71-1.08,2.52-1.57a16.33,16.33,0,0,1,2.49-1.43c.92-.36,1.49-1.17,2.38-1.57a28.13,28.13,0,0,0,2.46-1.48l2.39-1.45c.5.22.66.72,1.12.82.8-.56.92-.78.67-1.14-.24,0-.22.34-.47.29s-.49-.09-.49-.43c.68-.66,1.7-.87,2.35-1.71a5,5,0,0,0-4.5-3.06c-.23-.15,0-.53-.31-.61l-.36.3-.62-.37A1.23,1.23,0,0,1,65,30.5c-1,0-2.08,0-3.26,0,.37-.63-.55-.62-.38-.84.46-.6,0-.54-.31-.69-.56.66-.56.66.1,1.45a2.07,2.07,0,0,1-1.23,0v-.54a10.73,10.73,0,0,0-1.87-1.08c-.13.22-.57.12-.54.61a2,2,0,0,1,.83.82l.59-.4a.88.88,0,0,1-.29.7H56.51a11.18,11.18,0,0,1-2.39-.05,13.25,13.25,0,0,0-2.19.05,17.29,17.29,0,0,1-2.29-.08c-.07-.31.23-.43.11-.65s-.44-.36-.74-.29a.72.72,0,0,0-.4.44c-.06.18,0,.4-.44.55-1.69-.09-3.58.26-5.43-.4-.78.85-1.83.2-2.76.4,0,0-.12-.07-.18-.11l.13-.31c-.25-.25-.52-.05-.78-.07-.09,0-.17-.13-.25-.19.06-.38.71-.12.58-.69A2.41,2.41,0,0,0,37.93,29a.71.71,0,0,0,.53.8c-.38.09-.26.37-.27.6-.54-.22-1.06-.64-1.64-.08-.12-.22-.2-.41-.45-.39s-.33.34-.58.3-.44-.51-.89-.56c-.17.22-.52.16-.78.33,0,.16.09.2.2.24s.09.06.1,0,.12.2.09.17c-.57-.21-1.1.21-1.53-.15-.11-.36.36-.47.22-.8-.34-.24-.74.45-1.13-.14.14-.13.47-.06.55-.46s.17-.72-.2-1.16c-.42.24-1,.08-1.28.68a.89.89,0,0,0,.4,1.08c-.42.2-.84.21-1,.6.46.39.89-.21,1.45,0a3.9,3.9,0,0,1-2.41.3,6.44,6.44,0,0,0-2.19,0c-.8.29-1.45-.42-2.2-.44l-.19.69c-.22.17-.42-.14-.6.06-.68.93-1.86,1.51-2.06,2.8a5.82,5.82,0,0,0,1.4,1,8.53,8.53,0,0,1,3,2.4c.05.08.22.09.19.24-.22.26-.77.35-.5.89.81.11.78-.82,1.36-1.06.77.59,1.75.88,2.34,1.72-.43-.23-.7,0-1,.37A2.93,2.93,0,0,1,29.85,40.12Zm-2,2.39a2.61,2.61,0,0,0,2.17,0c-.9-.63-.9-.63-2.3-.16-.23-.19-.43-.16-.65.2.45.1.3.67.67.89C28.33,43.14,27.71,42.81,27.83,42.51ZM56.41,68.07c.11-.42.63-.26.82-.55-.26-.52-.67-.42-1.15-.32,0,.38-.17.71.17,1,.39.61-.47,1.17-.08,1.82a2,2,0,0,0,1.08-1.34C57,68.38,56.83,68.07,56.41,68.07ZM33.22,45.19a.33.33,0,0,0,.52.05l.07-.52c1.34-.55,1.34-.55,1.46-1.3-.07,0-.18,0-.22,0a2.37,2.37,0,0,1-2,.78,1.25,1.25,0,0,0-.11.31c-.26.08-.69-.08-.64.46C32.59,45.22,32.93,45.11,33.22,45.19Zm43.11,4.88c.06-.15.39-.12.28-.41-.29-.07-.59-.16-.83.11-.07.34.15.39.39.43-.45.34,0,.7.07,1-.21.14-.42.08-.42.33l.34.25c-.69.51-1.61.35-2.36.72a1.19,1.19,0,0,0,.69.8c.3,0,.52-.29.87-.11.08.33.34.78-.2,1s-.18.73-.63,1c-.43-.38-.86-.11-1.29.14s-.56.66-.17,1,.74.68,1.14,1c.2,0,.34-.21.61-.21,1,0,1-.07.85-1.09-.35.07-.42.87-1.08.32,1-.26.86-1.12,1.09-1.79,0,.19,0,.4.16.59a2.1,2.1,0,0,0,.58-.47c.13-.22.43-.32.43-.61-.49-.29-.72.16-1,.35,0-.19,0-.38.15-.55.35-.34.8,0,1.19-.13a6.67,6.67,0,0,0-.86-1.8c.29-.07.63.07.94-.26A1.85,1.85,0,0,0,76.33,50.07ZM32.88,25.58c-.05-.22,0-.48-.2-.64a.46.46,0,0,0-.56.12,1.61,1.61,0,0,0,.61.66c-.18.2-.59,0-.68.48.22.19.13.59.4.9.34,0,.8.06.75-.41s.66-.27.48-.74A1.39,1.39,0,0,0,32.88,25.58ZM20.39,30.27l.83-.4c-.09-.18-.25-.18-.39-.22a.55.55,0,0,1-.4-.39c.51-1,.51-1-.33-1.9a1.94,1.94,0,0,1-.57,1.44c.53.36.34,1,.72,1.33a.62.62,0,0,0-.62.46c.12.21.26.4.56.33S20.35,30.5,20.39,30.27ZM38.7,64.79c.15-.54.63-.44,1.06-.44,2.76,0,5.52,0,8.28,0,.39,0,.75.13,1.16.1,2.95-.2,5.91-.06,8.87-.07.34,0,.68.15,1,0,0,0,.13.06.2.1a.72.72,0,0,1,0,.64c-.87,0-.78.81-1.24,1.26.35.14.58.16.72-.12s.35-.62.66-.66c.66-.08.8-.51.81-1a2.25,2.25,0,0,1,2.2.09c.75-.5,1.56-.24,2.32-.28s1.53,0,2.28,0,1.54-.2,2.23.28c.07-.34.16-.53.62-.43.22,0,.19-.68.69-.65.26.3-.25.57-.06.88a.52.52,0,0,0,.82-.12,1.09,1.09,0,0,0-.12-1.4c.07-.35.43-.58.38-1a3.26,3.26,0,0,1-2.91-1.63c-.41.34-.71,0-1-.23l-6-3.68c-.46-.28-1-.49-.93-1.32a2.49,2.49,0,0,1-2.37-.71,12.14,12.14,0,0,0-2.06-1.27,2.25,2.25,0,0,1-1.05-.75c.45-.78.45-.78,0-1.28-.23.62-.58,1-1.31.75-.14,0-.37.09-.55.18a14.62,14.62,0,0,1-4.32,1.31,13.64,13.64,0,0,1-7.93-1.08,2.51,2.51,0,0,0-2-.26c-.19.07-.36-.21-.42-.14-.31.33.06.57-.21.83a5.32,5.32,0,0,1-1.21.68c-.18-.17-.25-.5-.58-.5a.88.88,0,0,0,0,.93l-14,8.62c.34.84,1.06,1.11,1.56,1.57l-.26.48a1.55,1.55,0,0,0,.82.28c.21,0,.09-.3.31-.25l0,.53a3.6,3.6,0,0,0,1.36-.58c.53-.28,1.06.25,1.62.15.15,0,.3-.17.45-.16,1,.08,2.09-.48,2.78.67a4.17,4.17,0,0,1,2.16-.69c1.59,0,3.19,0,4.72,0C38.4,64.5,38.28,64.73,38.7,64.79ZM29.07,44.86c0-.48.44-.43.36-.86-.27-.24-.33-.77-.78-1-.39.27-.53.79-1.1,1-1.57-1.14-3.55-1.79-5-3.45-.16.46-.57-.08-.86.31A4.54,4.54,0,0,1,21,43.61c.73.19.7.71.69,1.25,0,3.23,0,6.47,0,9.7a2.11,2.11,0,0,0,.15,1.24A2.43,2.43,0,0,0,23,55.28l8-4.87c.39-.23.72-.51,1.3-.3s.55-.29.38-.69c.5-.44,1.2-.62,1.74-1.3Zm43.17-4.21c-.09,0-.19,0-.24,0q-5.69,3.44-11.35,6.89a8.29,8.29,0,0,0-.77.55s0,.07,0,.1a.48.48,0,0,0,0,.16c1.22,1,2.71,1.65,4,2.54s2.82,1.77,4.21,2.69a25.73,25.73,0,0,0,4.26,2.36,30.92,30.92,0,0,0,.07-3.56,16.16,16.16,0,0,1,0-3.11c.11-1-.07-2,0-3,0-1.48,0-3,0-4.43C72.39,41.41,72.5,41,72.24,40.65Zm.87,23.27c.18.23.35.64.81.64s.65.3,1.09.18c.1-.18.45-.31.26-.54-.38-.38-.66.26-.91-.11-.41-.64.46-1.55-.49-2.07l.82-.37c.16.33.5.48.52.92,0,.23-.39.39-.33.8,1-.19.93-.93,1-1.55a.93.93,0,0,0,.82-.85c-.7-.57-.35-1.16.12-1.73a4.67,4.67,0,0,1-1.17-1.65c-.6.8-.59.89.2,1.78.09.11,0,.22-.1.37l-.51-.45c-.27-.06-.36.34-.69.19-.24-.31-.18-.81-.59-1.19l-.77-.17c-.24.52,0,1,0,1.36.39.45.72.86,1.32.8-.29.94-1.45.83-1.91,1.66a2.61,2.61,0,0,1,.89,1.42C73.36,63.53,73.1,63.55,73.11,63.92Zm-49-36.73c-.22.21-.44-.13-.69,0a6.55,6.55,0,0,0,0,1.77,3.87,3.87,0,0,1,2.29.23l.2-.65c0-.58-.34-.45-.51-.59.06-.23.35-.33.33-.61s-.13-.46-.46-.56a4.49,4.49,0,0,0-1.27,0C23.93,27.06,24.09,27.1,24.13,27.19Zm17,1.07c.16-.48-.1-.64-.5-.71,0,0,0-.05,0-.12A4,4,0,0,1,42,27.24a4.23,4.23,0,0,0-.58-1.73c-.19.71-.8.74-1.34,1,.11.79-.61,1.39-.51,2.14C40.36,29.36,40.45,27.89,41.15,28.26Zm-16.54,13a1.22,1.22,0,0,0,.81-.5,6.27,6.27,0,0,0-.61-1.6c-.07-.19-.34-.13-.6,0,.13.33.17.68-.37.79-.19-.67-.73-.61-1.3-.61.09,1.08.93,1,1.61,1.21C24.24,40.78,24.14,41.1,24.61,41.27Zm40.15-11c.38-.21.35-.61.51-.89.21-.09.5,0,.65-.27a1.22,1.22,0,0,0-.43-1.31,3.09,3.09,0,0,0-1.56,1.3C64.45,29.27,64,30.15,64.76,30.24Zm-5.59-2.66c-.15-.55-.26-.92-.69-1a1.22,1.22,0,0,0-1,.39c-.29.32-.64.14-.93.26a1.16,1.16,0,0,0,.42.88A6.34,6.34,0,0,1,59.17,27.58Zm12,39.2a1.77,1.77,0,0,0,1.37.88l.31-.71c-.33-.09-.7-.13-.9-.44a1,1,0,0,0-.13-.86c-.36-.18-.69-.59-1.25-.66.21.88.21.88.77,1.21ZM63.22,44.06c.08-1.2.08-1.2,1-1.64l0-.66c-.32-.13-.58-.45-1.07-.22a.57.57,0,0,1-.26.94,1.35,1.35,0,0,0-.55,1A1,1,0,0,0,63.22,44.06Zm-15-15.73c-.09-.44-.49-.43-.71-.52s-.31.32-.55.36l-.6-.33c-.22.39-.27.83-.63,1.14s-.23.68.23,1c.13-1,.82-1.24,1.61-1.26A.61.61,0,0,0,48.19,28.33ZM17.69,41.15c-.25-.19-.29-.54-.69-.57a2.62,2.62,0,0,1-.51,1,1.31,1.31,0,0,0,.58.57c.22-.06.2-.47.54-.36.13.14.08.49.43.39.44-.89.45-1.18.05-1.4C17.88,40.8,17.88,41,17.69,41.15ZM70.78,60.34,70.2,58.7a1.22,1.22,0,0,1-.86.86c.35.49.18,1.24.83,1.56A1.21,1.21,0,0,0,70.78,60.34ZM61.64,28.13c-.19-.29-.11-.64-.19-1l-1.06.07a2.58,2.58,0,0,0,.15,1.61A1.75,1.75,0,0,0,61.64,28.13ZM27.7,66.8a3.24,3.24,0,0,0-.53,1.82c.28,0,.41.37.79.46.05-.23.44-.07.47-.46C27.89,68.25,28,67.54,27.7,66.8Zm3.9-25.69c-.36.54-1.15,0-1.41.77l.26.53c.33-.11.59-.38,1-.06.09.07.55-.3.84-.48ZM45.77,51c-.06-.47.2-.79.74-1a2.25,2.25,0,0,0-2.24.6c.14.37.28.68.6.38S45.43,51.08,45.77,51ZM37.08,66c-.73-.21-.91.83-1.72.59.41.62-.55.87,0,1.46.25-.39.7-.56,1-.88S37,66.58,37.08,66Zm23.81,1.51c.39.23.71.59,1.14.26.34-.74-.36-1-.63-1.55A2,2,0,0,1,60.89,67.54Zm5.51-9.37a.51.51,0,0,0,.12,0l.27-.12a2.76,2.76,0,0,0,.51,1.06c.41-1,.35-1.16-.73-1.83C66.23,57.55,66.36,57.87,66.4,58.17ZM55.65,48.52l-.95-.08a1.46,1.46,0,0,0,0,1.16c.21.07.37.29.63.15Zm-30.88,11c-.59-.23-.89.3-1.59.49a1.85,1.85,0,0,0,1.66.13A.56.56,0,0,0,24.77,59.51ZM74,29.09c.08.3,0,.6.19.87a.74.74,0,0,0,.81-.13,2.26,2.26,0,0,0-.35-1ZM65.86,68.55c-.49.92-.67-.34-1.12-.06.1.62.45,1.08.79,1.09C65.84,69.42,66,69.19,65.86,68.55Zm-13-.69c-.25.28.11.75-.27.92s-.63.3-.31.72C53.38,69.06,53.51,68.72,52.91,67.86ZM33.37,43c.13-.61.67-1.14,0-1.66,0,.39-.41.56-.56.87C32.89,42.48,32.92,42.82,33.37,43ZM75.7,29.93a.77.77,0,0,0-.35.73c.41.57.74.13,1.09-.07A1,1,0,0,0,75.7,29.93ZM23.79,38.87l.69-1.06a3.24,3.24,0,0,0-1.29.46A.58.58,0,0,0,23.79,38.87ZM68.1,27.48c-.25.42-.74.44-1.26.76.61.11,1,.21,1.45-.06A.6.6,0,0,0,68.1,27.48Zm8.18,21.11c.66.49.66.49,1.14,0C76.68,48.27,76.68,48.27,76.28,48.59ZM47,26c.22.89.22.89,1.22.86C47.69,26.71,47.69,25.93,47,26ZM65,43.33c-.09-.46.16-.91-.4-1.33.21.57-.2.91-.41,1.26C64.46,43.48,64.65,43.45,65,43.33ZM71.85,39c0-.45.23-1.05-.55-1.12C70.94,38.52,71.39,38.76,71.85,39Zm-23,11.52c.17.85.53,1,1.13.74C49.87,50.74,49.43,50.71,48.89,50.51ZM37.34,27.38c-.34-.35-.7-.73-1.19-.19C36.48,27.7,36.91,27.55,37.34,27.38ZM73.25,64.72A3.14,3.14,0,0,0,74,66.18l.35-.32C74,65.56,74,65,73.25,64.72Zm-2-28.61c.32-.34.71-.62.36-1.07a.47.47,0,0,0-.55.06ZM41.49,30a1,1,0,0,0,.59-1C41.25,29.17,41.23,29.2,41.49,30ZM69.93,65.31a.69.69,0,0,0-.83,0c.17.34.33.64.76.6A.46.46,0,0,0,69.93,65.31ZM16.22,43.93c.14.65.14.65.73.74C17.12,44.1,16.7,44.05,16.22,43.93Zm27.8-15c-.58,0-1-.46-1.34.34C43.13,29.29,43.53,29.44,44,28.88ZM71.14,57.82c-.8.32-.8.32-.23,1C70.92,58.45,71.31,58.3,71.14,57.82Zm-7.08,8.11c-.13-.43-.21-.75-.73-.64C63.16,65.82,63.29,66.07,64.06,65.93Zm-4.58,1c.48-.14.55-.52.67-.84s-.1-.34-.43-.31C59.73,66.1,59.39,66.37,59.48,66.9Zm-1.34,1.24c-.25,0-.44-.07-.61.12,0,.38.17.57.56.58C58.3,68.66,58.32,68.45,58.14,68.14Zm6.43-40.53c.28-.23.52-.37.59-.68-.28-.11-.52-.54-.91,0Zm-3,12.82a.72.72,0,0,0-.11,1C61.88,41.17,62,40.9,61.6,40.43ZM55.11,29.64h.7c.09-.26.12-.47-.13-.64C55.32,29,55.13,29.18,55.11,29.64ZM31.76,44.28c-.55-.23-.87-.28-1.06.24C31,44.7,31.33,44.74,31.76,44.28Zm27,1.69c.24-.2.49.2.71-.09.05-.22.09-.45-.21-.56S58.76,45.51,58.73,46ZM54,29.26c-.38.59-.38.59.3.91C54.52,29.76,54.21,29.56,54,29.26ZM73.85,57.69c-.21-.25-.33-.49-.67-.57l-.28.62A.93.93,0,0,0,73.85,57.69ZM18.11,31c.17.2.24.36.31.36a1.36,1.36,0,0,0,.93-.29C18.89,30.44,18.57,31,18.11,31ZM69,59.08c-.36-.11-.67-.37-1.13-.27a1.09,1.09,0,0,0,.55.65A.86.86,0,0,0,69,59.08Zm-3.91,6.16c-.43.39-.6.68-.06,1C65.32,65.93,65.29,65.65,65.08,65.24ZM39.94,66.3a.56.56,0,0,0-.62.31c.15.16.06.5.41.49A.53.53,0,0,0,39.94,66.3Zm24.85,1.26c.49-.65.49-.65,0-1A1.13,1.13,0,0,0,64.79,67.56ZM26.07,37.37c-.53-.68-.53-.68-1-.37C25.34,37.19,25.55,37.45,26.07,37.37ZM56.63,51.65c-.14-.38.21-.48,0-.77-.23-.1-.45-.14-.59.14S56.19,51.39,56.63,51.65ZM22.07,60.41c.17-.32.74-.31.61-.89C22.21,59.67,21.78,59.76,22.07,60.41Zm50.48.33-.89.25C72.15,61.61,72.39,61.26,72.55,60.74Zm-9.1,5.43c-.36.45,0,.65.26,1C63.8,66.71,64,66.36,63.45,66.17Zm-2-40.28a2.15,2.15,0,0,0-1,.65C61.07,26.55,61.07,26.55,61.41,25.89Zm-33,14.39c.3-.4.3-.4.12-.87C28.06,39.61,28.38,40,28.42,40.28Zm6-11.73c-.19,0-.34,0-.39.2a.79.79,0,0,0,.41.67A.83.83,0,0,0,34.39,28.55ZM25.16,41.81l.59.61c.12-.24.33-.39.21-.66A.78.78,0,0,0,25.16,41.81ZM59.47,42c-.11.46-.08.75.39.88C60,42.49,60,42.2,59.47,42Zm16.31,1c.31-.4.39-.65-.08-.83C75.42,42.45,75.42,42.68,75.78,43ZM69.32,29.08c.19.48.47.53.87.32C70,29,69.77,28.89,69.32,29.08ZM60.51,46c-.82.31-.82.31-.69.94ZM55,48.16c-.19-.5-.4-.72-.85-.53-.1,0-.14.16-.06.34ZM44,48.68c.43,0,.69.13,1-.1C44.72,48.08,44.45,48.06,44,48.68Z"/><path class="cls-1" d="M54.63,25.16c.06-.18-.12-.25-.19-.39a.9.9,0,0,1,.92.15h0l-.71.24Z"/><path class="cls-1" d="M77.68,76.28c.07-.16.06-.38.34-.5a.47.47,0,0,1,0,.51h-.35Z"/><path class="cls-1" d="M62.72,86.43a.7.7,0,0,1-.81.34C61.92,86,62.41,86.46,62.72,86.43Z"/><path class="cls-1" d="M24.53,27.64c-.06.52-.42.28-.59.41C24,27.78,24.26,27.72,24.53,27.64Z"/></g></g></svg>