<svg width="16" height="15" viewBox="0 0 16 15" fill="none" xmlns="http://www.w3.org/2000/svg">
<path d="M15.3333 8.11206H0.666667C0.298665 8.11206 0 7.83206 0 7.48706C0 7.14206 0.298665 6.86206 0.666667 6.86206H15.3333C15.7013 6.86206 16 7.14206 16 7.48706C16 7.83206 15.7013 8.11206 15.3333 8.11206Z" fill="#656D78"/>
<path d="M15.3333 3.32031H0.666667C0.298665 3.32031 0 3.04031 0 2.69531C0 2.35031 0.298665 2.07031 0.666667 2.07031H15.3333C15.7013 2.07031 16 2.35031 16 2.69531C16 3.04031 15.7013 3.32031 15.3333 3.32031Z" fill="#656D78"/>
<path d="M15.3333 12.9036H0.666667C0.298665 12.9036 0 12.6236 0 12.2786C0 11.9336 0.298665 11.6536 0.666667 11.6536H15.3333C15.7013 11.6536 16 11.9336 16 12.2786C16 12.6236 15.7013 12.9036 15.3333 12.9036Z" fill="#656D78"/>
</svg>
