<svg width="43" height="41" viewBox="0 0 43 41" fill="none" xmlns="http://www.w3.org/2000/svg">
<path d="M8.65517 9.41272C8.54658 9.64273 8.7651 9.63568 8.86039 9.70251C9.30647 9.46028 8.83603 9.09109 9.04318 8.80652C8.87865 8.63819 8.61493 8.52077 8.60895 8.20456C8.87633 7.9066 9.18719 7.64624 9.53182 7.43162L9.65377 7.58454C9.75459 7.47294 9.66031 7.34173 9.76977 7.18711C10.2804 6.85457 10.7422 6.33018 11.4325 6.11428C11.464 5.80679 11.8471 5.94538 11.9882 5.69474C12.1292 5.4441 12.4202 5.41714 12.6498 5.28735C12.8793 5.15757 13.1154 5.01913 13.3533 4.89169C13.4466 4.82681 13.5561 4.78681 13.6704 4.77598C13.7846 4.76514 13.8993 4.78387 14.002 4.83017C14.0139 4.74351 14.0517 4.66145 14.111 4.59376C14.1703 4.52607 14.2486 4.47561 14.3364 4.44837C15.7 3.88028 17.1301 3.47529 18.5932 3.24286C18.7485 3.21639 18.7485 3.21639 19.009 3.33814C19.0707 3.16144 19.2299 3.1343 19.3968 3.10583C20.1737 2.99012 20.9582 2.93592 21.7422 2.94381C21.9904 2.91069 22.2422 2.92693 22.4814 2.99148C22.5646 3.03395 22.5947 3.18742 22.7444 3.24498L22.998 2.97515C23.6814 3.00656 24.3611 3.07988 25.0329 3.19463C25.1784 3.29822 24.9183 3.34257 25.0174 3.43142C25.1517 3.52676 25.3141 3.5807 25.4832 3.58613C25.5776 3.46051 25.4992 3.37569 25.4331 3.29255C25.4603 3.28791 25.4952 3.28195 25.5185 3.27798C25.8839 3.35918 26.2434 3.45271 26.6141 3.51791C26.7761 3.53517 26.929 3.59512 27.0555 3.691C27.1819 3.78688 27.277 3.91486 27.3299 4.06052C27.3494 4.09776 27.3728 4.13298 27.3997 4.16568C27.5533 4.10551 27.598 3.96949 27.6697 3.8515C27.818 3.86837 27.961 3.91192 28.0911 3.97981C28.1249 4.17798 28.3167 4.31898 28.1505 4.56259C28.3733 4.60391 28.4756 4.45428 28.6031 4.42876C28.6805 4.34381 28.5963 4.27132 28.6303 4.18998C28.8429 4.24382 29.0486 4.31889 29.2438 4.41393C29.3806 4.67761 29.1472 4.92513 29.3102 5.13147C29.1957 5.25673 29.0564 5.21252 28.9603 5.28177C28.851 5.17956 28.8968 5.07356 28.909 4.98085C28.688 4.73907 28.362 4.772 28.1189 4.68129C28.0835 4.69861 28.0547 4.72611 28.0367 4.75976C28.0188 4.79341 28.0125 4.83144 28.0189 4.86827C27.9374 4.88218 27.8364 4.89939 27.7907 4.98271C27.8414 5.04582 27.861 5.1369 27.9578 5.16572C28.0035 5.14001 28.04 5.10168 28.0622 5.05597C28.0844 5.01026 28.0914 4.95941 28.082 4.91038C28.3255 4.83866 28.3348 5.24493 28.6046 5.09319C28.6346 5.26934 28.5368 5.42197 28.6466 5.55053C28.8268 5.57645 29.0436 5.53571 29.1196 5.81732C29.052 5.42098 29.4539 5.43552 29.6115 5.23493C29.5921 5.12117 29.4606 5.05295 29.4949 4.92625C29.5881 4.91036 29.6456 5.03652 29.7404 4.95993C29.8352 4.88334 29.6348 4.76266 29.7319 4.62904C29.967 4.72189 30.1923 4.83518 30.4048 4.96747C30.5064 5.30515 30.1223 5.32533 30.0171 5.52832C29.9198 5.47315 29.8468 5.34965 29.6735 5.36409C29.6663 5.72031 29.9867 5.86582 30.1937 6.07223C30.2225 6.24104 29.9952 6.31379 30.0583 6.47297C30.1406 6.55713 30.2639 6.46057 30.3714 6.55176L30.0052 7.07495C29.7884 7.23276 29.7884 7.23276 29.8767 7.39899C30.0358 7.37184 29.9915 7.20568 30.065 7.12139C30.3791 7.13581 30.131 7.34428 30.1905 7.45877L30.5303 7.71805C30.7405 7.35743 30.7386 7.34642 30.4486 7.07486C30.4426 7.03152 30.4461 6.98732 30.4589 6.94498C30.4716 6.90264 30.4933 6.86306 30.5226 6.82869C30.5519 6.79432 30.5883 6.76588 30.6294 6.74513C30.6705 6.72438 30.7155 6.71176 30.7616 6.70804L30.8404 6.25653C30.5241 6.18206 30.5613 5.76785 30.2218 5.67468L30.3327 5.50472C30.6353 5.59284 30.7409 5.55595 30.9519 5.27071C31.1594 5.38639 31.4112 5.43409 31.519 5.69139C31.5322 5.76846 31.6936 5.80136 31.7916 5.83751C32.4594 6.12796 33.0597 6.53843 33.5599 7.0466C33.4329 7.09846 33.4022 6.91864 33.2909 6.94518C33.109 7.09704 33.2806 7.16597 33.3453 7.26446C33.44 7.21055 33.552 7.18768 33.5843 7.07265C34.0944 7.41779 34.5636 7.81374 34.9842 8.2539C35.107 8.36513 35.2162 8.49002 35.3416 8.61593C35.2847 8.64572 35.2386 8.69116 35.2094 8.74612C35.1802 8.80108 35.1693 8.86291 35.1782 8.92325C35.3127 9.03249 35.4236 8.86253 35.5696 8.8754C35.7156 8.88826 35.6279 9.07694 35.6388 9.09396C36.2892 9.58876 36.8073 10.2216 37.1526 10.9431C36.8372 10.944 36.9687 10.661 36.8183 10.6225C36.6679 10.5839 36.5737 10.6642 36.4301 10.6887C36.4087 10.759 36.4039 10.8327 36.4161 10.9044C36.4284 10.9761 36.4573 11.0441 36.5008 11.1034C36.7406 11.1983 37.012 11.1995 37.2564 11.1067C37.3754 11.201 37.4578 11.3302 37.4909 11.4746C37.4284 11.6703 37.3633 11.874 37.1265 11.9144C37.1495 12.0475 37.2015 12.1742 37.279 12.2864C37.3566 12.3986 37.4581 12.4939 37.5772 12.5664C37.3043 12.9339 36.9866 12.9919 36.3192 12.8262C36.2951 12.6979 36.2376 12.5779 36.1518 12.4771L36.3579 12.2569C36.3904 12.3008 36.436 12.3344 36.489 12.3536C36.542 12.3728 36.6001 12.3766 36.656 12.3647C36.7062 12.2844 36.828 12.2258 36.8133 12.0924C36.7406 12.0415 36.6496 12.0192 36.5589 12.03L36.3984 12.1896C36.3957 12.1624 36.3911 12.1354 36.3846 12.1089C36.109 12.1559 36.0314 11.9349 35.9288 11.7787C35.7816 11.8756 35.9281 12.0319 35.7893 12.1084L35.3562 12.2162C35.3813 12.363 35.1963 12.3795 35.2046 12.5216C35.2223 12.573 35.2602 12.6157 35.3105 12.6408C35.3609 12.6659 35.4199 12.6716 35.4753 12.6567C35.5235 12.588 35.5411 12.4566 35.6883 12.4768C35.8755 12.6375 36.1297 12.7226 36.2291 12.9775C36.4376 13.2003 36.7119 13.3585 37.0178 13.4322L37.2691 13.9218C37.3676 13.9843 37.495 13.8644 37.5711 14.0063L37.4034 14.2879C37.2781 14.323 37.1692 14.3992 37.0964 14.5026C37.2123 14.5962 37.0793 14.8001 37.2847 14.8104C37.248 15.0168 36.9342 14.957 36.9095 15.2105L37.0764 15.5333C37.1804 15.5892 37.3024 15.6087 37.4214 15.5884C37.5404 15.5681 37.649 15.5093 37.7286 15.4221C37.5312 15.248 37.6498 14.9597 37.4562 14.785C37.5117 14.6886 37.674 14.6798 37.6754 14.5474C37.6767 14.415 37.5275 14.4065 37.4665 14.33C37.718 14.3287 37.7626 14.0983 37.91 13.9787C37.935 14.1255 38.0447 14.1597 38.1898 14.0972L38.2343 14.3577L38.0253 14.28C37.882 14.3536 38.0003 14.5789 38.2946 14.7817L37.9635 14.925C38.2625 14.9685 38.3052 15.1953 38.4324 15.3323C38.5451 15.4074 38.5995 15.2811 38.6809 15.2899C38.7623 15.2987 38.764 15.4494 38.8699 15.4616C38.9667 15.3733 38.959 15.2576 38.9797 15.1445C39.1028 15.0933 39.1971 15.1074 39.2357 15.2406C39.3276 15.5686 39.4434 15.8963 39.5004 16.2302C39.6781 16.9758 39.8084 17.7317 39.8904 18.4938C39.9032 18.7333 39.9736 18.9819 39.9612 19.2371C39.6668 19.174 39.8783 19.5005 39.6952 19.5279C39.5121 19.5553 39.307 19.5941 39.2302 19.7998C39.2383 19.8475 39.2958 19.8566 39.3766 19.8617C39.1728 20.2363 39.6667 20.3447 39.652 20.6569C39.8034 20.6311 39.6951 20.4645 39.8181 20.436C40.058 20.6481 40.0697 20.7405 39.9332 21.4624L39.7587 21.4469C39.6715 21.3333 39.8371 21.1805 39.6911 21.0505C39.5719 21.1011 39.3855 21.0385 39.2795 21.2605C39.3382 21.394 39.4979 21.5102 39.4395 21.6599C39.5766 21.7612 39.6569 21.6228 39.7413 21.6727C39.8257 21.7225 39.8139 21.8642 39.8988 21.9404C39.7589 21.9869 39.7036 21.8264 39.5805 21.8776C39.4574 21.9288 39.3602 22.0851 39.4738 22.2357C39.4896 22.2662 39.5142 22.2917 39.5449 22.3093C39.5755 22.327 39.6109 22.3359 39.647 22.3353C39.6832 22.3347 39.7186 22.3244 39.7492 22.3057C39.7798 22.2869 39.8045 22.2605 39.8203 22.2294C39.8858 22.4391 39.8736 22.665 39.7856 22.8698C39.692 22.891 39.5945 22.8875 39.5038 22.8597C39.4131 22.8319 39.3327 22.7808 39.2714 22.712L39.0824 22.8689C38.8098 22.7228 38.5738 22.7215 38.4337 23.0475C38.4878 23.2006 38.6662 23.1929 38.74 23.2974C39.1013 23.0734 39.3919 23.2315 39.6713 23.4407C39.6761 23.6382 39.6435 23.8357 39.5749 24.0236C39.3418 23.7575 39.2091 23.4478 38.8296 23.3312C38.8347 23.4322 38.8745 23.5282 38.9431 23.6045C39.0117 23.6808 39.1052 23.7332 39.2093 23.7536C39.0943 23.9696 39.4427 24.0915 39.3056 24.3188C39.2241 24.3327 39.106 24.2962 39.085 24.2431C39.0658 24.1492 39.0185 24.0629 38.9488 23.9945C38.8791 23.9261 38.7899 23.8784 38.6916 23.857C38.6372 23.8663 38.6079 23.7882 38.6005 23.7215C38.5791 23.6194 38.5276 23.5257 38.452 23.4511C38.3763 23.3765 38.2797 23.324 38.1731 23.2996C37.9299 23.2089 37.9299 23.2089 37.9302 22.9294C37.958 22.9159 37.9886 22.9085 38.0196 22.9078C38.0506 22.9071 38.0813 22.9131 38.1092 22.9253L38.2833 23.0089L38.5407 22.7611C38.5031 22.5409 37.7683 22.7531 37.6802 23.0098C37.6638 23.0541 37.6649 23.0842 37.6151 23.0964C37.587 23.0139 37.5792 22.926 37.5921 22.8395C37.605 22.7529 37.6383 22.6698 37.6896 22.5965L37.0954 22.392C37.1706 22.5982 36.843 22.6918 36.9692 22.8931C37.0751 23.0223 37.1904 22.8554 37.2316 22.8861C37.3823 22.9964 37.3552 23.2125 37.5656 23.1577C37.5814 23.276 37.6458 23.3827 37.7448 23.4549C37.8438 23.527 37.9695 23.5588 38.0948 23.5433C38.1067 23.6131 38.1161 23.6681 38.0944 23.7285C38.1715 23.8059 38.278 23.7274 38.3875 23.7842C38.1498 23.9834 38.4735 24.1245 38.4388 24.3193C38.4041 24.514 38.3811 24.7068 38.3631 24.9062C38.4354 25.0488 38.5763 25.0549 38.6846 25.1044C38.7929 25.154 38.7688 25.294 38.8346 25.3281C38.9699 25.3957 39.0753 25.2871 39.199 25.3566C38.976 25.8063 38.9183 26.3109 38.6385 26.7551C38.5303 26.6829 38.6563 26.5783 38.5934 26.4909C38.4536 26.5147 38.3627 26.5906 38.3885 26.7184C38.5676 27.6282 37.8474 28.2307 37.5436 29.0264L37.4013 28.8241C37.2328 29.0077 37.065 29.1949 37.2531 29.431C35.7419 31.7645 33.6881 33.7447 31.2524 35.2164C31.1905 35.1461 31.1244 35.0792 31.0545 35.016C30.9786 34.9459 30.9502 34.8261 30.7821 34.8246C30.6942 34.9415 30.8284 35.0961 30.7127 35.2141L30.967 35.2764C30.9708 35.2984 30.9777 35.3388 30.9479 35.3514C30.6172 35.6306 30.2196 35.8282 29.7915 35.9263C29.6206 35.9554 29.601 36.1212 29.4586 36.153C29.3162 36.1848 29.3225 35.9874 29.1622 35.9845C29.0505 36.0791 28.8689 36.0685 28.7464 36.1234C28.6236 36.2463 28.7436 36.3882 28.5838 36.5288C28.3209 36.6806 28.0307 36.784 27.7289 36.8332C27.7551 36.5417 28.0709 36.3556 28.0261 36.0461C27.6417 36.1343 27.6779 36.1356 27.623 36.4698C27.6002 36.6172 27.4579 36.7434 27.5139 36.9076C27.1059 37.0897 26.681 37.2343 26.2452 37.3392C26.2415 37.1774 26.433 37.1523 26.41 36.9939C26.2982 36.9401 26.1714 36.9196 26.0459 36.9349C25.9204 36.9503 25.8018 37.0008 25.7056 37.08C25.7603 36.8856 26.0461 36.8746 26.0933 36.6362C26.0096 36.6008 25.9169 36.5879 25.8252 36.5989C25.7334 36.6099 25.6461 36.6443 25.5726 36.6986C25.707 36.8305 25.4126 37.0016 25.6465 37.1316L25.6915 37.3958C25.4954 37.4982 25.2837 37.57 25.0646 37.6085C24.8972 37.6106 24.92 37.4632 24.8141 37.4511L24.7015 37.5873C24.5465 37.6628 24.4473 37.5023 24.3432 37.5011C24.1336 37.5369 24.3307 37.6619 24.2481 37.7402C24.0013 37.8389 23.7575 37.8616 23.5919 37.6406C23.5588 37.4461 23.7525 37.481 23.788 37.3843C23.8234 37.2877 23.751 37.1678 23.6559 37.0783C23.5607 36.9888 23.7844 36.8713 23.6791 36.7458C23.6155 36.6773 23.5039 36.7492 23.4214 36.7104C23.4658 36.6557 23.4896 36.5885 23.4888 36.52C23.4881 36.4515 23.4627 36.3858 23.417 36.3335C23.3062 36.2693 23.2071 36.2975 23.0754 36.3918C23.1583 36.5672 23.208 36.7555 23.2222 36.9483C23.1695 36.8969 23.1328 36.8691 23.0994 36.8371C23.0659 36.805 23.0374 37.2933 23.0405 37.3116C23.1085 37.4058 23.3083 37.383 23.315 37.5858L23.0165 37.8973C22.2399 37.9869 21.4586 38.0242 20.6785 38.009C20.2778 38.0018 19.8746 37.9799 19.505 37.9447C19.3898 37.9526 19.2746 37.9388 19.1658 37.9042C19.0571 37.8696 18.9571 37.8148 18.8714 37.7431C18.6809 37.8241 18.4663 37.8333 18.2717 37.7688C18.0772 37.7043 17.9175 37.5711 17.8255 37.3965C17.9265 37.2622 18.004 37.5058 18.1028 37.4059C18.2016 37.3059 18.1628 37.3126 18.0196 36.9178C18.0077 36.8481 18.0705 36.8185 18.1154 36.7768C18.1532 36.7348 18.1856 36.6887 18.2118 36.6395C18.16 36.5464 18.0602 36.5936 17.9841 36.5462C17.9081 36.4987 18.0867 36.3512 17.9391 36.282C17.7805 36.3402 17.6411 36.4384 17.5361 36.5659L17.8221 37.095C17.6733 37.2507 17.568 37.4388 17.5158 37.6419C17.4048 37.6396 17.2972 37.6083 17.2048 37.5515C17.2263 37.4462 17.2205 37.338 17.1878 37.2363C17.1552 37.1345 17.0966 37.0424 17.0174 36.9678C16.7961 37.1226 16.9819 37.2987 17.0009 37.4805C16.7719 37.5195 16.5599 37.5179 16.4693 37.2917C16.3788 37.0654 16.2447 37.1223 16.0651 37.1L15.9711 37.2747L14.5211 36.8308C14.3173 36.6428 14.4101 36.3437 14.1671 36.2076C14.0407 36.2858 14.0805 36.449 13.9518 36.5616C13.4935 36.4175 13.0513 36.2324 12.6311 36.0088C12.6424 35.9243 12.6291 35.839 12.5927 35.762C12.5563 35.685 12.4983 35.6193 12.4248 35.5719C12.2892 35.5497 12.2535 35.6918 12.155 35.7237C8.85338 33.9741 6.24169 31.2659 4.69577 27.9886C4.92557 27.8135 5.23076 27.6821 5.24445 27.3173C5.22755 27.2182 5.07354 27.0178 5.15858 26.9543C5.34493 26.8054 5.08724 26.5359 5.37539 26.4452C5.49786 26.5074 5.41356 26.6691 5.53014 26.7436C5.65726 26.6691 5.6445 26.524 5.69748 26.4129C5.71187 26.4974 5.82006 26.5695 5.70572 26.6721C5.65374 26.7188 5.74077 26.7606 5.76444 26.8056C5.45673 27.0394 5.45736 27.043 5.76263 27.3573L5.91368 27.0483L5.83143 26.8471C5.91684 26.8325 6.01389 26.816 6.07651 26.7146C6.05398 26.6347 6.01273 26.5609 5.9558 26.4988C5.89887 26.4366 5.82772 26.3876 5.74757 26.3553C5.72567 26.2269 5.86731 26.097 5.7277 25.981C5.60435 25.9605 5.5828 26.1153 5.47798 26.1332C5.3743 26.1657 5.28303 26.2273 5.21649 26.3099C5.06947 26.3614 4.94739 26.2312 4.79198 26.2803L4.63491 26.6244C4.54174 26.6402 4.4775 26.5681 4.41589 26.6051C4.35427 26.642 4.38231 26.8298 4.21939 26.8349C4.10882 26.7254 4.17746 26.5891 4.1801 26.464C4.1801 26.464 4.1801 26.464 4.17572 26.4383C3.64506 25.8566 3.64664 25.1161 3.44871 24.4474C3.27317 23.7694 3.16305 23.0765 3.11969 22.3773C2.75366 18.6649 3.66436 14.9173 5.71614 11.6926C5.84201 11.4937 5.91516 11.2433 6.19681 11.1613C6.26454 11.3008 6.37725 11.2589 6.46166 11.1916C6.55011 11.1031 6.63005 11.0073 6.70049 10.9054L6.5644 10.6227C7.0221 9.8412 7.59911 9.12672 8.27632 8.50298C8.49546 8.61668 8.37235 8.66788 8.31637 8.73785C8.36018 8.99474 8.59936 8.99172 8.77091 9.06065C8.80173 9.10606 8.81238 9.16143 8.80061 9.21494C8.78884 9.26845 8.75557 9.31587 8.7079 9.34708L8.31032 9.12409C8.31719 9.3986 8.43903 9.45713 8.65517 9.41272ZM29.0239 6.16975C28.9314 6.16663 28.918 6.252 28.8693 6.2943C28.8202 6.28953 28.7704 6.29493 28.7234 6.31013C28.6763 6.32532 28.6331 6.34996 28.5967 6.38233L28.5271 6.7945C28.6043 6.90853 28.7202 6.99387 28.8561 7.03675C28.9858 6.9542 29.2537 7.0256 29.2357 6.77942C29.1802 6.64159 29.0455 6.81185 28.9944 6.69972L29.0254 6.57735C29.3052 6.36725 29.3052 6.36725 29.1354 6.09785L29.0239 6.16975ZM16.5214 36.6597C16.5095 36.6332 16.509 36.6031 16.52 36.5759C16.531 36.5487 16.5526 36.5263 16.5804 36.5136C16.6854 36.4504 16.6037 36.3926 16.5704 36.3379C16.6335 36.1458 16.8311 36.063 16.9482 35.9298C16.9528 35.7467 16.9218 35.5651 16.8568 35.394C16.752 35.4118 16.6423 35.3777 16.5429 35.4739C16.4435 35.5702 16.5354 35.6641 16.4365 35.764C16.2594 35.662 16.1842 35.807 16.064 35.9219C16.1749 36.0805 16.1926 36.2777 16.4112 36.365C16.3549 36.472 16.331 36.5911 16.342 36.7091L16.4797 36.7196C16.5455 36.8481 16.2913 36.8802 16.3803 37.0274C16.437 37.059 16.5041 37.0702 16.5695 37.059C16.6349 37.0478 16.6945 37.015 16.7375 36.9665C16.7276 36.903 16.7031 36.8427 16.6658 36.7897C16.6284 36.7367 16.5791 36.6923 16.5214 36.6597V36.6597ZM37.7551 18.7635C37.6887 19.077 38.005 18.9173 38.0754 19.0488C38.1657 18.9692 38.2158 18.9116 38.1879 18.8181C38.0811 18.7379 37.9465 18.6977 37.8091 18.7052C37.7851 18.5037 37.7314 18.307 37.6495 18.1207C37.4839 18.485 37.4997 18.5541 37.7551 18.7635ZM34.2079 32.4239C34.2595 32.3282 34.3942 32.3921 34.4719 32.2618C34.3329 32.1495 34.4175 31.9425 34.3287 31.7499C34.206 31.9427 34.1412 32.1628 34.1415 32.3861C34.106 32.4275 34.08 32.4755 34.0654 32.5269C34.0507 32.5782 34.0477 32.6317 34.0565 32.6838C34.2025 32.6967 34.3156 32.7039 34.3873 32.5859L34.2079 32.4239ZM15.794 5.38188L16.0096 5.19404C15.8319 5.06573 16.0924 4.83626 15.8824 4.7059C15.8522 4.70713 15.8221 4.71225 15.7932 4.72112C15.7674 4.73701 15.7451 4.7575 15.7275 4.78141C15.467 4.44819 15.4096 4.41643 15.0677 4.63712C15.0289 4.64374 14.9828 4.67803 15.02 4.73212C15.2308 4.87974 15.4902 4.95289 15.7544 4.93921C15.6744 5.03217 15.7647 5.18672 15.6169 5.25723C15.4691 5.32775 15.3602 5.27457 15.2819 5.40122L15.3101 5.56636C15.4318 5.64757 15.5741 5.52134 15.6834 5.62355C15.7221 5.59542 15.7527 5.55835 15.7721 5.51599C15.7915 5.47362 15.799 5.42741 15.794 5.38188V5.38188ZM10.5884 7.48938C10.5771 7.42332 10.5639 7.34625 10.3861 7.35769C10.3356 7.48337 10.166 7.54252 10.0075 7.66773L10.2527 7.74677C10.3693 7.70422 10.3947 7.54883 10.5389 7.55068C10.6723 7.84138 10.9465 7.59825 11.1139 7.71321C11.1628 7.53116 10.8576 7.54543 10.9776 7.35881L10.6565 7.3267L10.5884 7.48938ZM35.5724 10.4384C35.6245 10.6032 35.6001 10.8113 35.9685 10.8165C35.8276 10.6932 35.9026 10.5709 35.8671 10.4561C35.8392 10.421 35.8013 10.3942 35.7577 10.3789C35.7141 10.3636 35.6666 10.3604 35.6207 10.3697C35.663 10.3134 35.7652 10.3036 35.7671 10.1975C35.7689 10.0914 35.5353 10.0331 35.4617 9.90591C35.5784 9.84069 35.7215 9.78984 35.6424 9.60696C35.6002 9.5892 35.5543 9.58037 35.5078 9.58107C35.4613 9.58178 35.4154 9.59201 35.3731 9.61105C35.3308 9.6301 35.2932 9.65752 35.2628 9.69143C35.2325 9.72533 35.2101 9.76493 35.1972 9.8075C35.2241 9.9653 35.4174 10.0683 35.3795 10.2674C35.3596 10.3614 35.4899 10.3996 35.5724 10.4384ZM21.9591 37.4129C22.1378 37.4769 22.0217 37.7799 22.3086 37.799C22.2717 37.5825 22.2786 37.3887 22.0041 37.3486L21.924 36.8789C21.919 36.8495 22.0599 36.8557 22.0481 36.7633C21.9503 36.6818 21.8696 36.5596 21.6674 36.6394C21.7106 36.8926 21.4991 37.1515 21.6101 37.4045C21.7233 37.4353 21.8434 37.4382 21.9591 37.4129V37.4129ZM36.4785 14.0415C36.4272 13.9748 36.357 13.915 36.3652 13.8456C36.4009 13.7036 36.5771 13.7528 36.5997 13.6281C36.4976 13.5609 36.3715 13.5338 36.2472 13.5523C36.2058 13.801 35.8934 13.8203 35.6615 14.0298C35.9987 14.0629 36.2459 14.2474 36.5358 14.0733L36.7693 14.177C36.8265 14.1313 36.8705 14.0726 36.897 14.0065C36.9236 13.9404 36.9317 13.8693 36.9207 13.8C36.7524 13.8438 36.5067 13.7384 36.4785 14.0415ZM32.1288 31.6643L32.1998 31.9166L32.7304 31.9356C32.6432 31.7896 32.6139 31.6179 32.6478 31.4512C32.6771 31.3828 32.6783 31.3069 32.6511 31.2387C32.6239 31.1705 32.5704 31.115 32.5012 31.0834C32.4541 31.065 32.4095 31.0613 32.3386 31.1376C32.2678 31.2139 32.4873 31.2595 32.3136 31.342C32.1469 31.2225 31.9623 31.1267 31.7657 31.0578C32.2428 30.5988 32.7198 30.1398 33.153 29.6581C33.2715 29.7436 33.3663 29.7841 33.4433 29.6501C33.5898 29.6893 33.7446 29.6365 33.8883 29.7064C33.915 29.5583 33.8941 29.4826 33.7592 29.4414C33.6244 29.4002 33.4797 29.4891 33.3861 29.5957C33.2433 29.4614 33.4009 29.3779 33.4679 29.3023C33.9596 28.7188 34.4074 28.1035 34.8078 27.4612C35.0713 27.0386 35.2982 26.5883 35.5191 26.1503C35.6114 26.1761 35.5881 26.2971 35.7607 26.3017C35.496 25.7804 35.8409 25.3665 36.0079 24.8698C36.0379 25.0459 36.1946 25.1212 36.186 25.2586C36.1775 25.396 36.0525 25.4362 36.0776 25.583C36.1769 25.6265 36.1547 25.7776 36.27 25.8447C36.4735 25.6325 36.3411 25.3946 36.3392 25.1494C36.4082 25.0813 36.4617 25.0007 36.4962 24.9125C36.5308 24.8243 36.5457 24.7306 36.54 24.6373C36.5342 24.5441 36.508 24.4534 36.4629 24.371C36.4178 24.2886 36.3549 24.2164 36.2782 24.159C36.2917 23.8872 36.4021 23.626 36.5913 23.4183C36.5291 23.2879 36.5045 23.1436 36.52 22.9999C36.6116 22.5765 36.6747 22.1503 36.7501 21.7258C36.8577 21.9114 36.8667 22.1515 37.1018 22.2889C37.2197 22.1556 37.3781 22.0599 37.5546 22.0153C37.5389 21.9236 37.4555 21.9265 37.4196 21.8797C37.3989 21.7586 37.5616 21.6818 37.5125 21.558C37.4444 21.3694 37.2611 21.4423 37.1248 21.4164C37.1471 21.3597 37.1966 21.2984 37.1017 21.2806C36.7817 21.2785 36.8488 21.5314 36.7723 21.6918C36.7405 21.4394 36.7494 21.1833 36.7985 20.932C36.849 20.4749 36.8628 20.0156 36.8399 19.5578C36.799 18.8573 36.6979 18.1622 36.5374 17.4795L36.9768 17.1515C36.8498 16.9919 36.6446 17.0306 36.5159 16.9317C36.3722 16.7448 36.5892 16.5416 36.4858 16.31L36.2915 16.4828C36.254 16.2626 36.1582 16.0524 36.1019 15.8392C35.9905 15.4201 35.6888 15.0335 35.8311 14.556C35.8635 14.441 35.7281 14.3734 35.6413 14.2863L35.5583 14.4553C35.2427 13.7904 34.8808 13.1469 34.4748 12.5289C34.4547 12.4115 34.6164 12.399 34.5451 12.3092C34.4739 12.2194 34.379 12.3187 34.3323 12.2322C34.2856 12.1458 34.4198 12.0662 34.2916 11.9937C34.0796 12.1092 34.0244 11.926 33.9422 11.8191C32.497 9.94388 30.5956 8.42995 28.3951 7.40237C28.2235 7.33388 28.0699 7.23136 27.9443 7.10159C27.9692 6.91984 28.226 6.9025 28.2431 6.72208L27.9561 6.49155C28.0126 6.44793 28.0921 6.4457 28.0648 6.35594L27.8407 6.32997C27.8767 6.2566 27.8942 6.17653 27.8916 6.09626C27.889 6.01599 27.8665 5.93778 27.8258 5.86799C27.7056 5.74875 27.4899 5.72512 27.4503 5.51661C27.2454 5.59613 27.0649 5.72453 26.9266 5.88915C27.2476 6.15541 27.1993 6.59796 27.4697 6.8955C27.5154 6.81218 27.5819 6.7102 27.6789 6.83341C27.3338 7.15282 27.0488 6.79355 26.7167 6.7671C26.6955 6.64233 26.7563 6.50732 26.6617 6.44416C26.3976 6.39478 26.1903 6.58496 25.945 6.5286C25.4076 6.37861 24.8603 6.26005 24.3064 6.17356C24.2593 6.17186 24.2147 6.15445 24.1803 6.12439C24.146 6.09433 24.1241 6.05354 24.1186 6.00921C24.1243 5.92516 24.0383 5.91338 23.9908 5.86862C23.9983 5.79558 23.9371 5.76448 23.8934 5.71906C24.2778 5.63084 24.2359 5.38497 24.1268 5.12032L24.3366 5.06189C24.1786 4.76783 24.5747 4.67763 24.6303 4.44155C24.4014 4.34086 24.2346 4.46371 24.0363 4.54284C23.9521 4.47035 24.0001 4.32999 23.8666 4.27344C23.6818 4.47866 23.4225 4.26986 23.1833 4.38995C23.2611 4.58818 23.1169 4.7034 22.9625 4.80526C23.0525 4.8881 23.1726 4.91294 23.1894 5.0347C23.2062 5.15647 22.9681 5.07244 22.9795 5.23289C23.1555 5.18889 23.3413 5.21139 23.4976 5.29561C23.6872 5.14243 23.5048 4.91671 23.7137 4.7829C23.837 4.7343 23.9695 4.71171 24.1019 4.7167L24.1345 4.90753L23.7946 4.99948C23.8353 5.23801 24.0118 5.45338 23.8366 5.69097C23.7629 5.70355 23.6581 5.72142 23.6267 5.77208C23.5506 5.88405 23.439 5.97049 23.3084 6.01861C23.1777 6.06674 23.035 6.07399 22.9013 6.0393C22.6054 6.01422 22.3073 6.02351 22.0082 6.00277C21.3698 5.96057 20.7253 6.07046 20.0803 6.0596L20.2157 5.65886C19.8907 5.57037 19.5599 5.50066 19.2253 5.45009C19.2334 5.56834 19.2662 5.68344 19.3219 5.78871C19.3776 5.89397 19.455 5.98729 19.5496 6.06324C19.4329 6.24554 19.2565 6.21896 19.1084 6.24044C18.3257 6.36023 17.5555 6.551 16.8086 6.81012C16.2619 7.00152 15.7083 7.17524 15.1757 7.40201C15.026 7.46152 14.9624 7.39306 14.8333 7.3622C14.8069 7.58198 14.6363 7.68282 14.4528 7.7783C13.5482 8.23987 12.6952 8.7891 11.9078 9.417C11.7987 9.50358 11.6307 9.50202 11.5699 9.61435C11.4432 9.855 11.195 9.96908 11.033 10.144C10.9049 10.1658 10.8699 9.96031 10.729 10.0712C10.5881 10.1821 10.8617 10.2638 10.7335 10.4254C10.6052 10.587 10.4663 10.6862 10.3219 10.8468C9.87468 11.3116 9.45212 11.797 9.05588 12.3014C8.3675 13.3191 7.74712 14.3759 7.19847 15.4656C7.16778 15.52 7.11318 15.5746 7.11806 15.6266C7.1507 16.0289 6.89283 16.3675 6.81766 16.7466C6.79087 16.9377 6.69369 17.1148 6.54337 17.2466C6.48425 17.2982 6.37066 17.3818 6.38155 17.5159L6.5472 17.7142C6.47566 18.1381 6.39635 18.5632 6.3377 18.9924C6.17423 20.2729 6.19568 21.5652 6.40146 22.8336C6.43993 22.9472 6.45032 23.0681 6.43184 23.1872C6.41336 23.3062 6.36649 23.4201 6.29483 23.5202C6.26815 23.5512 6.31298 23.6267 6.31923 23.6634C6.39699 23.7445 6.44459 23.6722 6.49956 23.6666C6.51896 23.7804 6.66597 23.8459 6.61599 23.998C6.40273 23.989 6.50427 24.2096 6.37966 24.2988C6.25505 24.3881 6.45353 24.4977 6.43285 24.6108C6.64085 24.6357 6.88629 24.6694 6.88364 24.9116C6.89542 25.1437 6.84731 25.3762 6.74345 25.5888C6.78399 25.6749 6.84226 25.7523 6.9149 25.8164C6.98754 25.8805 7.07311 25.93 7.16668 25.9623C7.10418 26.0409 7.03681 26.0675 7.04419 26.1342C7.11518 26.2694 7.26997 26.2166 7.38793 26.2758C7.51576 26.5334 7.63445 26.8077 7.78232 27.0658C7.89625 27.2654 7.9889 27.4573 7.8326 27.6652C7.88281 27.702 7.90786 27.7317 7.93177 27.7314C8.00038 27.7329 8.0691 27.7275 8.13677 27.7153C9.56203 30.119 11.6858 32.0763 14.2607 33.3593C14.1834 33.5386 14.0268 33.6975 14.3339 33.7886L14.6004 33.5242C15.2796 33.8193 15.976 34.0788 16.6865 34.3014C16.5966 34.43 16.5351 34.5614 16.6478 34.6365C16.8365 34.7592 16.8346 34.9823 16.9236 35.1296C17.1023 35.0764 17.0739 34.9566 17.081 34.8346C17.0912 34.7036 17.1131 34.5736 17.1466 34.4457C17.4005 34.4591 17.5811 34.6511 17.8322 34.6007C17.8558 34.5999 17.8792 34.6036 17.9011 34.6115C17.923 34.6195 17.9429 34.6315 17.9597 34.647C17.9765 34.6624 17.9898 34.6809 17.9988 34.7014C18.0078 34.7219 18.0124 34.744 18.0122 34.7664C17.9998 34.9045 18.1413 34.9144 18.2023 34.9908C18.1245 35.0267 18.0077 34.9976 17.9838 35.1149C18.0826 35.2492 18.1989 35.252 18.3411 35.1484L18.2654 35.0329C18.4496 34.9184 18.151 34.807 18.2738 34.684C18.4876 34.7193 18.7105 34.738 18.9196 34.793C19.2103 34.883 19.5175 34.9191 19.8246 34.8992C19.9181 34.8804 20.0149 34.8906 20.1005 34.9284C20.1862 34.9662 20.2561 35.0296 20.2999 35.109C20.4614 35.1192 20.4947 34.9398 20.6161 34.972C21.0343 35.0819 21.4392 34.926 21.8573 34.9416C22.3755 34.9503 22.8941 34.9024 23.403 34.7989C23.7912 34.7327 24.1406 34.6731 24.5404 34.6049L24.4841 35.0941L24.8477 35.2587C24.8545 35.0876 25.0297 35.0842 25.1058 34.9919C25.1761 34.7948 25.0539 34.6873 24.8807 34.562C25.2756 34.4356 25.6805 34.3413 26.091 34.2801C25.8553 34.4675 25.8945 34.7441 25.4895 34.8056C26.1679 34.8712 26.1679 34.8712 26.384 34.7097C26.4117 34.6144 26.3067 34.5605 26.3033 34.4705C26.2999 34.3804 26.2443 34.2652 26.3198 34.1693C26.991 33.9113 26.991 33.9113 27.3917 33.9185C27.3848 33.8782 27.3735 33.8121 27.3956 33.8008C27.963 33.4737 28.5841 33.2507 29.1471 32.9205C29.2519 32.9027 29.2676 33.0888 29.413 32.9809C29.4325 32.7435 29.6342 32.6147 29.847 32.4802C30.0501 32.369 30.2452 32.2449 30.4308 32.1087C30.8433 31.7627 31.2891 31.4488 31.7227 31.1331C31.7533 31.2687 31.7569 31.409 31.7333 31.5467C31.8672 31.6296 31.9596 31.7498 32.1288 31.6643ZM38.6478 21.8667C38.9885 21.5216 38.5521 21.3052 38.529 21.0297L38.7993 20.7872C38.7238 20.6586 38.6777 20.516 38.664 20.3684C38.7139 20.3335 38.7834 20.3896 38.8441 20.2999C38.6837 20.0856 38.9042 19.7157 38.479 19.4709C38.596 19.806 38.2786 19.8186 38.2084 19.9929C38.1383 20.1673 38.372 20.3427 38.3385 20.5448C38.3218 20.7389 38.319 20.9337 38.33 21.1278C38.1942 21.151 38.2346 20.9666 38.0943 20.9867L38.0792 21.3669C38.1437 21.5108 38.2337 21.4766 38.3073 21.4867L38.2382 21.8308L38.6478 21.8667ZM31.7046 8.56012C31.6844 8.68882 31.7176 8.81902 31.7972 8.92315C31.8768 9.02727 31.9967 9.09717 32.1313 9.11804C32.2434 8.72127 31.9708 8.01246 31.8277 7.59501C31.7304 7.68217 31.6075 7.73888 31.476 7.75724C31.3445 7.77561 31.211 7.7547 31.0941 7.69744C30.9637 7.65924 30.8841 7.68416 30.8594 7.82054C30.9514 7.89171 31.1227 7.88893 31.131 8.03103C31.1517 8.3636 31.3981 8.47266 31.7046 8.56012ZM38.5415 16.6279C38.1881 16.5937 38.0442 16.3124 37.7777 16.3427C37.7565 16.2179 37.7764 16.1239 37.6682 16.0517L37.4065 16.2738C37.4377 16.4573 37.3625 16.625 37.5035 16.7256L37.303 16.9788L37.5743 17.0005C37.8867 17.1927 37.5376 17.4411 37.6989 17.6137C37.784 17.6445 37.792 17.5978 37.8207 17.5552C37.8494 17.5125 37.847 17.7093 37.9895 17.6548C37.9497 17.2575 38.3066 17.0078 38.5415 16.6279ZM15.6696 35.0148C15.4978 34.9525 15.3118 34.9311 15.1276 34.9524C15.1049 35.0771 14.9663 35.131 14.8843 35.2356C14.9043 35.353 14.8933 35.4758 14.9653 35.5466C15.0373 35.6174 15.1971 35.4768 15.3005 35.5914C15.4039 35.7059 15.2852 35.7828 15.3474 35.8666C15.6839 36.0358 15.6051 35.5734 15.8416 35.5784C15.8316 35.5197 15.8216 35.461 15.8122 35.4059C15.8028 35.3509 15.7865 35.2555 15.8276 35.1918C16.1845 34.9421 16.1289 34.9441 15.8803 34.5635C15.7664 34.6924 15.7771 34.8719 15.6696 35.0148ZM6.05357 28.2669C6.04238 28.3178 6.04244 28.3701 6.05374 28.4205C6.06504 28.471 6.08733 28.5184 6.1192 28.5599C6.15107 28.6013 6.19182 28.6359 6.23886 28.6613C6.28589 28.6868 6.33818 28.7025 6.3924 28.7077C6.57738 28.4571 6.84301 28.2343 6.74486 27.8696C6.62452 27.8901 6.55288 27.9854 6.42052 27.9589C6.40299 27.8561 6.38172 27.7314 6.23721 27.6805C6.10134 27.7036 5.94206 27.6364 5.81018 27.7533C5.7393 27.8863 5.69342 28.0296 5.67465 28.1767C5.78826 28.2414 5.91999 28.2728 6.05357 28.2669V28.2669ZM31.2362 33.0364C31.3829 33.1227 31.4927 33.255 31.547 33.411C31.6012 33.5669 31.5966 33.7368 31.5339 33.892C31.6067 33.9839 31.7075 34.0523 31.8231 34.0881C31.9056 34.0099 32.0504 34.0154 32.1058 33.9191C32.046 33.7555 31.8608 33.8173 31.7903 33.7085C31.7799 33.4837 32.0535 33.4484 32.1159 33.2753C32.1783 33.1023 32.03 32.9123 32.0127 32.6698C31.8966 32.7387 31.8209 32.6232 31.737 32.7168C31.6531 32.8104 31.8124 32.9948 31.6291 33.0676C31.5009 33.0894 31.506 32.8846 31.3662 32.9084C31.3075 32.892 31.2717 32.9397 31.2381 33.0474L31.2362 33.0364ZM32.958 8.67117C33.1208 8.57166 32.9961 8.44941 33.1014 8.34082C33.1623 8.33898 33.2223 8.32498 33.2775 8.29973C33.3328 8.27449 33.382 8.23857 33.4219 8.19433C33.4619 8.15008 33.4917 8.09851 33.5095 8.04298C33.5272 7.98745 33.5324 7.92921 33.5248 7.87208C33.1648 7.86927 33.1979 7.384 32.8381 7.33583C32.7542 7.6636 32.7736 7.66029 32.8187 7.80744C32.8245 7.85389 32.8459 7.89708 32.8796 7.93073C32.9134 7.96437 32.9578 7.98671 33.0064 7.99447C33.1117 8.35417 32.6924 8.30859 32.5995 8.51327C32.6717 8.65579 32.8308 8.65133 32.958 8.67117ZM33.1335 9.53628C33.1889 9.65422 33.2825 9.7519 33.4008 9.81548C33.5163 9.85999 33.6925 9.79218 33.7348 9.97002C33.7771 10.1479 33.9271 10.1374 34.0919 10.1433C34.3513 9.53255 33.7725 9.46508 33.4824 9.21621C33.3273 9.27633 33.202 9.39122 33.1335 9.53628V9.53628ZM20.973 35.402C20.8139 35.4292 20.6942 35.3363 20.5792 35.4352C21.0133 35.8257 21.3173 36.2497 21.1092 36.8328C21.1689 36.9019 21.2151 36.962 21.3121 36.9455C21.3999 36.8763 21.4722 36.7912 21.5245 36.6952C21.5768 36.5993 21.6081 36.4946 21.6165 36.3875C21.2095 36.3436 21.3557 35.9826 21.229 35.7549C21.1105 35.6694 20.8662 35.6657 20.9718 35.3947L20.973 35.402ZM34.9878 28.4464C34.8866 28.7431 34.8866 28.7431 35.0078 28.915C34.9893 28.9937 34.869 28.9916 34.8672 29.0976C34.9683 29.1521 35.04 29.291 35.2025 29.2368C35.3651 29.1827 35.1693 29.0423 35.2293 28.949C35.2893 28.8557 35.5865 28.8881 35.6252 28.67C35.4409 28.5385 35.2197 28.4609 34.9878 28.4464V28.4464ZM30.5479 34.0601C30.3358 33.847 30.2715 33.5407 29.949 33.4296L30.1628 33.1137C29.7885 33.1208 29.8058 33.3634 29.744 33.5627C30.0465 33.6735 30.0587 34.1435 30.5479 34.0601ZM8.52958 32.0102C8.62861 31.9396 8.69716 31.8372 8.72193 31.7227C8.74669 31.6082 8.72592 31.4899 8.66363 31.3907C8.5731 31.2815 8.51138 31.107 8.3253 31.0934C8.27762 31.1036 8.23202 31.1216 8.19055 31.1466C8.25753 31.3051 8.39765 31.4474 8.24022 31.6253C8.37533 31.7382 8.53787 31.8011 8.52958 32.0102ZM33.8826 8.04899C33.7719 8.31335 33.7464 8.58582 33.4804 8.75958C33.6206 8.76373 33.7543 8.81282 33.8597 8.89883C34.2602 8.60017 34.2577 8.58549 33.8801 8.03431L33.8826 8.04899ZM39.8927 18.9995C39.7872 18.9796 39.6893 18.9344 39.6081 18.8683C39.527 18.8022 39.4653 18.7174 39.4288 18.6216C39.1998 18.7551 39.4375 18.9072 39.34 19.0144L39.1069 18.9598L39.0468 19.3099C39.1442 19.3424 39.1881 19.4595 39.3072 19.4317C39.4263 19.4038 39.2834 19.2922 39.3453 19.2099C39.5576 19.2832 39.7006 19.138 39.8927 18.9995ZM24.7705 3.88138C25.1806 3.94363 25.1242 4.19871 25.0776 4.44081C25.1689 4.53098 25.2351 4.59144 25.3693 4.53458C25.5034 4.47772 25.4365 4.29652 25.5064 4.16753C25.195 4.14511 25.2218 3.74022 24.9078 3.7258L24.7705 3.88138ZM38.007 19.3739C37.8188 19.3653 37.6406 19.2957 37.502 19.1768C37.4863 19.3192 37.4715 19.4199 37.4645 19.5193C37.4397 19.7954 37.6263 19.9525 37.8299 19.8346C37.8956 19.7517 37.7325 19.6851 37.8144 19.6031C37.8229 19.4657 38.0085 19.57 38.0051 19.3629L38.007 19.3739ZM35.1046 11.5605C35.1297 11.4731 34.9624 11.4526 35.0178 11.3562C35.0756 11.32 35.1467 11.3154 35.1719 11.2054L35.1292 10.7443C34.8745 10.8671 35.1048 11.0695 34.9729 11.1864C34.8797 11.2023 34.7508 11.1488 34.716 11.3435C34.8612 11.3981 34.7636 11.6224 34.9067 11.6886C34.9491 11.6902 34.9911 11.679 35.0267 11.6566C35.0624 11.6343 35.0899 11.6019 35.1052 11.5642L35.1046 11.5605ZM38.9066 17.4569C38.7785 17.4787 38.6526 17.4435 38.6304 17.5946C38.6188 17.713 38.6326 17.8319 38.6709 17.9441C38.7093 18.0564 38.7715 18.1596 38.8536 18.2477C39.0518 17.9571 38.8825 17.714 38.9033 17.4612L38.9066 17.4569ZM25.0095 36.1375C24.8238 36.29 24.6082 36.1266 24.4195 36.2381C24.3988 36.3511 24.5606 36.316 24.5413 36.4137L24.3485 36.5485C24.3951 36.5894 24.4518 36.6187 24.5135 36.6339C24.5753 36.649 24.6403 36.6495 24.7029 36.6354C24.8461 36.495 24.9514 36.324 25.0095 36.1375V36.1375ZM38.939 16.5223C39.0915 16.4095 39.4027 16.5943 39.3904 16.2414C39.2181 16.1643 39.0585 16.0643 38.9163 15.9446C38.8499 16.1348 38.858 16.34 38.939 16.5223V16.5223ZM4.40785 18.8268C4.24092 18.8552 4.28761 19.0588 4.09664 19.1102C4.01123 19.1248 3.80926 18.9477 3.71844 19.2351C3.83654 19.2689 3.96116 19.2792 4.08456 19.2653C4.20796 19.2514 4.3275 19.2136 4.43575 19.1544C4.61007 19.0755 4.62837 18.9251 4.40785 18.8268ZM36.0956 14.8886C36.1257 14.9937 36.1983 15.0827 36.2978 15.1364C36.3974 15.19 36.5159 15.204 36.6279 15.1754C36.5232 15.0443 36.4778 14.8785 36.5012 14.7137C36.2952 14.677 36.2067 14.7903 36.0956 14.8886ZM27.8743 34.7577C28.1118 34.6039 28.1117 34.3924 28.1762 34.1851C27.772 34.2276 27.6903 34.3812 27.8743 34.7577ZM36.5645 27.1503C36.3792 27.0006 36.2574 26.825 36.0367 26.7493C36.0042 26.7654 35.9763 26.7888 35.9553 26.8174C35.9344 26.846 35.9212 26.8789 35.9169 26.9133C36.1226 26.9953 36.1689 27.3839 36.5723 27.149L36.5645 27.1503ZM4.70172 23.2443C5.03443 23.3915 5.03443 23.3915 5.27312 23.3621C5.12386 23.2365 5.27654 22.9839 4.98552 22.8938C4.92031 23.0293 4.82318 23.1493 4.70172 23.2443V23.2443ZM5.53318 25.0512C5.50412 25.1619 5.4028 25.2472 5.49596 25.3483C5.83783 25.3618 5.83783 25.3618 5.94931 25.0784C5.83624 24.9542 5.70024 25.0001 5.53318 25.0512V25.0512ZM35.8097 29.0729C35.9767 29.0444 36.1123 28.9495 36.2959 29.0655C36.2615 28.8636 36.3817 28.7487 36.3781 28.587C36.0238 28.5945 35.9794 28.8966 35.8097 29.0729ZM6.6494 25.6464C6.61686 25.4556 6.44154 25.4817 6.35877 25.3712L6.28311 25.6069C6.20358 25.7262 5.92122 25.476 5.95037 25.8109C6.19192 25.8019 6.42986 25.7459 6.6494 25.6464V25.6464ZM14.2504 35.0793C14.1107 35.4317 14.1171 35.4457 14.5141 35.548C14.6124 35.3046 14.4281 35.2077 14.2349 35.082L14.2504 35.0793ZM22.8378 4.44887C22.9147 4.33757 23.0126 4.27933 23.0081 4.15924C22.8556 4.15504 22.8658 3.95693 22.7186 3.91404C22.5669 4.12498 22.597 4.27845 22.8378 4.44887ZM36.3627 26.7164C36.5875 26.629 36.6893 27.0384 36.9419 26.8329C36.7002 26.47 36.6963 26.4707 36.3627 26.7164ZM5.17238 14.5951C5.29636 14.5022 5.20396 14.382 5.26069 14.293C5.31743 14.204 5.55259 14.3414 5.51004 14.0919C5.35012 14.138 5.18508 14.0604 4.99773 14.1566C5.05833 14.3011 5.10991 14.4396 5.17238 14.5951ZM5.19367 23.927C5.16676 23.7692 5.28775 23.6353 5.2264 23.5098C5.09929 23.4673 5.0184 23.4849 4.95853 23.5555C4.95501 23.7223 4.95161 23.8664 5.19367 23.927ZM35.398 13.4214L35.7513 13.5726C35.8532 13.5137 35.9503 13.4745 35.9808 13.3484C35.7878 13.2945 35.6054 13.2085 35.398 13.4214ZM18.4433 3.93311C18.2235 4.04989 18.3369 4.22315 18.298 4.36952C18.424 4.38203 18.4957 4.38112 18.5402 4.29046C18.554 4.22732 18.5524 4.1623 18.5356 4.10036C18.5188 4.03842 18.4872 3.98121 18.4433 3.93311V3.93311ZM15.7786 35.9819C15.6574 36.0441 15.5462 35.9309 15.3904 36.0481L15.6158 36.3156C15.8395 36.2925 15.8731 36.1848 15.7786 35.9819ZM21.4506 4.34932C21.3147 4.13834 21.2685 3.96117 21.0226 4.01821C20.9471 4.32564 21.1767 4.31294 21.4506 4.34932V4.34932ZM28.2988 35.4897C28.4551 35.4569 28.6001 35.3852 28.7188 35.2821C28.3661 35.1346 28.322 35.1572 28.2988 35.4897ZM29.4296 5.73801C29.3761 5.78186 29.3366 5.83898 29.3157 5.90273C29.2947 5.96648 29.2932 6.03423 29.3113 6.09808C29.4345 6.14127 29.5121 6.12803 29.5791 6.05241C29.6461 5.97678 29.6012 5.80695 29.4296 5.73801ZM7.00393 13.3877C6.9169 13.463 6.83374 13.5376 6.84788 13.6674C6.91418 13.6803 6.98291 13.6794 7.04938 13.6648C7.11584 13.6503 7.17846 13.6223 7.23296 13.5828C7.21353 13.5355 7.18276 13.4933 7.14303 13.4594C7.10331 13.4256 7.0557 13.4011 7.00393 13.3877V13.3877ZM35.4998 27.9814C35.3137 27.8508 35.3324 27.6323 35.1945 27.433C35.1563 27.9116 35.1563 27.9116 35.4998 27.9814ZM26.1652 5.40718C26.2515 5.23385 26.1868 5.13537 26.0095 5.05609C25.8814 5.31208 25.8814 5.31208 26.1652 5.40718ZM28.6726 34.9879C28.7445 35.1522 28.87 35.2895 29.0311 35.3799C28.993 35.1561 29.005 34.969 28.7988 34.8606L28.6726 34.9879ZM25.0701 35.6022C25.0148 35.7371 24.993 35.8817 25.0063 36.0247C25.062 36.0204 25.1159 36.0025 25.1626 35.9727C25.2094 35.9429 25.2474 35.9022 25.2729 35.8546C25.2789 35.8252 25.2783 35.7949 25.2712 35.7659C25.264 35.7369 25.2504 35.7098 25.2313 35.6863C25.2122 35.6628 25.1881 35.6435 25.1604 35.6297C25.1327 35.6158 25.1021 35.6077 25.0707 35.6059L25.0701 35.6022ZM36.6812 25.1402C36.7657 25.1673 36.8584 25.2421 36.9959 25.1583L36.7897 24.8158C36.6386 24.8906 36.6167 24.9963 36.6812 25.1402ZM31.4355 7.68455C31.6714 7.45171 31.6714 7.45171 31.3553 7.21481C31.4784 7.39775 31.3104 7.51327 31.4355 7.68455ZM8.94593 10.9304C9.10658 11.0994 9.21666 11.0655 9.30308 10.8695C9.12766 10.6842 9.02396 10.732 8.94593 10.9304ZM7.96152 10.9208C7.86345 11.1188 7.88673 11.2319 8.07356 11.3435C8.14183 11.1582 8.16576 11.0408 7.96027 10.9134L7.96152 10.9208ZM9.69884 9.1139C9.42256 9.39138 9.42256 9.39138 9.65508 9.65386L9.69884 9.1139ZM27.5119 4.56575C27.5332 4.69052 27.5859 4.74196 27.6977 4.74177C27.7107 4.60737 27.9021 4.60495 27.9463 4.44258C27.7774 4.48271 27.6379 4.46118 27.5144 4.58043L27.5119 4.56575ZM38.7117 25.334C38.5995 25.2851 38.512 25.217 38.3977 25.3195L38.6 25.6627C38.642 25.6181 38.6737 25.5657 38.6929 25.5091C38.7122 25.4524 38.7186 25.3927 38.7117 25.334V25.334ZM28.8168 34.4044C28.7985 34.4241 28.785 34.4475 28.7773 34.4726C28.7695 34.4978 28.7678 34.5242 28.7722 34.5498C28.7765 34.5755 28.7869 34.5998 28.8026 34.621C28.8182 34.6422 28.8387 34.6597 28.8625 34.6723C28.944 34.6584 29.0428 34.6755 29.0707 34.5575C29.0985 34.4394 28.9752 34.3963 28.8168 34.4044ZM35.948 11.2354C36.2393 11.2801 36.2279 11.1197 36.2456 10.9656C35.9816 10.8936 35.9781 11.0603 35.948 11.2354ZM17.8402 5.55034C17.6255 5.43965 17.5206 5.48021 17.462 5.67525C17.529 5.70363 17.6055 5.70651 17.6757 5.68331C17.746 5.66011 17.8048 5.61256 17.8402 5.55034V5.55034ZM25.8577 6.18093C25.8639 6.00617 25.9008 5.87146 25.6981 5.8305C25.573 6.01045 25.6365 6.10159 25.8577 6.18093ZM25.6591 5.29711C25.5121 5.34862 25.4502 5.43092 25.4908 5.57507C25.5271 5.5926 25.5678 5.6006 25.6088 5.59825C25.6498 5.5959 25.6896 5.58329 25.7242 5.5617C25.7389 5.51505 25.7395 5.46566 25.7259 5.41921C25.7123 5.37275 25.6851 5.33112 25.6474 5.2991L25.6591 5.29711ZM11.8315 7.23585C11.7784 7.21496 11.7199 7.20903 11.6628 7.21877C11.6057 7.2285 11.5524 7.2535 11.5093 7.29079C11.5296 7.37452 11.5819 7.44762 11.6562 7.49612C11.7064 7.47047 11.749 7.43299 11.7797 7.38735C11.8105 7.34172 11.8283 7.28951 11.8315 7.23585V7.23585ZM33.5013 10.4517C33.5817 10.5248 33.635 10.5799 33.7251 10.5457C33.7523 10.5411 33.7667 10.5084 33.7978 10.4804C33.7856 10.4242 33.7598 10.3717 33.7224 10.3269C33.6849 10.2822 33.6369 10.2465 33.5821 10.2226L33.5013 10.4517ZM38.4331 19.4599C38.4903 19.3028 38.5819 19.2079 38.5178 19.1131C38.4537 19.0183 38.3997 19.0766 38.3608 19.1059C38.3348 19.1232 38.3132 19.1459 38.2976 19.1721C38.282 19.1983 38.2729 19.2274 38.2707 19.2572L38.4331 19.4599ZM20.7079 5.49941C20.8474 5.28679 20.8474 5.28679 20.673 5.15414C20.633 5.20651 20.6144 5.27064 20.6209 5.33431C20.6273 5.39798 20.6583 5.45675 20.7079 5.49941ZM7.26133 10.1414C7.30071 10.3005 7.37375 10.4499 7.47605 10.5806C7.60531 10.3546 7.60531 10.3546 7.26133 10.1414ZM16.0687 6.07901C15.9499 6.03883 15.8644 5.959 15.774 6.06128C15.77 6.2017 15.8134 6.29248 15.9872 6.30438L16.0687 6.07901ZM38.3143 19.6765C38.1522 19.6399 38.0185 19.6288 37.9411 19.8308C38.1526 19.9231 38.2583 19.8636 38.3143 19.6765ZM24.0105 36.0888C23.899 35.9039 24.0292 35.7533 23.8815 35.567C23.7512 35.7629 23.6721 35.9086 24.008 36.0741L24.0105 36.0888ZM26.2549 35.3813C26.4273 35.4085 26.4913 35.2919 26.5828 35.2196C26.5153 35.1597 26.4252 35.1276 26.3319 35.1302C26.2913 35.1548 26.261 35.192 26.2465 35.2353C26.2319 35.2787 26.234 35.3252 26.2524 35.3666L26.2549 35.3813ZM29.6438 34.5919C29.6274 34.5671 29.6048 34.5466 29.578 34.5321C29.5511 34.5176 29.5209 34.5096 29.4898 34.5087L29.3067 34.7703L29.4446 34.8525C29.4977 34.8277 29.5437 34.791 29.5785 34.7455C29.6132 34.7 29.6357 34.6472 29.6438 34.5919V34.5919ZM27.07 34.9137C26.9311 35.013 26.9123 35.137 26.9375 35.3782L27.2273 34.9927L27.1158 34.9248L27.07 34.9137ZM24.8657 35.5049C25.2034 35.4473 25.2034 35.4473 25.1123 35.2174C24.9221 35.2498 24.9515 35.4223 24.8657 35.5049ZM34.8245 8.84006C34.7721 8.86263 34.7259 8.89641 34.6894 8.93871C34.6529 8.981 34.6272 9.03062 34.6143 9.08361C34.632 9.11016 34.6559 9.13237 34.6843 9.14849C34.7127 9.16461 34.7448 9.17422 34.778 9.17655C34.8087 9.16031 34.835 9.13747 34.8548 9.1099C34.8745 9.08233 34.8872 9.05083 34.8917 9.01798C34.8963 8.98513 34.8926 8.95187 34.8809 8.92094C34.8692 8.89001 34.8498 8.86229 34.8245 8.84006V8.84006ZM28.7907 33.8763C28.7581 34.0367 28.8484 34.0742 28.9601 34.0967C29.009 34.0317 29.1503 34.0643 29.1221 33.9218C29.022 33.8973 28.9359 33.8138 28.7907 33.8763ZM9.48837 11.3704C9.70189 11.334 9.8315 11.2741 9.70742 11.0385C9.63606 11.0613 9.57499 11.107 9.53493 11.1677C9.49487 11.2284 9.47838 11.3002 9.48837 11.3704V11.3704ZM34.8787 31.1803L35.0235 30.8346C34.91 30.8011 34.8104 30.803 34.7683 30.931C34.7262 31.059 34.6741 31.1283 34.8787 31.1803ZM36.6658 28.7985C36.8561 28.649 36.8102 28.5208 36.7103 28.3566C36.6178 28.4932 36.5207 28.6268 36.6658 28.7985V28.7985ZM20.9351 3.36468C21.0637 3.36919 21.2211 3.42543 21.2507 3.22401C21.062 3.10135 21.0164 3.27907 20.9351 3.36468ZM24.2348 37.3572C24.4057 37.1884 24.3007 37.1345 24.1677 37.1043C24.1405 37.109 24.0938 37.1396 24.0575 37.1609C24.0536 37.2786 24.129 37.3224 24.2348 37.3572ZM31.7501 34.7615C31.7808 34.6825 31.7895 34.5978 31.7755 34.5154C31.7614 34.4331 31.7251 34.3561 31.67 34.2917C31.6401 34.3708 31.6318 34.4554 31.6458 34.5376C31.6598 34.6197 31.6957 34.6968 31.7501 34.7615V34.7615ZM22.7729 35.5785C22.7431 35.6582 22.7349 35.7434 22.749 35.8262C22.7632 35.9089 22.7991 35.9866 22.8536 36.0519C22.8845 35.9724 22.8933 35.8869 22.8792 35.804C22.865 35.721 22.8284 35.6434 22.7729 35.5785V35.5785ZM30.5082 8.31473C30.5052 8.15662 30.4657 8.06518 30.2881 8.03126C30.2035 8.23828 30.3028 8.28177 30.4966 8.31671L30.5082 8.31473ZM28.523 34.462C28.6569 34.2164 28.6569 34.2164 28.4605 34.0951C28.4921 34.2105 28.4224 34.3168 28.523 34.462ZM19.2273 35.9414C19.2067 35.8203 19.303 35.7057 19.2358 35.5926C19.1 35.593 19.0653 35.6707 19.0312 35.7521C19.0787 35.8195 19.1054 35.9056 19.2273 35.9414ZM16.0006 35.2454C15.9854 35.2646 15.9745 35.2864 15.9685 35.3095C15.9624 35.3326 15.9614 35.3565 15.9653 35.3798C15.9693 35.4032 15.9783 35.4254 15.9916 35.4452C16.005 35.465 16.0225 35.4819 16.0431 35.495C16.1673 35.4738 16.2142 35.4205 16.2336 35.3001L16.0006 35.2454ZM36.9229 25.386C36.7916 25.5065 36.6242 25.5087 36.6839 25.6949C36.8667 25.7128 36.9337 25.6372 36.9229 25.386ZM26.1723 6.10463C26.3092 6.01709 26.3666 5.93178 26.2366 5.82554C26.2089 5.80382 26.1611 5.80443 26.123 5.79204C26.0968 5.84334 26.0875 5.90069 26.0963 5.95651C26.1051 6.01232 26.1316 6.06397 26.1723 6.10463V6.10463ZM27.6613 5.34844C27.5755 5.21668 27.4568 5.10731 27.3154 5.02979C27.3004 5.27025 27.3853 5.34641 27.662 5.35211L27.6613 5.34844ZM36.8916 27.3815C37.0509 27.2146 37.0303 27.0935 36.8247 26.9889C36.8021 27.0559 36.7964 27.1267 36.8081 27.1956C36.8199 27.2645 36.8487 27.3295 36.8922 27.3852L36.8916 27.3815ZM22.8081 5.25834C22.8051 5.10024 23.012 4.9781 22.7673 4.80834C22.7625 4.96777 22.5957 5.09063 22.8081 5.25834ZM35.0722 9.49647C35.0313 9.42037 35.1023 9.3214 34.9674 9.2802C34.909 9.33549 34.7772 9.31263 34.7926 9.44974C34.8453 9.50118 34.9052 9.54762 35.0722 9.49647ZM36.8813 11.7183C36.8152 11.6351 36.7885 11.549 36.6989 11.5152C36.671 11.5291 36.6465 11.5484 36.6271 11.5719C36.6076 11.5955 36.5937 11.6226 36.5863 11.6515C36.6376 11.7183 36.6675 11.8 36.7623 11.8405L36.8813 11.7183ZM19.6182 4.5447C19.5917 4.67008 19.3953 4.76021 19.5472 4.87782C19.6023 4.85607 19.6498 4.81956 19.6837 4.77282C19.7177 4.72608 19.7366 4.67117 19.7381 4.6149L19.6182 4.5447Z" fill="#E12912"/>
<path d="M37.8787 13.4179C37.8902 13.6727 37.6874 13.6544 37.5312 13.7226C37.2938 13.6422 37.2917 13.4424 37.2664 13.2239C37.3811 13.2097 37.4914 13.1705 37.5884 13.1094C37.6854 13.0483 37.7666 12.967 37.8256 12.8718C38.0197 12.8387 37.9824 13.0187 38.0914 13.0719L38.3708 13.0469C38.5599 13.3834 38.7163 13.7359 38.838 14.1002C38.7948 14.1982 38.6553 14.1767 38.6346 14.2897C38.614 14.4028 38.7025 14.4066 38.7898 14.403C38.8093 14.5312 38.8629 14.652 38.9455 14.7541C38.9132 14.8691 38.8038 14.9067 38.7123 14.9563C38.525 14.9353 38.3952 14.4552 38.4582 14.0517C38.5117 13.967 38.6087 14.0676 38.6843 13.9716C38.658 13.8175 38.3698 13.7911 38.4441 13.5707L37.8787 13.4179Z" fill="#E12912"/>
<path d="M38.0506 12.2707L37.6841 12.2765L37.5744 12.0082C37.6176 11.9102 37.6864 11.8683 37.7611 11.9084C37.8359 11.9485 37.9164 12.1161 38.0506 12.2707Z" fill="#E12912"/>
<path d="M39.9606 19.7699C39.8597 19.6701 39.884 19.6017 39.9678 19.5308C40.0475 19.6003 40.0141 19.6853 39.9606 19.7699Z" fill="#E12912"/>
<path d="M6.19737 11.1614C6.20564 11.0694 6.16295 10.9596 6.29332 10.8807C6.36757 11.0116 6.26375 11.0821 6.20188 11.1644L6.19737 11.1614Z" fill="#E12912"/>
<path d="M24.1243 6.01602C23.8897 6.11644 23.8897 6.11644 23.5604 6.05931C23.7428 6.02819 23.8514 5.91526 23.9964 5.87543C24.044 5.92019 24.1299 5.93197 24.1243 6.01602Z" fill="#E12912"/>
<path d="M29.0243 6.16996C29.0165 6.28836 29.0656 6.41217 28.9687 6.52311C28.8836 6.46963 28.9107 6.37061 28.8698 6.29451C28.9185 6.25221 28.9319 6.16684 29.0243 6.16996Z" fill="#E12912"/>
<path d="M14.884 13.5134C14.9428 13.5504 15.0127 13.5688 15.0838 13.5661C15.155 13.5635 15.2239 13.5399 15.281 13.4986C15.3696 13.2682 15.1398 13.2092 15.0681 13.0703C15.2775 12.8628 15.5158 12.6836 15.7764 12.5379C15.6848 12.7273 15.7458 12.9208 15.6896 13.1305L15.8939 13.2505C15.9798 13.4965 16.1666 13.374 16.3121 13.3605C16.2707 13.3019 16.2131 13.2553 16.1454 13.2256C16.0778 13.1959 16.0026 13.1843 15.9278 13.1919L15.904 13.0524C15.9773 13.0135 16.0979 13.0647 16.1353 12.9563C16.0737 12.7591 16.0737 12.7591 15.8077 12.4873C15.8972 12.4067 16.0042 12.3459 16.1209 12.3092C16.2986 12.3205 16.3582 12.6464 16.5997 12.4466C16.6851 12.315 16.478 12.2483 16.5372 12.0796C16.9177 11.785 17.3527 11.5609 17.8188 11.4192C17.7519 11.5167 17.7211 11.632 17.7312 11.7467C17.7414 11.8614 17.7919 11.9688 17.8747 12.0517L18.1071 11.9856C18.3165 11.9953 18.3204 12.2287 18.5046 12.2313C18.7986 11.7771 18.8639 11.6678 18.5847 11.2018C18.8043 11.0453 19.0661 10.9521 19.338 10.9336C19.504 10.9468 19.568 11.0643 19.6633 11.1311C19.7472 11.0375 19.6891 10.9077 19.8306 10.8005C20.1443 10.7009 20.469 10.6379 20.7974 10.613C20.8676 10.7672 20.6406 10.7945 20.669 10.9143C20.9927 10.9384 21.0635 10.8848 21.0971 10.543C21.7734 10.5032 22.4608 10.3407 23.1271 10.5934C23.289 10.6526 23.3736 10.4456 23.5153 10.5272C23.5744 10.5926 23.4609 10.6535 23.5019 10.7296C23.5428 10.8057 23.6383 10.7328 23.7071 10.6682L24.0438 11.2603C24.2746 11.2549 24.5 11.2883 24.6434 11.075C24.4875 10.8636 24.0922 11.0519 23.9868 10.7149L24.0761 10.5826C24.3209 10.5993 24.5602 10.6556 24.7836 10.749C24.8917 10.8036 25.0132 10.831 25.1367 10.8285C25.2352 10.8188 25.3336 10.8416 25.4151 10.8931C25.4967 10.9445 25.5565 11.0215 25.5844 11.1109C25.7186 11.1484 25.7726 10.9731 25.8977 11.0273C25.9305 11.0557 25.9582 11.0774 25.9158 11.1337C25.882 11.17 25.8585 11.2138 25.8475 11.2608C25.8365 11.3079 25.8384 11.3566 25.853 11.4023C25.8676 11.4479 25.8945 11.4891 25.931 11.5217C25.9674 11.5543 26.0123 11.5773 26.0613 11.5885C26.2671 11.5534 26.374 11.3841 26.5298 11.2669C26.8212 11.3697 27.103 11.4947 27.3726 11.6406C27.4909 11.7488 27.3424 11.8383 27.4452 11.9492C27.548 12.0601 27.5957 11.848 27.7635 11.8949C27.9527 12.0439 28.3916 12.0409 28.3263 12.5014C28.1973 12.5649 28.0908 12.6662 27.9344 12.5456C27.8516 12.7863 28.0082 12.9786 27.9396 13.232L26.0163 15.7994C25.9408 15.8954 25.8743 15.9974 25.7943 16.0903C25.7568 16.1578 25.7045 16.217 25.641 16.2639C25.5774 16.3108 25.5041 16.3442 25.4262 16.3618C25.3482 16.3794 25.2675 16.3807 25.1896 16.3658C25.1117 16.3509 25.0384 16.3201 24.9749 16.2754C24.5842 16.0928 24.2124 15.8805 23.8132 15.7182C23.5577 15.6037 23.2741 15.5544 22.9899 15.5753C22.6778 15.587 22.3657 15.5745 22.0567 15.5381C22.0686 15.3737 22.1731 15.3068 22.3035 15.2052C22.1121 15.1132 22.2837 14.8309 22.0197 14.7589C21.9293 14.7441 21.8771 14.8361 21.7979 14.8873L21.8807 15.1149C21.7424 15.2178 21.575 15.337 21.6565 15.5572C21.1935 15.7004 20.7325 15.7148 20.3024 15.8863C19.7271 16.0967 19.1882 16.3899 18.7048 16.7555C18.5527 16.8883 18.3632 16.9758 18.1604 17.0069C18.1712 17.0721 18.1646 17.1391 18.1411 17.2019C18.1176 17.2646 18.078 17.321 18.0259 17.3659C16.672 18.7977 16.3336 20.468 16.7119 22.288C16.7643 22.4586 16.769 22.6399 16.7257 22.8144C17.0632 23.0363 17.1062 23.4292 17.2829 23.739C17.4596 24.0488 17.7294 24.3426 17.9384 24.6545C17.8975 24.6601 17.8593 24.678 17.8295 24.7055C17.7997 24.733 17.7798 24.7687 17.7727 24.8073C17.9625 24.8429 17.829 25.1376 18.1801 25.2288C18.068 25.0693 18.0032 24.8835 17.9925 24.6905C18.5976 25.3093 19.3486 25.7836 20.1863 26.0763C20.1313 26.199 19.9401 26.1787 19.8597 26.3397C20.1025 26.3814 20.2623 26.3579 20.2449 26.1154C20.4544 26.1023 20.5849 26.2349 20.7233 26.3435C20.8609 26.354 20.9833 26.2048 21.1221 26.3397C21.1668 26.4378 21.0516 26.465 20.9964 26.516C20.9621 26.6427 21.1316 26.7233 21.1003 26.7739C21.0209 26.9876 20.7768 26.9386 20.8086 27.1485L21.0903 27.2779C21.0303 27.4883 21.2229 27.6103 21.2749 27.7978C21.474 27.677 21.5391 27.4733 21.7247 27.3435C21.7882 27.3059 21.8379 27.2505 21.8669 27.1853C21.896 27.12 21.9028 27.0481 21.8864 26.9798C21.857 26.8073 21.7629 26.7705 21.5839 26.7519C21.405 26.7333 21.4156 26.5616 21.4282 26.4008C22.058 26.3106 22.6973 26.3216 23.3193 26.4333C23.4746 26.4068 23.4311 26.2217 23.5577 26.2378C23.643 26.25 23.7205 26.2902 23.7768 26.3515C23.6939 26.4978 23.4905 26.4532 23.3787 26.5705C23.4006 26.6095 23.431 26.6436 23.4679 26.6705C23.5048 26.6974 23.5475 26.7165 23.5931 26.7265L23.6422 27.1789C23.7951 27.2045 23.9404 27.2594 24.0692 27.3402C24.1124 27.2911 24.1377 27.2302 24.1413 27.1669C24.145 27.1035 24.1267 27.0412 24.0893 26.9893C23.9772 26.8014 23.8906 26.6005 23.8315 26.3913C23.945 26.3271 24.0279 26.2233 24.062 26.1027L24.6598 25.8837L25.0529 26.2208L24.8947 26.3006C24.9917 26.4012 24.9423 26.5795 25.1708 26.6312C25.1954 26.5696 25.2025 26.5033 25.1915 26.4388C25.1805 26.3744 25.1518 26.3142 25.1082 26.2642C25.1538 26.2036 25.248 26.1233 25.2333 26.0843C25.1588 25.8817 25.2793 25.7214 25.3386 25.5301C25.8285 25.2351 26.2598 24.8596 26.6117 24.4217L26.846 24.4837C26.9046 24.4434 26.9507 24.389 26.9795 24.3262C27.0082 24.2633 27.0184 24.1946 27.009 24.1274C26.9197 23.9084 27.0466 23.7622 27.1257 23.5938C27.2709 23.3106 27.3545 23.0034 27.3713 22.6909C27.1911 22.6255 26.9906 22.6261 26.8083 22.6925L22.9339 23.3532C22.1575 23.4856 22.0209 23.4107 21.8996 22.6761C21.7181 21.6118 21.5367 20.5476 21.3546 19.4797C21.3223 19.3645 21.3165 19.2437 21.3376 19.1254C21.3587 19.007 21.4062 18.8938 21.4769 18.7934C21.5475 18.693 21.6398 18.6077 21.7473 18.5433C21.8549 18.4788 21.9754 18.4366 22.1006 18.4196C22.9702 18.2713 23.8361 18.101 24.7094 17.9748C24.9629 17.9485 25.2146 17.9056 25.4625 17.8464C25.8212 17.7474 26.2096 17.7529 26.5643 17.6774L27.6424 17.4633C27.7921 17.4982 27.8164 17.664 27.9671 17.6572C28.1177 17.6504 28.0818 17.4866 28.1665 17.3739L30.0981 16.9879C30.2534 16.9614 30.3686 17.0513 30.512 17.0722C30.8451 16.683 31.3032 16.8391 31.6879 16.9396C32.0726 17.0402 32.0754 17.221 31.8814 17.5826C32.1221 17.5416 32.2784 17.5678 32.3241 17.8357C32.3546 17.9261 32.3615 18.0226 32.3442 18.1169C32.3269 18.2113 32.2859 18.3007 32.2247 18.3776C32.297 18.5201 32.3838 18.3731 32.5201 18.4934C32.5915 18.9117 32.6992 19.4032 32.7598 19.8989C32.8427 20.4606 32.8834 21.0278 32.8815 21.5965C32.8761 21.7522 32.8979 21.9034 32.6771 21.9674C32.761 22.108 32.8651 22.2035 32.8383 22.3742C32.7889 22.9947 32.6515 23.6075 32.4299 24.1962C32.3213 24.4262 32.3223 24.713 32.2136 24.9657C32.1569 25.1595 32.0684 25.3441 31.9513 25.5127C31.8097 25.2914 31.6137 25.4306 31.4314 25.439C31.4583 25.5968 31.2504 25.6662 31.2327 25.8203C31.215 25.9744 31.485 26.0114 31.5787 26.139C31.5797 26.3226 31.5092 26.5014 31.3807 26.641C30.6411 27.8402 29.6182 28.8632 28.3944 29.6277C28.0491 29.8588 27.6484 30.0025 27.2311 30.0451C27.219 30.1059 27.194 30.164 27.1577 30.2158C27.1214 30.2676 27.0744 30.3121 27.0198 30.3465C26.9651 30.3809 26.9038 30.4045 26.8397 30.4159C26.7755 30.4273 26.7098 30.4263 26.6466 30.4129C26.553 30.0512 26.553 30.0512 26.2422 30.0324C26.3872 29.7585 26.2308 29.5208 26.156 29.2692L25.8259 29.231L25.5923 29.5012C25.6902 29.6053 25.7647 29.7274 25.8114 29.8602C25.858 29.993 25.8759 30.1339 25.864 30.2744C26.027 30.2466 26.1659 30.2645 26.1927 30.0937C26.2071 30.1781 26.2202 30.2552 26.1338 30.3342C26.0519 30.4171 25.9858 30.5127 25.9383 30.6167C25.9239 30.6494 25.9915 30.6945 25.9382 30.7565C24.7648 31.1523 23.5372 31.3744 22.2992 31.4148L22.2896 30.9368L22.0924 31.046C21.97 30.8667 21.9701 30.6099 21.71 30.5371C21.6982 30.4674 21.6623 30.398 21.7436 30.3124C21.9871 30.3577 22.0826 30.7304 22.4148 30.6171C22.4852 30.5145 22.4529 30.3954 22.4734 30.305C22.0955 30.0333 21.6128 30.1308 21.2149 29.9531C21.164 30.0255 21.132 30.1082 21.1216 30.1941C21.1112 30.28 21.1228 30.3667 21.1553 30.4467C21.2355 30.6596 21.404 30.7102 21.6534 30.6034C21.713 30.8123 21.5874 30.9659 21.4741 31.1212C21.4725 31.2763 21.6917 31.2729 21.7108 31.432C21.2566 31.427 20.805 31.3774 20.3633 31.2842C20.3339 31.2288 20.3806 31.1981 20.4305 31.1632L20.5157 31.0769C20.5216 30.9475 20.2763 30.8911 20.4387 30.7426C20.3001 30.6794 20.2448 30.5189 20.084 30.4896C20.0141 30.5016 20.0324 30.5853 20.0042 30.6543L19.581 30.7265C19.7996 30.8365 19.7794 30.9759 19.7546 31.1349C19.4321 31.2353 19.1792 31.0405 18.882 31.0081C18.9355 30.8063 19.1218 30.8916 19.2059 30.7753C19.2278 30.6696 19.2014 30.5382 19.2711 30.4319C19.2021 30.285 19.1042 30.4603 19.0025 30.3795C18.975 30.218 19.0952 29.986 18.938 29.79C18.806 29.8125 18.6398 29.9391 18.5108 29.7684C18.6089 29.6875 18.5597 29.5864 18.5589 29.4883C18.6467 29.3941 18.6356 29.3053 18.5089 29.1947C18.3241 29.517 18.1555 29.0435 17.9406 29.2123C17.8599 29.3016 17.8935 29.4281 17.8722 29.5375C17.8803 29.5852 17.9499 29.6186 18.0171 29.6374L18.1092 29.4517C18.2371 29.4752 18.3616 29.4087 18.4842 29.4482C18.4027 29.4621 18.3095 29.478 18.2501 29.575L18.4296 29.737L18.1879 29.7253L18.1291 29.9431C18.285 30.0373 18.5013 29.9702 18.6298 30.1145C18.5516 30.2185 18.4589 30.1436 18.3697 30.1588C18.3172 30.308 18.2401 30.4487 18.1411 30.5755C18.0975 30.7415 18.3015 30.6727 18.2774 30.8128C18.0444 30.7464 17.8193 30.6583 17.6054 30.5498C17.5394 30.4439 17.5747 30.3699 17.7205 30.3111C17.5661 30.1788 17.6033 29.9987 17.4822 29.8041C17.4303 30.0622 17.3871 30.2773 17.0579 30.3146C16.6556 30.1607 16.2857 29.9414 15.9646 29.6664C15.8239 29.5204 15.6022 29.5091 15.4362 29.3788C13.7475 28.1983 12.4706 26.5672 11.7638 24.6877C11.5506 24.147 11.3935 23.5869 11.2949 23.0154C11.263 22.8282 11.1935 22.655 11.3884 22.4858C11.2867 22.405 11.1795 22.3855 11.1769 22.2764C11.1295 21.9089 11.1277 21.5366 11.1715 21.167C11.2218 20.9469 11.046 20.7126 11.2217 20.5013C11.0451 20.1916 11.2478 19.8813 11.2728 19.5825C11.3078 18.899 11.4972 18.2279 11.8281 17.6146C11.9234 17.4473 11.8809 17.1978 12.0279 17.0292C12.2579 17.0428 12.1075 17.3555 12.3739 17.3478C12.385 17.2024 12.234 17.0431 12.4573 16.8767C12.5466 16.8614 12.7332 16.9014 12.871 16.7721C12.7961 16.5205 12.4213 16.7355 12.3569 16.4519C12.3795 16.3499 12.6279 16.3075 12.4978 16.1069C12.4498 16.0358 12.5498 15.9432 12.5929 15.8679C13.0691 15.0709 13.6546 14.336 14.3336 13.6828C14.3664 13.6401 14.4091 13.605 14.4582 13.5802C14.5074 13.5554 14.5617 13.5417 14.6169 13.54C14.6687 13.6332 14.624 13.7692 14.7504 13.8307C14.9285 13.7739 14.8814 13.6385 14.884 13.5134ZM20.4971 12.1786C20.577 12.2254 20.5277 12.3584 20.6401 12.3846C20.7856 12.1369 20.7196 12.0311 20.3255 11.8755C20.309 11.9247 20.3107 11.9776 20.3305 12.0251C20.3502 12.0726 20.3868 12.112 20.434 12.1365C20.2208 12.339 20.2208 12.339 20.4922 12.4778C20.554 12.3954 20.5087 12.2937 20.4918 12.1946L20.4971 12.1786ZM11.7841 19.9334C11.816 20.1205 12.0128 20.1738 12.1253 20.2944C12.2565 20.1738 12.2752 20.0724 12.184 19.9596L11.8348 19.8794C11.82 19.7797 11.784 19.6843 11.7289 19.5989C11.6738 19.5135 11.6009 19.44 11.5144 19.3827C11.3548 19.712 11.5656 19.8234 11.7841 19.9334ZM15.7726 15.3974C15.7682 15.2833 15.7362 15.1721 15.679 15.0725C15.6219 14.9729 15.5411 14.8875 15.4429 14.8229C15.3651 14.8589 15.2561 14.8284 15.1817 14.9543C15.1954 15.0351 15.1488 15.1601 15.2236 15.2002C15.3796 15.2718 15.4271 15.1051 15.5386 15.173C15.65 15.2408 15.5786 15.4078 15.7115 15.4607C15.8353 15.6246 16.1803 15.6564 16.0492 15.9885C16.0327 16.0328 16.1726 16.1034 16.2757 16.0518C16.3123 15.9162 16.3005 15.7737 16.2419 15.6469C16.1834 15.52 16.0816 15.4161 15.9525 15.3516C15.8804 15.3035 15.8343 15.3378 15.7726 15.3974ZM25.8001 26.4559C25.7832 26.3568 25.7247 26.2951 25.6035 26.3573C25.5456 26.7467 25.5964 27.1417 25.7509 27.5029C25.7809 27.5571 25.8239 27.6038 25.8764 27.6393C25.9288 27.6749 25.9895 27.6984 26.0535 27.708C26.124 27.6056 26.1536 27.4831 26.1368 27.3631C26.1201 27.2432 26.058 27.1338 25.9622 27.0552C25.9047 26.9973 25.8626 26.9273 25.8391 26.8506C25.8156 26.774 25.8115 26.6929 25.827 26.6137C25.9113 26.5691 26.0481 26.5987 26.0723 26.4359C26.0575 26.3996 26.031 26.3688 25.9967 26.3476C25.9623 26.3264 25.9217 26.3159 25.8804 26.3176L25.8001 26.4559ZM24.5668 13.5541C24.4959 13.3963 24.582 13.1512 24.3082 13.0922C24.2815 13.1396 24.2656 13.1917 24.2618 13.245C24.258 13.2984 24.2662 13.3516 24.2861 13.4012C24.3059 13.4508 24.3368 13.4956 24.3767 13.5326C24.4166 13.5695 24.4645 13.5978 24.5173 13.6154C24.4553 13.9546 24.661 14.1536 25.1179 14.1852C25.1085 14.0131 25.326 13.9534 25.3625 13.7923C25.2073 13.7124 25.0925 13.5774 25.0427 13.4163C24.8498 13.3397 24.7426 13.5544 24.5668 13.5541ZM23.024 28.3795C23.0115 28.3061 23.1296 28.2255 23.0279 28.1447C22.9262 28.0638 22.725 28.219 22.5431 28.1367C22.5778 28.059 22.6139 27.966 22.5056 27.9165C22.2538 27.8688 22.0022 28.127 21.7067 27.9168C21.7216 28.105 21.6881 28.2947 21.6092 28.4697C21.6058 28.8479 22.0069 28.9042 22.1928 29.1746C22.2136 28.9218 22.0869 28.6941 22.2631 28.5092L23.024 28.3795ZM22.2329 28.5899C22.3808 28.7748 22.4687 28.9971 22.4859 29.2303C22.3707 29.2294 22.2573 29.2624 22.1613 29.3248C22.0654 29.3871 21.9916 29.4758 21.9501 29.5785C21.6436 29.4684 21.6436 29.4684 21.4479 29.5622C21.5389 29.678 21.6609 29.7686 21.8016 29.8248C21.9423 29.881 22.0968 29.9009 22.2496 29.8824C22.3058 29.7424 22.3951 29.616 22.5107 29.5131C22.6262 29.4102 22.7647 29.3336 22.9155 29.2893C22.8153 29.1704 22.8754 29.0544 22.8372 28.9476C22.9185 28.862 23.0391 28.7961 22.9902 28.6496C22.7912 28.3965 22.5635 28.6544 22.2329 28.5899ZM19.3649 26.9755C19.4173 27.0723 19.5351 27.0597 19.5323 27.2075L19.4202 27.6043C19.5956 27.6725 19.7204 27.7721 19.6003 27.9814C19.8192 28.0337 20.0239 28.1272 20.2025 28.2564C20.2219 28.2104 20.2308 28.1612 20.2286 28.1121C20.2264 28.063 20.2133 28.0151 20.19 27.9716C20.1667 27.9281 20.1338 27.8899 20.0935 27.8596C20.0532 27.8294 20.0064 27.8077 19.9562 27.7961C19.9059 27.782 19.9049 27.7293 19.9098 27.6643C19.9147 27.5992 20.1466 27.6239 20.2141 27.4576C20.2202 27.2847 20.1828 27.1137 20.1051 26.9588C19.8605 27.0005 19.9221 27.1977 19.8658 27.3357C19.7121 27.1844 19.8886 26.9541 19.7367 26.8365C19.5835 26.8287 19.4951 26.9193 19.3649 26.9755V26.9755ZM11.796 20.6829C11.9797 20.7762 11.8928 20.9458 11.944 21.0353C11.9952 21.1247 12.2373 21.0684 12.3368 21.1836C12.4364 21.2988 12.3762 21.4148 12.5162 21.4626C12.6036 21.4147 12.6689 21.3374 12.6991 21.2464C12.6539 21.1219 12.3928 20.9965 12.5045 20.9019C12.7585 20.6811 12.4614 20.5316 12.5555 20.3343C12.4105 20.3352 12.267 20.367 12.1355 20.4273C12.0041 20.4876 11.888 20.575 11.796 20.6829V20.6829ZM22.0746 13.7223C22.0886 14.226 22.6506 14.1717 22.852 14.5792C22.8945 14.266 23.1543 14.15 23.1401 13.9258C22.8751 13.684 22.745 13.9516 22.586 14.0505C22.5052 13.7168 22.4646 13.6898 22.0746 13.7223ZM26.4499 13.8675C26.3655 13.9183 26.2717 13.9531 26.1737 13.9698C26.0758 13.9865 25.9758 13.9848 25.8793 13.9648C25.8031 13.94 25.7593 14.0343 25.7976 14.1184C25.9574 14.212 26.1353 14.0608 26.3004 14.1384C26.1898 14.4972 26.1898 14.4972 26.3349 14.7859C26.7231 14.7197 26.8245 14.6118 26.653 14.3087C26.582 14.1735 26.6063 13.9881 26.4499 13.8675ZM30.509 20.9436L30.0811 20.5898C30.0075 20.5937 29.9357 20.6149 29.8722 20.6514C29.8087 20.6879 29.7555 20.7387 29.7173 20.7991C29.8763 20.9815 30.0145 21.1794 30.1296 21.3897C30.2018 21.2037 30.4938 21.2294 30.509 20.9436ZM20.4062 28.9354C20.4707 29.0792 20.3401 29.2035 20.4317 29.3427C20.5234 29.4819 20.3216 29.6107 20.4158 29.7646C20.7652 29.705 20.6099 29.3803 20.7846 29.2334C20.8547 29.1761 20.7881 28.9496 20.6765 28.81C20.5367 28.8338 20.4568 28.67 20.2964 28.6898C20.2418 28.7172 20.1944 28.7562 20.1581 28.8037C20.1218 28.8512 20.0976 28.9058 20.0874 28.9633C20.2031 29.0796 20.274 28.8862 20.4062 28.9354ZM30.2543 18.9817C30.3759 19.0856 30.4546 19.1251 30.5449 19.0455C30.6333 18.9811 30.6928 18.8873 30.7109 18.7835C30.7289 18.6798 30.7041 18.5743 30.6417 18.4889C30.5499 18.3724 30.5642 18.2453 30.4937 18.1365C30.4893 18.1108 30.448 18.1027 30.4255 18.0877C30.3834 18.0795 30.3395 18.085 30.3006 18.1033C30.2617 18.1216 30.2301 18.1516 30.211 18.1885C30.1914 18.4486 30.3916 18.709 30.2543 18.9817V18.9817ZM27.1292 26.4256C27.4705 26.0842 27.1884 25.7887 27.1371 25.4877C27.0966 25.4644 27.0483 25.4559 27.0012 25.4639C26.954 25.472 26.9113 25.496 26.8809 25.5314C26.9758 25.6121 27.0447 25.7165 27.0801 25.8331C27.1156 25.9498 27.116 26.074 27.0814 26.1921C26.99 26.2417 26.8658 26.1458 26.8146 26.2905C26.9534 26.4254 26.8771 26.6575 26.9978 26.803C27.0862 26.8295 27.1641 26.888 27.2576 26.8267C27.2764 26.7547 27.2748 26.6795 27.2529 26.6089C27.2311 26.5383 27.1897 26.4748 27.1331 26.425L27.1292 26.4256ZM27.885 22.1426C28.1668 22.0379 28.4299 21.9175 28.4557 21.577C28.4495 21.5403 28.4457 21.5183 28.3592 21.5028L28.0282 21.5064C27.9533 21.606 28.0983 21.6832 28.0242 21.7639C27.95 21.8445 27.7983 21.8213 27.7793 21.968C27.7783 22.0058 27.7881 22.043 27.8078 22.0756C27.8274 22.1081 27.8561 22.1349 27.8908 22.1529L27.885 22.1426ZM23.6386 27.4854C23.6397 27.7496 23.5229 28.0489 23.8685 28.2015L24.2011 27.8087C24.0397 27.6587 23.7998 27.6581 23.6386 27.4854ZM18.2051 12.8413L18.5489 12.5146C18.2624 12.5445 18.3711 12.2919 18.2345 12.217C18.0628 12.2878 17.7865 12.214 17.7661 12.5159C17.9445 12.5793 18.0975 12.6927 18.2051 12.8413V12.8413ZM24.5003 12.2739L24.3036 11.9638C24.3369 11.9014 24.4075 11.8705 24.3829 11.7728C24.2273 11.8446 24.035 11.6772 23.8599 11.8921C23.9688 12.0057 24.0559 12.1364 24.1176 12.2787C24.1966 12.4843 24.2781 12.4704 24.5003 12.2739ZM14.3019 23.1257C14.2801 23.2664 14.2315 23.4026 14.1588 23.5278C14.2078 23.581 14.2697 23.6221 14.3394 23.6477C14.4091 23.6732 14.4845 23.6825 14.5594 23.6747L14.7702 23.3178C14.6154 23.2535 14.5173 23.1003 14.3019 23.1257ZM28.7906 23.7518C28.7171 23.592 28.6124 23.4472 28.4821 23.3248C28.342 23.5337 28.2275 23.1907 28.0789 23.3029C28.048 23.6141 28.5215 23.556 28.452 23.8511C28.5101 23.8653 28.5715 23.8637 28.6293 23.8465C28.6871 23.8293 28.7389 23.7972 28.779 23.7538L28.7906 23.7518ZM21.5095 29.4082C21.5624 29.263 21.5797 29.109 21.5602 28.9578C21.5406 28.8067 21.4847 28.6624 21.3968 28.5361C21.1726 28.7443 21.3857 29.0101 21.2881 29.2344C21.2737 29.2671 21.3558 29.3966 21.5095 29.4082ZM24.7058 28.6365C24.6089 28.8419 24.5204 28.9552 24.5881 29.0947C24.6559 29.2342 24.7306 29.2743 24.6749 29.416C24.6474 29.4795 24.6433 29.5495 24.6631 29.6147C24.6829 29.6799 24.7256 29.7364 24.7841 29.775C24.9783 29.368 24.8166 29.0519 24.7058 28.6365ZM25.9755 13.4045C26.2085 13.3421 26.271 13.1464 26.3811 12.9955C26.1816 12.7387 26.0542 12.9757 25.9015 12.9942C25.8847 13.0612 25.8823 13.1304 25.8944 13.1978C25.9066 13.2652 25.9331 13.3293 25.9724 13.3862L25.9755 13.4045ZM19.4623 11.8036C19.6565 11.7705 19.8662 11.8292 19.9658 11.5932C19.9488 11.5536 19.9231 11.5182 19.8903 11.4891C19.8575 11.46 19.8185 11.4381 19.7757 11.4246C19.733 11.4112 19.6875 11.4066 19.6424 11.4112C19.5973 11.4157 19.5536 11.4294 19.5141 11.4512C19.3832 11.5037 19.3767 11.6294 19.4623 11.8036ZM22.2369 12.3313C22.444 12.2137 22.6332 12.0696 22.7991 11.9031C22.5612 11.7964 22.3616 11.8908 22.1235 11.9239C22.2263 12.0348 22.0252 12.1672 22.2369 12.3313V12.3313ZM23.2755 15.3529C23.4323 15.1713 23.6763 15.3601 23.7333 15.1087C23.4949 14.9756 23.2762 14.7712 22.941 14.8435C23.0363 15.0274 23.2772 15.058 23.2755 15.3529V15.3529ZM13.795 19.3563C13.8754 19.1953 13.7481 19.0811 13.7262 18.9526C13.7317 18.8847 13.7184 18.8168 13.6877 18.7558C13.657 18.6949 13.6099 18.6428 13.551 18.6049C13.3754 18.7934 13.5863 18.9992 13.4051 19.1547L13.795 19.3563ZM23.7763 29.8864C23.6658 29.7769 23.5798 29.6707 23.4063 29.7078C23.3109 29.8978 23.2077 30.0892 23.4555 30.2773C23.5701 30.1293 23.6163 29.9553 23.7763 29.8864ZM18.604 28.7216C18.7511 28.6474 18.808 28.5357 18.6972 28.3545C18.5876 28.4147 18.4715 28.3665 18.3592 28.3403C18.2469 28.3142 18.2083 28.3925 18.1669 28.5015C18.3609 28.4911 18.3796 28.741 18.604 28.7216ZM32.5317 22.1924L31.8349 22.1828C31.7484 22.2844 31.7072 22.3708 31.748 22.4695C31.8911 22.4876 32.0374 22.4721 32.1741 22.4244C32.3108 22.3768 32.4337 22.2984 32.5323 22.1961L32.5317 22.1924ZM28.4207 29.3135C28.5954 29.2837 28.7588 29.3049 28.7845 29.1042C28.6208 28.9975 28.4192 28.9549 28.2208 28.985C28.2232 29.1395 28.3198 29.2136 28.4207 29.3135V29.3135ZM26.6172 11.709C26.4817 11.6641 26.3865 11.5746 26.2666 11.6441L26.1863 11.8995C26.3726 11.8678 26.3277 12.1435 26.5242 12.1478C26.653 12.0126 26.5324 11.8443 26.6147 11.6943L26.6172 11.709ZM13.0337 22.6698C12.8019 22.8566 12.6045 22.6598 12.4136 22.8284C12.5941 22.9033 12.4624 23.1146 12.6119 23.1949C12.7171 23.1403 12.8092 23.0652 12.8819 22.9746C12.9547 22.884 13.0064 22.7801 13.0337 22.6698V22.6698ZM26.7128 19.4383C26.9958 19.4581 27.2178 19.4013 27.2977 19.0969C27.2101 19.0514 27.2116 18.8963 27.0627 18.9368C26.9138 18.9773 27.0588 19.1716 26.9587 19.2642C26.8946 19.2865 26.7327 19.2272 26.7128 19.4383ZM12.8341 19.2974C12.6598 19.2591 12.5958 19.3758 12.6003 19.4958C12.5931 19.5761 12.6191 19.6554 12.6729 19.7167C12.7266 19.778 12.8038 19.8167 12.8881 19.8244C13.0127 19.6181 12.8513 19.4682 12.8341 19.2974ZM13.8798 20.252C13.8076 20.3366 13.7561 20.4353 13.7291 20.5405C13.7021 20.6458 13.7003 20.755 13.7239 20.8602C14.049 20.6348 14.0754 20.5321 13.8747 20.2453L13.8798 20.252ZM19.2198 12.8647C19.1522 12.8222 19.0718 12.801 18.99 12.8041C18.9082 12.8073 18.829 12.8345 18.7634 12.8821C18.7755 12.94 18.7998 12.9949 18.8348 13.0434C18.8698 13.0919 18.9149 13.1331 18.9673 13.1645C19.0641 13.1683 19.1603 13.144 19.2431 13.0948L19.2198 12.8647ZM19.2223 13.9103C19.0804 13.9798 18.9276 14.0262 18.7704 14.0478C18.7692 14.2519 18.8619 14.3268 19.0228 14.3333C19.1881 14.2485 19.2168 14.0888 19.2223 13.9103ZM20.0402 13.5292C19.9082 13.5517 19.83 13.4442 19.6927 13.4827C19.6592 13.5133 19.634 13.5511 19.6192 13.5928C19.6044 13.6345 19.6005 13.6788 19.6079 13.7219C19.6152 13.7649 19.6335 13.8054 19.6613 13.8398C19.6891 13.8742 19.7254 13.9016 19.7672 13.9194C19.8905 13.8122 19.9844 13.6781 20.0402 13.5292V13.5292ZM12.6608 17.8125C12.8087 17.9535 12.8901 18.0793 13.1029 18.0619C13.1279 17.9746 13.2111 17.9 13.1606 17.7915C13.0817 17.7593 12.9958 17.7445 12.9093 17.7481C12.8228 17.7518 12.7379 17.7738 12.6608 17.8125V17.8125ZM17.4901 26.6645C17.4916 26.9777 17.7036 26.9793 17.8967 27.0106C17.9354 26.9095 18.0374 26.828 17.9217 26.7117L17.4901 26.6645ZM19.4814 29.2517C19.2213 29.179 19.5663 28.8596 19.2331 28.8031C19.035 28.9766 19.1361 29.1482 19.1992 29.3074C19.2656 29.3452 19.3283 29.3382 19.462 29.255L19.4814 29.2517ZM21.7233 11.4747C21.8084 11.5282 21.8709 11.4496 21.9407 11.4377C22.0106 11.4257 22.1234 11.4783 22.1733 11.3489C22.1345 11.1214 21.8895 11.2311 21.7737 11.1376C21.6327 11.2712 21.6179 11.3719 21.7039 11.478L21.7233 11.4747ZM13.9483 16.5771C13.8243 16.5529 13.7204 16.5291 13.6144 16.5169C13.5085 16.5048 13.4669 16.5421 13.4849 16.6712C13.6217 16.7234 13.7517 16.8297 13.9113 16.8289C13.9873 16.7593 13.9593 16.6885 13.9295 16.5841L13.9483 16.5771ZM21.346 12.1433C21.4547 12.0077 21.5673 12.1056 21.6736 12.0497C21.7239 11.9269 21.7372 11.7938 21.7119 11.6655C21.5139 11.6993 21.4701 11.9107 21.2757 11.8721L21.346 12.1433ZM17.3573 13.0236C17.4305 13.1746 17.557 13.2958 17.7154 13.3667C17.747 12.9194 17.7142 12.891 17.3385 13.0306L17.3573 13.0236ZM21.4897 13.8296C21.7076 14.1701 21.7658 14.1602 22.0089 13.9223C21.8391 13.77 21.6421 13.8565 21.4619 13.8306L21.4897 13.8296ZM12.6919 23.5702C12.6287 23.5733 12.5672 23.5923 12.5139 23.6253C12.4605 23.6583 12.4171 23.7041 12.3883 23.7579C12.4989 23.8675 12.5972 23.9753 12.7846 23.9736C12.8061 23.832 12.7732 23.6888 12.6919 23.5702V23.5702ZM29.8891 19.3234C29.7028 19.2101 29.542 19.063 29.4158 18.8905C29.2642 18.9617 29.2727 19.0585 29.324 19.1252C29.3829 19.2111 29.4693 19.2765 29.5709 19.3121C29.6724 19.3478 29.7838 19.3517 29.8891 19.3234V19.3234ZM27.5078 22.5544C27.4163 22.8381 27.4227 22.8521 27.7577 23.0593C27.7877 22.9596 27.7789 22.8536 27.733 22.7609C27.6871 22.6681 27.6071 22.5948 27.5078 22.5544V22.5544ZM18.5258 27.2092L17.9538 27.0877C17.9689 27.1752 18.0094 27.2566 18.0707 27.3228C18.1321 27.389 18.212 27.4374 18.3014 27.4627L18.5258 27.2092ZM24.8755 30.8735C24.8536 30.8104 24.8101 30.7563 24.7518 30.7198C24.6935 30.6833 24.6238 30.6663 24.5534 30.6716C24.4592 30.7519 24.3554 30.8225 24.3868 30.9833C24.5568 30.9948 24.7274 30.9565 24.8755 30.8735V30.8735ZM15.2961 19.0928C15.2811 18.6535 15.2811 18.6535 14.9694 18.6764C14.9545 18.7736 14.9804 18.8718 15.0415 18.9497C15.1026 19.0277 15.1941 19.079 15.2961 19.0928V19.0928ZM22.7116 12.983C22.8137 13.0202 22.9238 13.0348 23.0337 13.0259C23.1435 13.017 23.2503 12.9847 23.346 12.9315C23.3268 12.8846 23.297 12.8425 23.2586 12.808C23.2203 12.7734 23.1745 12.7473 23.1241 12.7314L22.7116 12.983ZM29.499 22.8455C29.2769 22.8641 29.0592 22.9191 28.8556 23.0081C28.9167 23.0602 28.9886 23.0996 29.067 23.1239C29.1453 23.1482 29.2284 23.1569 29.3111 23.1494L29.499 22.8455ZM17.0342 13.5886C16.944 13.6455 16.8476 13.6657 16.8011 13.7681C16.7546 13.8704 16.7924 14.0452 16.9645 14.1405C16.8951 13.9446 17.1983 13.8249 17.0342 13.5886ZM29.9451 27.5467C29.7337 27.5488 29.484 27.4667 29.3445 27.7964C29.5892 27.732 29.8177 27.7837 29.9451 27.5467ZM11.9006 18.2972C11.7953 18.5001 11.9494 18.5834 11.9331 18.7221C12.0845 18.6963 12.2188 18.7112 12.3625 18.5696C12.1584 18.544 12.07 18.4004 11.9006 18.2972ZM30.1082 21.9901C29.9305 21.9788 29.9393 21.7961 29.8115 21.7499C29.7802 21.793 29.7607 21.8426 29.7547 21.8943C29.7488 21.9459 29.7566 21.9979 29.7774 22.0455C29.7982 22.0931 29.8315 22.1347 29.874 22.1666C29.9165 22.1984 29.967 22.2195 30.0209 22.2278L30.1082 21.9901ZM28.4669 22.4626C28.5548 22.5797 28.612 22.7513 28.8411 22.5951C28.7841 22.4953 28.801 22.3603 28.6657 22.2927C28.5499 22.2936 28.5076 22.3499 28.4585 22.4602L28.4669 22.4626ZM15.5707 19.9297C15.7475 19.8655 15.9551 19.8415 15.9876 19.5867C15.6635 19.5135 15.6652 19.7814 15.5707 19.9297ZM16.8616 17.8477C16.9608 17.7968 17.1018 17.7803 17.0769 17.6109C16.9623 17.5247 16.8302 17.5698 16.7107 17.5487C16.6956 17.5777 16.6876 17.6095 16.6873 17.6417C16.687 17.6738 16.6944 17.7055 16.7089 17.7343C16.7234 17.7631 16.7447 17.7882 16.7712 17.8079C16.7976 17.8275 16.8285 17.8412 16.8616 17.8477V17.8477ZM23.4062 21.086C23.2537 21.1989 23.1968 21.3106 23.3292 21.4542C23.4549 21.395 23.5916 21.3528 23.6215 21.2004C23.5998 21.1648 23.5684 21.1355 23.5306 21.1154C23.4928 21.0954 23.4499 21.0852 23.4062 21.086V21.086ZM20.5611 30.4763C20.6307 30.3839 20.6685 30.2738 20.6694 30.1613C20.6703 30.0487 20.6341 29.9394 20.5659 29.8485C20.3113 30.0657 20.5199 30.2114 20.5611 30.4763ZM25.7853 21.4961C25.6559 21.2764 25.4686 21.3726 25.3221 21.3334C25.2807 21.4424 25.2875 21.5054 25.3621 21.5682L25.7853 21.4961ZM18.0861 15.6109C18.0788 15.5681 18.0585 15.5284 18.0275 15.4968C17.9966 15.4652 17.9564 15.443 17.912 15.4329C17.7512 15.5207 17.7582 15.6555 17.7392 15.8022C17.8083 15.7981 17.8757 15.7787 17.936 15.7455C17.9963 15.7122 18.0477 15.6661 18.0861 15.6109ZM29.4856 25.1099C29.5589 25.1881 29.6265 25.2332 29.7458 25.1599C29.762 25.0439 29.7892 24.9222 29.6436 24.8413C29.4875 24.8868 29.5121 25.0072 29.4856 25.1099ZM29.5309 20.1512L29.3354 20.4337C29.5971 20.5628 29.6808 20.3975 29.7772 20.2602C29.7254 20.1671 29.6245 20.1843 29.5426 20.1492L29.5309 20.1512ZM31.1939 17.2995C31.0973 17.131 30.9524 17.1481 30.8142 17.1339C30.7999 17.1653 30.7932 17.1991 30.7945 17.233C30.7958 17.2669 30.8051 17.2999 30.8216 17.3296C30.8382 17.3594 30.8616 17.3851 30.8902 17.405C30.9188 17.4248 30.9519 17.4383 30.9869 17.4444L31.1939 17.2995ZM22.0778 13.2723C21.9883 13.2159 21.9304 13.1577 21.8305 13.2277C21.8524 13.3561 21.7552 13.5124 21.9006 13.6387C21.9635 13.5993 22.0136 13.5439 22.045 13.479C22.0763 13.4141 22.0877 13.3424 22.0778 13.2723ZM27.1839 27.402C27.1676 27.3066 27.1953 27.2112 27.0584 27.1817C26.9308 27.2299 26.8638 27.3055 26.918 27.436C27.003 27.4895 27.0923 27.4743 27.1839 27.402ZM23.6681 29.1345C23.7373 29.0377 23.7651 28.92 23.7456 28.8059C23.7262 28.6918 23.661 28.59 23.5636 28.5216C23.5335 28.7286 23.5692 28.9382 23.6662 29.1235L23.6681 29.1345ZM32.0815 22.9263C32.0738 23.0447 32.1524 23.0841 32.2621 23.1183C32.3009 22.9946 32.412 22.8963 32.4058 22.7426C32.3414 22.7494 32.2791 22.7694 32.2231 22.8011C32.1671 22.8328 32.1188 22.8755 32.0815 22.9263ZM23.4815 30.4768C23.6279 30.5387 23.5486 30.7297 23.7336 30.8303C23.7231 30.6282 23.7176 30.4554 23.7126 30.309C23.5776 30.2904 23.5508 30.3441 23.4815 30.4768ZM27.4864 19.6878C27.2499 19.4487 27.2499 19.4487 27.0147 19.5455C27.0732 19.6056 27.1473 19.6502 27.2299 19.6751C27.3124 19.7001 27.4007 19.7044 27.4864 19.6878ZM23.3368 11.1203C23.2632 11.0111 23.1643 10.9196 23.0474 10.8524C23.0094 10.9627 23.0006 11.0797 23.0216 11.1929C23.0759 11.2066 23.1331 11.2071 23.1882 11.1944C23.2432 11.1818 23.2943 11.1563 23.3368 11.1203ZM13.1397 23.83C12.9063 24.0548 13.1133 24.1441 13.1725 24.304C13.391 24.0855 13.1607 24.0001 13.1397 23.83ZM13.681 22.0382C13.7004 22.152 13.5911 22.2839 13.716 22.3835C13.8765 22.2239 13.8765 22.2239 13.681 22.0382ZM29.2414 21.5223C29.5364 21.472 29.5364 21.472 29.6408 21.1936C29.4478 21.2567 29.3835 21.4188 29.2414 21.5223V21.5223ZM27.0205 27.8264C26.8734 27.7835 26.9043 27.5667 26.7526 27.5435C26.7305 27.6093 26.7249 27.6788 26.7365 27.7464C26.748 27.814 26.7762 27.8778 26.8189 27.9325L27.0205 27.8264ZM25.2109 22.7194C24.792 22.6058 24.7693 22.6135 24.8096 22.92C24.9151 22.8109 25.0572 22.7398 25.2109 22.7194ZM27.5341 23.6224C27.4909 23.8375 27.3277 24.005 27.655 24.0738C27.6709 23.9942 27.6683 23.9125 27.6474 23.8345C27.6265 23.7566 27.5878 23.6842 27.5341 23.6224V23.6224ZM17.3509 14.8601C17.3729 14.8239 17.3812 14.7818 17.3742 14.741C17.3673 14.7001 17.3455 14.6631 17.3127 14.6363C17.2042 14.6095 17.1125 14.61 17.0697 14.7344C17.1084 14.8675 17.2275 14.8396 17.3509 14.8601ZM25.3964 14.7646C25.1937 14.8408 25.2415 14.9572 25.1631 15.1066C25.3982 15.0325 25.4639 14.9495 25.3848 14.7666L25.3964 14.7646ZM15.8934 23.8136C15.9268 23.7624 15.9397 23.7018 15.9297 23.6431C15.9197 23.5844 15.8874 23.5315 15.8389 23.4943C15.6538 23.6505 15.672 23.7569 15.8934 23.8136ZM30.7866 17.4408C30.6065 17.3922 30.4824 17.3907 30.4052 17.5473C30.5795 17.7026 30.6317 17.5163 30.7672 17.4441L30.7866 17.4408ZM22.6052 12.4762C22.4355 12.4183 22.3325 12.4698 22.2875 12.6512C22.467 12.6962 22.5674 12.6526 22.6052 12.4762ZM19.98 12.1686C19.7669 12.254 19.7669 12.254 19.7003 12.473C19.8866 12.4639 19.9332 12.3389 19.9831 12.1869L19.98 12.1686ZM26.4462 25.2317C26.5811 25.2729 26.6123 25.479 26.8299 25.3966C26.7423 25.2341 26.6843 25.0815 26.4462 25.2317ZM24.3273 12.9227C24.0971 12.8147 24.0971 12.8147 24.014 13.0064C24.0685 13.0233 24.1274 13.0244 24.1832 13.0095C24.2389 12.9946 24.2891 12.9644 24.3273 12.9227V12.9227ZM23.378 27.3863C23.4077 27.0452 23.4077 27.0452 23.1951 26.9228L23.378 27.3863ZM17.2953 14.3938C17.316 14.5149 17.3726 14.5656 17.4793 14.5588C17.5185 14.4841 17.5906 14.4152 17.5175 14.3143C17.4767 14.3049 17.4337 14.3074 17.394 14.3216C17.3544 14.3358 17.32 14.3609 17.2953 14.3938V14.3938ZM24.9846 13.2865C24.9241 13.1193 24.8509 13.0412 24.665 13.0993C24.7406 13.2148 24.7436 13.3729 24.9846 13.2865ZM31.2626 18.0771C31.3872 17.8708 31.246 17.8156 31.1302 17.7221C31.1137 17.754 31.104 17.7886 31.1017 17.8239C31.0995 17.8591 31.1047 17.8944 31.117 17.9274C31.1293 17.9605 31.1486 17.9908 31.1736 18.0165C31.1986 18.0422 31.2289 18.0628 31.2626 18.0771V18.0771ZM13.7561 16.1529C13.596 15.8932 13.596 15.8932 13.435 16.0037C13.5009 16.1322 13.6246 16.0847 13.7678 16.1509L13.7561 16.1529ZM14.7668 26.1092C14.8342 26.2941 14.8859 26.4099 15.1321 26.4246C15.0419 26.27 15.0148 26.1349 14.7668 26.1092ZM27.4307 24.773C27.3785 24.865 27.2844 24.9226 27.3737 25.0244C27.4633 25.0582 27.5492 25.07 27.6105 24.984C27.5974 24.9389 27.5747 24.8968 27.5438 24.8606C27.5129 24.8243 27.4744 24.7945 27.4307 24.773Z" fill="#E12912"/>
<path d="M32.1293 31.6645L32.0556 31.5373C32.073 31.5237 32.0935 31.5142 32.1154 31.5097C32.1373 31.5051 32.16 31.5057 32.1814 31.5114C32.2028 31.517 32.2223 31.5275 32.2383 31.542C32.2543 31.5565 32.2663 31.5746 32.2731 31.5946L32.1363 31.6821L32.1293 31.6645Z" fill="#E12912"/>
</svg>
