<svg width="43" height="41" viewBox="0 0 43 41" fill="none" xmlns="http://www.w3.org/2000/svg">
<path d="M3.66631 16.0199C3.7524 15.9864 3.89491 16.0262 3.89192 15.8683C4.00302 15.7927 4.08804 15.6874 4.1358 15.5663C4.17109 15.4924 4.10454 15.383 4.18887 15.3158C4.27321 15.2486 4.34403 15.2893 4.35117 15.1674C4.35831 15.0454 4.19903 15.0009 4.09017 14.9478C3.97105 14.9983 3.9016 15.0592 4.03598 15.1683L3.6631 15.3225C3.54375 15.0674 3.79288 14.9834 3.89186 14.8382C3.74785 14.7194 3.82981 14.6149 3.9313 14.4844C4.05541 14.6971 4.3218 14.6442 4.50872 14.8273C4.56942 14.5843 4.55124 14.3308 4.45659 14.1005C4.36438 14.0747 4.32784 14.1413 4.27153 14.1622L4.13403 13.9178C4.16232 13.8262 4.1403 13.7205 4.31348 13.7061C4.48665 13.6917 4.4655 13.6613 4.53121 13.4614C4.46702 13.3894 4.42648 13.4793 4.33676 13.4682C4.3719 13.3105 4.44162 13.1611 4.54137 13.0296C4.63922 12.9714 4.71879 13.0635 4.7935 12.9866C4.8682 12.9097 4.72444 12.8625 4.7063 12.7562C5.02181 12.1117 5.3959 11.4936 5.82428 10.9092C6.14806 10.4312 6.4984 9.96969 6.87379 9.52654C7.0779 9.31097 7.35079 9.16484 7.64921 9.1113C7.72617 8.97744 7.57352 8.9016 7.55564 8.74996C7.90788 8.47481 8.13563 8.05489 8.58008 7.92248C8.74049 7.99699 8.67178 8.15586 8.80141 8.19035C8.88926 7.95652 8.88926 7.95652 8.68808 7.66636C9.00276 7.34384 9.35577 7.05694 9.7398 6.81159C9.75419 6.89592 9.74267 6.99221 9.8554 7.04467C9.89734 7.0415 9.93891 7.03441 9.97953 7.0235C10.0046 7.01846 10.0271 7.00505 10.0429 6.98573C10.0586 6.9664 10.0666 6.94246 10.0654 6.9183C10.0422 6.78265 9.87218 6.81543 9.77171 6.76465C10.9707 5.82066 12.2983 5.03558 13.7168 4.4316C14.0034 4.29233 14.3096 4.19431 14.6252 4.14081C14.6078 4.36639 14.3248 4.27507 14.2322 4.43424C14.3892 4.53574 14.3732 4.74599 14.5806 4.83888C14.7191 4.90204 14.7884 5.09773 14.8756 5.21114C15.2225 5.20857 15.1579 4.97056 15.2066 4.81134C14.9107 4.71466 14.9107 4.71466 14.9763 4.4205L14.6946 4.19688C14.9493 3.94934 15.2789 3.78347 15.6357 3.7232C16.1196 3.58784 16.5977 3.44215 17.0428 3.31341C17.2252 3.37662 17.1969 3.58518 17.381 3.58775C17.565 3.59031 17.4963 3.39828 17.5653 3.31106C17.6704 3.2358 17.7946 3.18886 17.9246 3.17534C18.0546 3.16181 18.1853 3.18222 18.3027 3.23433C18.1935 3.3435 18.1057 3.46035 18.2217 3.62545C18.3931 3.69431 18.5684 3.76251 18.7416 3.63109C18.7348 3.45114 18.4767 3.52913 18.4834 3.35819C18.5321 3.27693 18.5617 3.18689 18.5702 3.09438C19.0379 2.958 19.0379 2.958 19.3363 3.1863C19.6721 2.96474 20.0688 2.84318 20.4743 2.83749C20.5489 2.81471 20.6285 2.81334 20.703 2.83355C20.7775 2.85375 20.8436 2.89463 20.8929 2.95098C21.0095 3.11974 21.1783 3.07963 21.3177 3.10113C21.4085 3.02526 21.2933 2.95814 21.3363 2.88288C21.3844 2.84487 21.442 2.81935 21.5033 2.8089C21.5646 2.79845 21.6274 2.80343 21.6854 2.82334C21.9746 2.97398 22.3321 2.68285 22.6056 2.97577C22.7306 2.89756 22.8787 2.86037 23.0266 2.86999C23.5242 2.93226 24.0232 2.9792 24.5149 3.05379C25.0067 3.12838 25.3705 3.20215 25.7943 3.29964C26.1349 3.37738 26.4721 3.4821 26.8068 3.57216L26.7519 3.69472C26.7867 3.71142 26.8188 3.73612 26.8376 3.72915C27.0269 3.67057 27.2312 3.68153 27.4096 3.75985C27.6958 3.86951 28.0022 3.9342 28.2598 4.06382C28.3414 4.26119 28.086 4.19156 28.0569 4.32482C28.0277 4.45808 28.3642 4.34786 28.4071 4.52919C28.4952 4.40751 28.617 4.31095 28.7587 4.25038L29.586 4.60731C29.4884 4.73715 29.4122 4.85202 29.5478 4.96848C29.74 5.01871 29.629 4.76598 29.8842 4.76396C31.0639 5.33791 32.1707 6.03485 33.1845 6.84212C33.2343 6.94681 33.1102 6.96799 33.1814 7.05772C33.3986 7.02066 33.5581 7.13683 33.7221 7.27865C34.8492 8.22186 35.8356 9.30601 36.655 10.5023C37.0251 11.0208 37.3611 11.5607 37.6613 12.1191C37.9404 12.679 38.2195 13.2388 38.4539 13.8176C39.0669 15.3874 39.4523 17.0325 39.5995 18.7082C39.3539 18.9384 39.2044 19.2445 39.1794 19.5684C39.3605 19.413 39.5611 19.4656 39.5876 19.2234C39.6527 19.2538 39.6388 19.3127 39.6385 19.3581C39.6325 19.8609 39.6103 20.3627 39.621 20.8703C39.6195 21.0252 39.5365 21.0771 39.4122 21.1436L39.3854 21.5481L39.5471 21.7242C39.5697 21.8562 39.4254 21.8997 39.3707 21.9769C39.5671 22.1925 39.4005 22.4322 39.4555 22.6378C39.3182 22.699 39.2569 22.5736 39.1637 22.6122C39.0008 22.6399 38.9885 22.9892 38.7223 22.7856C38.6104 22.6914 38.8967 22.5445 38.6899 22.4553C38.8021 22.2475 38.6917 22.0211 38.7677 21.8119C38.8454 21.776 38.9462 21.7815 39.0159 21.6753C38.9996 21.5799 39.0365 21.4454 38.8884 21.3725L38.8365 21.0682C38.9761 21.0444 38.8665 21.2442 39.0153 21.2037C39.0613 21.1959 39.1027 21.1716 39.1308 21.1359C39.1589 21.1002 39.1716 21.0558 39.1662 21.012C39.0707 20.9071 38.9456 20.8304 38.8051 20.7906C38.7368 20.8815 38.7732 20.9545 38.7773 21.0255L38.5446 21.0652C38.7314 20.8032 38.4893 20.5539 38.5824 20.3041C38.3548 20.2335 38.2605 20.359 38.1436 20.4695C38.3189 20.6547 38.1065 20.7437 38.0004 20.8939C38.2148 20.9102 38.3289 21.0643 38.5029 21.1251C38.6769 21.186 38.7246 21.325 38.8377 21.4264C38.9508 21.5279 38.7731 21.6563 38.7073 21.7618L38.4611 21.6756C38.5358 21.5987 38.6234 21.5271 38.5692 21.3968C38.5103 21.3683 38.4428 21.3589 38.377 21.3701C38.3112 21.3814 38.2507 21.4125 38.2046 21.459L38.3948 21.6378C38.2474 21.663 38.0847 21.6454 37.9683 21.7823C37.9805 21.8228 37.9876 21.8646 37.9896 21.9069C37.9978 22.2828 38.2503 22.4057 38.5997 22.4178L38.4078 22.6505C38.4272 22.7642 38.5133 22.8476 38.4604 22.9585C38.5491 23.0339 38.6842 23.0071 38.7728 23.1052C38.8614 23.2033 38.9528 23.0141 39.0637 23.0556C39.1746 23.097 39.1241 23.2226 39.1398 23.3143C39.0158 23.4297 38.8721 23.3599 38.7223 23.3477C38.6768 23.5253 38.6857 23.6709 38.9211 23.7175C38.8776 23.7601 38.845 23.8116 38.8262 23.868C38.8073 23.9243 38.8027 23.9838 38.8128 24.0416C38.6855 24.1614 38.4355 24.1701 38.3781 24.395C38.691 24.451 38.594 24.8185 38.835 24.9207C38.8514 25.0468 38.8227 25.1752 38.7535 25.2855C38.6203 25.2064 38.7815 25.0053 38.5303 25.0067C38.3878 25.0838 38.3926 25.2527 38.3584 25.3793C38.4273 25.526 38.5637 25.5065 38.7028 25.5734C38.3825 25.8016 37.9427 25.7973 37.7103 26.12C37.578 25.9765 37.6578 25.812 37.6334 25.669C37.5684 25.6159 37.5119 25.5652 37.4212 25.6184C37.4314 26.0996 37.585 26.579 37.4137 27.0723C37.3935 27.2373 37.4219 27.4036 37.4956 27.5526C37.5636 27.7562 37.5651 27.9757 37.5 28.1825C37.435 28.3894 37.3063 28.5741 37.1307 28.7128C37.0392 28.7815 36.9627 28.8667 36.9058 28.9632C36.8489 29.0597 36.8128 29.1657 36.7994 29.2749C36.8151 29.3665 36.7125 29.467 36.6558 29.5559C36.202 30.2499 35.6976 30.9134 35.1463 31.5415C34.9557 31.6963 34.7818 31.8688 34.6273 32.0563C34.6228 31.8681 34.5911 31.6818 34.5329 31.5027C34.3987 31.3709 34.241 31.3827 34.0288 31.3321L34.382 32.2793L34.2671 32.3781C34.1662 32.3953 34.1579 32.276 34.0764 32.2899C33.8576 32.3876 34.0105 32.5351 34.0265 32.6757C33.9271 32.7719 33.8142 32.8591 33.7278 32.9606C33.6413 33.0621 33.3618 33.1551 33.3125 33.0767C33.1429 32.9019 32.9866 33.1323 32.86 33.0218C32.7568 33.2357 32.9333 33.3112 32.9876 33.4189C33.0688 33.4503 33.1024 33.3427 33.1699 33.3878C32.565 33.9347 31.9069 34.426 31.2048 34.8549C30.9592 34.8103 30.7094 34.7873 30.4585 34.786C30.4854 34.9436 30.6577 34.9709 30.721 35.0846C30.715 35.2365 30.0078 35.5835 29.6474 35.5771C29.5791 35.668 29.5892 35.8209 29.4283 35.8371C29.2674 35.8532 29.2709 35.6866 29.1616 35.7241C29.0522 35.7616 29.1012 35.8853 29.08 35.9946C28.4169 36.3385 27.7193 36.6168 26.9982 36.8251C26.9198 36.806 26.85 36.7641 26.7985 36.7053C26.747 36.6465 26.7163 36.5737 26.7107 36.4968C26.8013 36.3493 26.9518 36.5764 27.088 36.3683C27.1233 36.2944 26.9776 36.2362 26.9219 36.1438C26.7577 36.07 26.5403 36.2467 26.3988 36.0256C26.3424 36.1255 26.322 36.2398 26.3409 36.3505C26.3598 36.4612 26.4169 36.5622 26.5032 36.6378C26.6122 36.7853 26.5846 36.8805 26.444 36.946C26.253 37.0649 26.0423 37.1519 25.8213 37.2032C25.5833 37.2054 25.351 37.2808 25.1594 37.4179L23.2199 37.7488C23.055 37.696 22.8762 37.6923 22.7072 37.7381C21.9941 37.8264 21.2754 37.8568 20.5591 37.8291C19.9767 37.8077 19.3942 37.7863 18.817 37.7489C18.2099 37.6909 17.6076 37.5983 17.0134 37.4718C16.4335 37.3481 15.8588 37.2084 15.2946 37.0368C14.7298 36.865 14.175 36.6662 13.6322 36.4412C13.2711 36.306 12.921 36.1463 12.5847 35.9634C12.4032 35.8585 12.3011 35.6345 12.1411 35.492C11.9811 35.3495 12.2202 35.3238 12.1833 35.2244L11.9112 35.1275C11.7423 35.1902 11.7969 35.3696 11.6801 35.4574C11.0318 35.1833 10.4413 34.8026 9.93546 34.3326C9.80358 34.3551 9.66795 34.2386 9.52582 34.1308C8.02904 33.0069 6.73082 31.6652 5.67801 30.1539C5.61519 30.0702 5.56118 29.9809 5.51675 29.8871C5.51049 29.8504 5.50236 29.8027 5.52013 29.7431C5.56356 29.5999 5.81206 29.6292 5.8227 29.4576C5.83335 29.286 5.70585 29.2172 5.70661 29.0812C5.80746 29.064 5.87816 29.0104 5.81048 28.8711C5.60878 28.9055 5.45276 28.7397 5.24243 28.7001C5.30059 29.0411 5.37665 29.1828 5.47425 29.1699L5.5437 29.109C5.57809 29.3107 5.64227 29.4997 5.32295 29.5466C4.74328 28.725 4.27404 27.8369 3.92586 26.9023C4.19589 26.6601 4.36204 26.9788 4.59089 26.9398C4.50393 27.015 4.37255 26.9469 4.30735 27.0561L4.49589 27.5295C4.70121 27.5398 4.7036 27.3432 4.79658 27.233L4.94847 27.4448L5.05483 27.3663C5.0492 27.3333 5.07523 27.2986 5.06372 27.278C4.91383 27.0545 4.94413 26.7173 4.59342 26.6036C4.50959 26.5801 4.6675 26.523 4.60919 26.4386L4.30503 26.2C4.18264 26.2247 4.05634 26.2216 3.93657 26.1909C3.8168 26.1601 3.707 26.1026 3.61624 26.0232C3.55815 25.9361 3.52173 25.8373 3.50967 25.7342C3.49761 25.6311 3.51023 25.5263 3.54658 25.4276C3.42754 25.3348 3.33989 25.2109 3.2941 25.0708C2.81132 23.2896 2.62295 21.4433 2.73565 19.597C2.75006 19.3305 2.92537 19.1647 3.01973 18.9223C2.93763 18.8277 2.882 18.7148 2.85788 18.5938C2.83375 18.4728 2.84187 18.3474 2.88151 18.229C2.98043 17.5534 3.12068 16.8832 3.30156 16.2217C3.34311 16.0675 3.38654 15.9243 3.60963 15.9919C3.54328 16.1385 3.50899 16.2958 3.50887 16.4543C3.73147 16.4955 3.85384 16.4407 3.873 16.2488C3.85624 16.1271 3.66618 16.1596 3.66631 16.0199ZM16.548 34.6497C16.666 34.6862 16.6577 34.8951 16.8602 34.8417L16.7806 34.3987C16.7819 34.3779 16.7851 34.3572 16.79 34.3368C16.8807 34.3091 16.9775 34.3071 17.0684 34.3308C18.5787 34.7213 20.1512 34.8712 21.7226 34.7745C21.8095 34.7674 21.8965 34.7803 21.9763 34.812C22.056 34.8437 22.1262 34.8933 22.1808 34.9566C22.3088 34.7009 22.5368 34.7035 22.7261 34.6901C23.3208 34.6546 23.9105 34.5541 24.4833 34.3903C24.6822 34.3413 24.8845 34.3068 25.0884 34.2871C25.2086 34.2666 25.2593 34.3297 25.216 34.4502C25.0503 34.5087 24.9053 34.3372 24.7389 34.4146C24.62 34.6538 24.708 34.8651 24.9305 34.9064C25.0664 34.8606 25.037 34.6883 25.217 34.6198C25.3202 34.523 25.5028 34.6805 25.6802 34.5974L25.7059 34.2799C25.6061 34.2101 25.4771 34.2963 25.3713 34.1672C25.8576 34.0573 26.331 33.8981 26.7832 33.6924C26.9786 33.614 27.1963 33.6064 27.3943 33.6712C27.4904 33.8133 27.4469 33.9792 27.4706 34.1185C27.5746 34.1196 27.634 34.117 27.6801 34.0827C27.821 33.8323 27.4454 33.6662 27.6027 33.3715C27.9022 33.2789 28.1628 33.0043 28.5471 32.9878C28.6252 33.2348 28.821 33.0958 28.9744 33.1526C28.9275 32.8777 28.7497 32.9118 28.5849 32.9286C28.866 32.7976 29.0625 32.5226 29.3814 32.4494C29.4755 32.6031 29.2858 32.6845 29.3258 32.8022C29.3801 32.8315 29.4324 32.8642 29.4822 32.9C29.4995 32.9236 29.5228 32.9425 29.5501 32.955C29.5773 32.9675 29.6076 32.9732 29.6381 32.9715C29.9077 32.7972 29.9077 32.7972 29.8474 32.6076C29.7306 32.2502 29.7341 32.2005 30.0357 31.9793L30.3527 31.7554C30.4703 31.7961 30.5958 31.8133 30.7216 31.8062C30.8473 31.799 30.9707 31.7675 31.0841 31.7137C31.0983 31.574 31.0744 31.4338 31.0147 31.3067C31.1764 31.0821 31.3862 30.892 31.6301 30.749C31.6276 30.9796 31.5696 31.2076 31.4604 31.4156C31.5662 31.3108 31.6946 31.4549 31.7734 31.332C31.8523 31.2091 31.7691 31.0724 31.8659 30.9616C31.9734 30.913 32.1079 30.8826 32.0902 30.7083C31.9912 30.6954 31.8981 30.6579 31.8202 30.5996C32.0023 30.4742 32.2618 30.6148 32.4191 30.4371C32.3866 30.2464 32.2327 30.3972 32.1555 30.3424C32.2368 30.1119 32.3903 29.9092 32.5954 29.7618C32.7466 29.736 32.9256 29.8489 33.0536 29.7101C33.0746 29.5292 32.8577 29.6152 32.8143 29.5245C32.8733 29.3786 33.0583 29.4338 33.1217 29.3136C33.1129 29.2623 33.0998 29.1853 33.1446 29.1437C33.8105 28.2977 34.3931 27.3963 34.8847 26.451C35.0021 26.3668 35.0566 26.5462 35.1435 26.3767C35.0066 26.1359 35.1649 25.8939 35.2658 25.6427C35.44 25.2131 35.6258 24.7814 35.7613 24.3357C35.8241 24.092 35.9794 23.8773 36.1974 23.7331C35.7364 23.3703 36.3315 23.2085 36.3594 22.9509C36.0998 22.482 36.3005 22.0441 36.4734 21.6298C36.414 21.0426 36.4186 20.4502 36.4871 19.8617C36.4975 19.4237 36.4762 18.9861 36.4234 18.552C36.4052 18.4456 36.3393 18.3399 36.3671 18.222C36.4026 18.1053 36.3941 17.9813 36.3432 17.8714C36.1925 17.6141 36.1321 17.3168 36.1704 17.0218C35.9372 16.441 35.74 15.8473 35.5796 15.2436C34.8233 13.2464 33.6088 11.44 32.0227 9.95307C31.8929 9.85802 31.8022 9.72299 31.7658 9.57053C31.3492 9.46804 31.1379 9.14188 30.8425 8.95457C30.5471 8.76725 30.2468 8.52795 29.9372 8.32796C29.6277 8.12797 29.2846 7.9186 28.951 7.74157C28.6175 7.56455 28.2954 7.40819 27.9617 7.25382C27.628 7.09945 27.2678 6.95338 26.9354 6.80634L26.9421 6.6354C26.7386 6.42488 26.5154 6.70818 26.2828 6.60826C26.0502 6.50833 25.9124 6.33188 25.6271 6.4145C25.6058 6.28984 25.6898 6.17365 25.605 6.09757C25.4501 5.96175 25.741 5.91213 25.6725 5.79174C25.5349 5.56997 25.358 5.44546 25.0745 5.56173L25.1126 6.25324L23.6416 5.96083C23.6518 5.87987 23.706 5.7763 23.581 5.72216C23.5146 5.70882 23.4456 5.70981 23.3792 5.72507C23.3127 5.74033 23.2504 5.76946 23.1968 5.81032C22.9941 6.026 22.865 5.90088 22.7315 5.75009C22.7278 5.72809 22.6761 5.72936 22.6419 5.71633L22.4983 5.88043C21.595 5.79917 20.6831 5.81424 19.7796 5.92536C19.5158 5.97036 19.2205 5.87735 18.9888 5.9697C18.6306 6.08018 18.2655 6.16768 17.8958 6.23159C17.6015 6.3082 17.297 6.37147 17.0039 6.45542C16.4217 6.62264 15.874 6.85189 15.2895 7.07609C15.2404 7.09659 15.187 7.10585 15.1338 7.10312C15.0806 7.10039 15.0291 7.08575 14.9835 7.06038C14.8098 6.96416 14.611 6.91464 14.4082 6.91704C14.3237 7.12388 14.4737 7.09074 14.5905 7.11988C14.4771 7.18072 14.496 7.26805 14.5149 7.35538C14.4567 7.42551 14.3836 7.48327 14.3005 7.52479C14.2174 7.5663 14.1262 7.5906 14.033 7.59604C14.0574 7.5051 14.1465 7.39557 13.9633 7.35136C13.8164 7.40283 13.8493 7.5255 13.8248 7.6391L13.9791 7.65429C13.4139 8.01481 12.8128 8.32863 12.2738 8.72618C12.2404 8.75589 12.1987 8.77581 12.1539 8.78346C12.109 8.7911 12.0631 8.78614 12.0217 8.76918C11.8279 8.66264 11.8622 8.41909 11.6676 8.33154C11.698 8.20561 11.8573 8.25013 11.8534 8.13383C11.7742 8.09074 11.6977 8.03966 11.6071 8.07021C11.5165 8.10075 11.5067 8.2307 11.3757 8.21154C11.2831 8.01982 11.0924 8.04857 10.9183 8.01037C10.8856 8.19327 10.9942 8.29171 11.0187 8.41204C11.3932 8.43117 11.5013 8.50328 11.5759 8.79995C11.7131 8.73881 11.8339 8.86159 11.98 8.82911C12.005 8.97577 11.9061 9.00397 11.8653 9.02224C11.6868 9.05268 11.6876 8.91672 11.5941 8.88361C11.5164 8.91951 11.4291 8.94572 11.3937 9.04232L11.5391 9.1458C11.5305 9.20398 11.5097 9.26015 11.4779 9.31096C11.4461 9.36176 11.404 9.40615 11.354 9.44148L11.1411 9.62116C10.6794 9.99422 10.2511 10.403 9.86066 10.8432C9.8021 10.9381 9.7175 11.0164 9.61608 11.0696C9.51466 11.1229 9.4003 11.149 9.28545 11.1451C9.30203 11.3142 9.253 11.4844 9.14751 11.6239C9.04201 11.7634 8.88728 11.8626 8.7122 11.9031C8.66115 12.025 8.75973 12.1818 8.64286 12.2922C8.38134 12.5142 8.2936 12.8423 8.09915 13.083C7.99829 13.1002 7.94137 13.0005 7.85841 13.0524C7.98687 13.6417 7.46683 14.0096 7.3134 14.5376C7.2073 14.4538 7.15988 14.3864 7.06215 14.422C7.00889 14.4518 6.9647 14.4944 6.93411 14.5454C6.90352 14.5963 6.88764 14.6538 6.88809 14.712L7.18376 14.737C6.86838 15.4429 6.6066 16.1685 6.40046 16.9081C6.3688 17.0267 6.24118 16.9805 6.20576 17.0771C6.17034 17.1737 6.32599 17.2905 6.2683 17.4437C6.21289 17.6254 6.17509 17.8112 6.1554 17.9988C5.91812 19.157 5.8429 20.337 5.9317 21.5081C5.99905 22.5464 6.19005 23.5719 6.50107 24.5652C6.60527 24.8719 6.69459 25.1849 6.78529 25.4826C6.70107 25.6442 6.505 25.7116 6.50261 25.9082C6.57129 25.9832 6.64061 26.062 6.76336 26.0561C6.8861 26.0503 6.78702 25.8672 6.93942 25.8714C7.15272 26.3029 7.36791 26.7453 7.56307 27.1874C7.57308 27.2461 7.54906 27.2691 7.50313 27.2807C7.49125 27.211 7.45872 27.1373 7.3366 27.1468C7.30964 27.1563 7.28488 27.1709 7.26382 27.1896C7.24276 27.2083 7.22582 27.2308 7.21404 27.2558C7.20226 27.2807 7.19587 27.3075 7.19525 27.3346C7.19464 27.3618 7.19981 27.3886 7.21046 27.4136C7.32832 27.4727 7.38814 27.4021 7.45821 27.3449C7.52164 27.436 7.71834 27.3722 7.72484 27.4805C7.74334 27.7528 7.9907 27.8691 8.11294 28.0708C8.47379 28.65 8.88644 29.1981 9.34643 29.7092C9.45042 29.8026 9.52903 29.9185 9.57576 30.0474C9.45551 30.0679 9.36767 30.1848 9.23667 30.1656C9.10029 30.0681 8.97991 30.1113 8.8444 30.2061C8.93348 30.3305 8.97914 30.4812 9.15519 30.5304L9.19312 30.2146C9.4097 30.4078 9.46588 30.4095 9.67685 30.2188L9.56425 30.0267C9.72741 30.0706 9.80673 30.208 9.90882 30.3151C10.1864 30.5481 10.4326 30.8127 10.642 31.1031C11.266 31.4381 11.7437 31.9452 12.3467 32.3215C12.1692 32.4273 12.1021 32.5255 12.2688 32.6367C12.4139 32.6685 12.4448 32.4519 12.6034 32.5154C12.5332 32.5953 12.4643 32.6599 12.4967 32.7562C12.4234 32.8178 12.3259 32.691 12.233 32.8012C12.3147 32.9759 12.441 33.0148 12.6515 32.9147L12.5696 32.7853C12.6743 32.7675 12.7906 32.7476 12.8455 32.6477C13.1978 32.8178 13.6022 32.9186 13.8179 33.2704C13.9262 33.2972 14.0429 33.232 14.1477 33.3085C14.2526 33.3849 14.116 33.544 14.2344 33.6295C14.3887 33.6447 14.5197 33.5469 14.6483 33.5287C14.9132 33.6306 15.1607 33.7243 15.401 33.8229C15.5086 33.8687 15.6592 33.8618 15.6893 34.0152C15.6255 34.1091 15.4562 34.1228 15.477 34.3381C15.6709 34.3051 15.7649 34.2475 15.7517 34.0536C15.9053 34.0237 16.0636 34.032 16.2113 34.0775C16.359 34.1231 16.491 34.2044 16.5944 34.3135C16.4781 34.3334 16.4099 34.4016 16.3747 34.5699L16.548 34.6497ZM14.0503 35.7096C14.1394 35.834 13.9745 35.9904 14.081 36.1232C14.2847 35.9602 14.2847 35.9602 14.1004 35.652C14.1382 35.5928 14.2403 35.5829 14.2389 35.4813C14.2375 35.3796 14.1184 35.3132 13.971 35.3383C13.9514 35.3688 13.9383 35.4026 13.9325 35.4377C13.9266 35.4728 13.9282 35.5085 13.937 35.5428C13.9458 35.5771 13.9617 35.6093 13.9838 35.6374C14.006 35.6656 14.0338 35.6892 14.0658 35.707L14.0503 35.7096ZM30.802 32.2598C30.5515 32.3592 30.5899 32.5375 30.6566 32.7412C30.6982 32.587 30.8964 32.6022 30.9479 32.5066L30.8657 32.3056C30.9583 32.2634 31.0296 32.3304 31.109 32.3509C31.08 32.3894 31.0651 32.4357 31.0665 32.4825C31.068 32.5293 31.0858 32.5741 31.1172 32.6098C31.2113 32.4126 31.368 32.4652 31.4995 32.5106C31.5821 32.4098 31.4858 32.2904 31.5742 32.1998C31.6867 32.1806 31.8165 32.2868 31.9233 32.1403C31.9154 32.0761 31.8879 32.0159 31.8441 31.9671C31.8003 31.9183 31.7422 31.8829 31.6768 31.8654C31.551 32.0642 31.2893 32.0975 31.1481 32.2763C31.1251 32.2058 31.0822 32.1429 31.024 32.0944C30.9658 32.0458 30.8945 32.0134 30.8177 32.0006C30.7571 32.0902 30.6979 32.1644 30.8176 32.2572L30.802 32.2598ZM8.11228 9.22851C8.09039 9.24879 8.07355 9.27343 8.06302 9.30057C8.05249 9.32772 8.04855 9.35666 8.0515 9.38522C8.05445 9.41377 8.06421 9.4412 8.08005 9.46544C8.09588 9.48967 8.11738 9.51008 8.14292 9.52512C8.30108 9.53965 8.38729 9.48344 8.38492 9.32915C8.44687 9.28007 8.48777 9.21123 8.49967 9.13602L8.18475 8.85771C8.19163 9.015 8.07488 9.10283 8.11616 9.22785L8.11228 9.22851ZM20.0755 5.43721C20.1881 5.39537 20.3294 5.42786 20.3998 5.30266C20.41 5.22169 20.4097 5.15005 20.3228 5.10829C20.2684 5.09451 20.2109 5.09428 20.1559 5.10763C20.1008 5.12099 20.0501 5.14747 20.0085 5.18454L20.0151 5.38715C19.919 5.36204 19.8103 5.28626 19.7513 5.43214C19.7959 5.55283 19.8743 5.61491 20.0082 5.58075C20.1421 5.5466 20.0688 5.49119 20.0755 5.43721ZM19.9063 3.57956C20.0023 3.62733 19.9395 3.77388 20.053 3.80734C20.0972 3.79999 20.1377 3.7786 20.1678 3.74671C20.1979 3.71481 20.2159 3.67432 20.2187 3.63193C20.1934 3.5879 20.1539 3.55288 20.1058 3.53192C20.0578 3.51096 20.0037 3.50514 19.9513 3.5153C19.9937 3.43638 20.1375 3.48354 20.1581 3.3706C19.7468 3.22947 19.4947 3.27247 19.5267 3.55376C19.6052 3.61584 19.6737 3.71356 19.8184 3.71908L19.9063 3.57956ZM29.4113 34.0289C29.4719 34.0898 29.5465 34.1365 29.6297 34.1655C29.7128 34.1945 29.8021 34.205 29.8909 34.1961C29.918 34.1168 29.9248 34.0329 29.9109 33.9512C29.897 33.8696 29.8627 33.7927 29.8108 33.7268C29.7802 33.5472 29.5652 33.5273 29.4651 33.4085C29.4903 33.2986 29.7564 33.2909 29.6433 33.0725C29.493 33.0965 29.3508 33.1558 29.2297 33.2449C28.986 33.3846 28.9506 33.4812 29.0731 33.7546C29.1017 33.8176 29.111 33.8873 29.1002 33.9557C29.0893 34.0242 29.0586 34.0888 29.0115 34.1424C29.1759 34.1936 29.2558 34.0064 29.3947 34.0016L29.4113 34.0289ZM31.8791 33.9174L31.662 33.8148C31.612 33.5215 31.7474 33.4493 31.9271 33.4262C31.9255 33.136 31.6338 33.2046 31.5118 33.0745C31.4931 32.9645 31.4282 32.8888 31.2887 32.8899C31.2597 32.9421 31.2494 33.0015 31.2592 33.0591C31.269 33.1167 31.2985 33.1693 31.3431 33.2089L31.463 33.1394C31.452 33.379 31.2642 33.2375 31.1432 33.277C31.0068 33.7643 31.4405 34.1544 31.3448 34.6461C31.4869 34.5744 31.6129 34.4766 31.7155 34.3587C31.8181 34.2408 31.8952 34.105 31.9422 33.9594C32.0046 33.8809 32.1242 33.8567 32.1449 33.7437C32.0813 33.6753 32.0158 33.6186 31.9089 33.6708C31.8021 33.723 31.8681 33.806 31.8625 33.89L31.8791 33.9174ZM34.9172 29.0753L34.8789 29.4591C34.9192 29.5315 34.9872 29.6029 35.0571 29.5909C35.22 29.5632 35.1269 29.696 35.1687 29.7304C35.2104 29.7648 35.3107 29.7439 35.4091 29.6894C35.3905 29.2058 35.1742 28.7334 35.2133 28.2136C34.8278 28.2001 34.528 28.455 34.1063 28.3231C34.1834 28.5175 34.3134 28.601 34.3474 28.7536C34.4454 29.1407 34.4609 29.138 34.9006 29.0479L34.9172 29.0753ZM27.6908 35.1751C27.7523 35.2551 27.8017 35.3109 27.9149 35.2953C28.0521 35.1501 28.2202 35.0339 28.4076 34.9547L28.5345 34.435C28.4318 34.3471 28.3574 34.2335 28.3196 34.1067C28.2818 33.9799 28.282 33.845 28.3202 33.717C28.2583 33.5879 28.1157 33.6877 28.0886 33.5527C28.0842 33.5267 28.073 33.5024 28.0558 33.4818C28.0387 33.4613 28.0163 33.4453 27.9907 33.4354C27.9651 33.4254 27.9371 33.4218 27.9094 33.425C27.8817 33.4281 27.8551 33.4377 27.8321 33.4531C27.6906 33.6999 27.9973 33.8362 27.9903 34.0525C27.8902 34.1676 27.6758 34.1514 27.643 34.3569C27.6119 34.5019 27.8599 34.5048 27.8451 34.6055L27.6908 35.1751ZM38.0722 16.8219C38.0556 16.3267 38.0695 16.2677 38.3638 16.1911C38.3805 16.1015 38.3648 16.0098 38.3194 15.9308C38.1479 15.7676 37.7879 15.9271 37.7102 15.6121C37.6568 15.6237 37.6092 15.6529 37.576 15.6946C37.5428 15.7363 37.5263 15.7876 37.5294 15.8392C37.5878 16.0178 37.862 15.9635 37.8751 16.1575C37.813 16.1951 37.7478 16.2277 37.6801 16.2549C37.3761 16.3445 37.3716 16.3415 37.4353 16.6211C37.4521 16.7201 37.3424 16.8256 37.4909 16.9474C37.5939 17.0148 37.7192 17.0454 37.845 17.0342C37.9419 16.9233 37.7253 16.8471 37.853 16.7536L38.0722 16.8219ZM37.0768 25.4017C37.3128 25.4001 37.5468 25.4354 37.7693 25.5062C37.8859 25.558 37.725 25.6911 37.8326 25.7369C37.8644 25.7463 37.8983 25.7483 37.9313 25.7427C37.9644 25.7371 37.9957 25.7239 38.0226 25.7045C37.9633 25.5674 38.1137 25.4663 38.1125 25.342C38.1112 25.2177 38.0725 25.1074 37.8883 25.1275C37.4599 25.1666 37.3928 25.1479 37.2866 24.8528C37.2173 24.6571 37.1117 24.4827 37.0346 24.2883C36.7657 24.4436 36.9276 24.5971 37.001 24.7468L36.8053 25.0971C36.9332 25.1625 37.03 25.271 37.0768 25.4017ZM37.1671 22.4207C37.2168 22.0802 37.2559 21.7944 37.5541 21.6001C37.7252 21.4804 37.6681 21.309 37.4477 21.2108C37.3706 21.6012 37.0603 21.6542 36.7307 21.6877C36.7356 22.4415 36.8334 22.6173 37.2674 22.7281C37.3024 22.7221 37.3256 22.7182 37.3518 22.6609C37.3779 22.6036 37.1911 22.5147 37.1671 22.4207ZM36.214 28.9786C36.5592 28.9197 36.8807 28.4876 36.7558 28.2938C36.6605 28.2497 36.5774 28.3242 36.4844 28.3174C36.376 28.1984 36.286 28.0651 36.2173 27.9216C35.9616 27.9199 35.8805 28.0998 35.9554 28.2115C36.1123 28.4526 36.0367 28.6881 36.0102 28.9303C36.0023 29.0713 35.9945 29.1896 36.1459 29.2581C36.249 29.1839 36.1328 29.0641 36.214 28.9786ZM29.4908 35.4076C29.9252 35.3335 29.9407 35.3309 29.9225 35.0133C29.9006 34.8849 29.9059 34.752 29.8982 34.6137L29.523 34.3796C29.376 34.6877 28.9816 34.4116 28.7823 34.7173C28.9646 34.6862 29.0548 34.8406 29.244 34.8498C29.2983 34.8405 29.3638 34.6633 29.4844 34.8088C29.3272 34.9865 29.405 35.1619 29.4728 35.3956L29.4908 35.4076ZM32.8586 30.6262C32.797 30.5462 32.7418 30.4801 32.6081 30.6086C32.4743 30.7371 32.6468 30.8359 32.5719 30.9581C32.4969 31.0803 32.325 31.1021 32.324 31.2834C32.5462 31.3926 32.6214 31.8099 33.0663 31.5869C32.9992 31.5231 32.9495 31.4446 32.9215 31.3581C32.8936 31.2716 32.8881 31.1796 32.9057 31.0898C33.0516 30.9857 33.3006 30.9244 33.1574 30.6696C33.031 30.7312 32.8922 30.7652 32.7512 30.7691L32.8586 30.6262ZM36.7947 23.6539C36.8617 23.5557 36.9972 23.5778 37.0166 23.4576C36.986 23.3586 36.9192 23.2738 36.8281 23.2181C36.7385 23.2412 36.6598 23.2933 36.6057 23.3654C36.5803 23.427 36.5618 23.4909 36.5504 23.556L36.8538 24.1645C36.9692 24.2089 37.0978 24.1908 37.2065 24.2666C37.3153 24.3423 37.4102 24.4544 37.5821 24.4326C37.6338 24.3752 37.6697 24.3066 37.6864 24.2332C37.7032 24.1598 37.7003 24.0839 37.6781 24.0126L37.3348 23.8485C37.0577 23.9788 37.0577 23.9788 36.7947 23.6539ZM5.44135 27.1985C5.58786 27.215 5.59827 26.9717 5.7588 27.0236C5.86464 27.1527 5.68221 27.2064 5.69972 27.3091C5.81195 27.3352 5.9128 27.435 6.07497 27.3092C5.95573 27.1484 6.17571 26.9638 6.05148 26.7737C5.93086 26.7452 5.82474 26.8954 5.70063 26.7996C5.39846 26.6662 5.78187 26.2462 5.41113 26.1321C5.15624 26.4397 5.15624 26.4397 5.44135 27.1985ZM37.5374 17.1734C37.4798 17.1343 37.4105 17.1133 37.339 17.1134C37.2675 17.1134 37.1974 17.1344 37.1383 17.1736L36.9809 17.491L37.1273 17.7641C37.3023 17.8469 37.501 17.8762 37.6964 17.8481C37.559 17.6503 37.5026 17.4107 37.5374 17.1734ZM25.3835 4.70538C24.8596 4.48912 24.7451 4.51997 24.4141 4.91977C24.4585 5.18008 24.7044 4.74952 24.8301 5.01859C24.8464 5.11392 25.1894 4.99505 25.2418 5.32568L25.3835 4.70538ZM24.95 36.1671C25.1957 36.227 25.2968 36.0475 25.4414 35.9587C25.4693 35.7282 25.4447 35.4956 25.369 35.2768L25.003 35.4713C24.9511 35.6122 25.1184 35.6101 25.1069 35.7064C25.0954 35.8027 24.8703 35.7467 24.7954 35.8689L24.95 36.1671ZM13.925 5.65249C14.1337 5.75272 14.0591 5.92391 13.9271 6.08603L14.0721 6.14052C14.2901 6.08448 14.1287 5.84035 14.3088 5.74927C14.3717 5.93096 14.2212 6.05474 14.2597 6.2104L14.5168 6.43066C14.5173 6.22305 14.4505 6.04203 14.4756 5.83778C14.4619 5.62933 14.4268 5.42302 14.3705 5.22184C14.2285 5.20833 14.113 5.18653 14.1379 5.35584C14.1628 5.52516 13.9795 5.5036 13.925 5.65249ZM10.0219 8.11422C10.0554 8.00663 10.1745 7.95613 10.1713 7.84349C10.0637 7.7977 9.90903 7.85049 9.88226 7.78715C9.80694 7.62643 10.0215 7.59738 9.91043 7.48427C9.79933 7.37117 9.46824 7.5597 9.30659 7.36089L9.27017 7.40483L9.22961 7.72868C9.53491 7.76339 9.69743 8.03751 10.0219 8.11422ZM7.17616 12.1651C6.91413 12.1337 6.67012 12.0265 6.47712 11.858C6.34923 11.9742 6.24024 12.0607 6.25087 12.24C6.34481 12.2563 6.4336 12.2915 6.51129 12.3433C6.58898 12.3952 6.65376 12.4624 6.70129 12.5404C6.95592 12.5121 6.98572 12.2655 7.17616 12.1651ZM5.69399 24.9821L5.25064 25.4954C5.34347 25.6418 5.50089 25.5583 5.59923 25.6434C5.69757 25.7285 5.643 25.9001 5.86222 25.8514C5.91206 25.7621 5.92994 25.6603 5.91311 25.5616C5.89627 25.4629 5.84567 25.3728 5.76904 25.3051C5.74653 25.1731 5.85964 25.1576 5.87103 25.084C5.85328 25.054 5.82774 25.029 5.79678 25.0112C5.76582 24.9933 5.73045 24.9833 5.69399 24.9821ZM33.4783 32.4108C33.1854 32.347 32.877 32.3719 32.5963 32.482C32.6601 32.6221 32.5326 32.7872 32.6745 32.9403L33.1468 32.7843C33.0436 32.5302 33.3129 32.5409 33.4783 32.4108ZM22.1943 3.98162L21.8178 3.97416C21.7835 4.21771 21.9213 4.41682 21.8677 4.64102C21.941 4.65778 22.0179 4.65688 22.0914 4.63841C22.1649 4.61994 22.2327 4.58449 22.2888 4.53524L22.1943 3.98162ZM12.9469 35.0678C13.1181 34.948 13.3254 34.9466 13.3717 34.7501C13.418 34.5535 13.7891 34.5996 13.538 34.3444C13.3936 34.6445 13.011 34.3437 12.8448 34.6098L12.9469 35.0678ZM5.14836 28.1955C5.34395 27.9848 5.35735 27.7825 5.54129 27.6908L5.54419 27.2866C5.25941 27.2785 5.24025 27.4705 5.2007 27.613C5.16116 27.7556 4.98324 27.5784 4.93956 27.767C4.9816 27.873 5.14763 27.9805 5.14836 28.1955ZM22.8192 5.6559C22.6558 5.42343 22.9369 5.05856 22.5755 4.88249C22.4533 5.04749 22.3682 5.23419 22.3257 5.43068L22.8192 5.6559ZM36.5716 25.4351C36.4022 25.506 36.2535 25.6157 36.139 25.7541C36.3396 26.0406 36.3396 26.0406 36.7669 25.8545L36.5716 25.4351ZM25.6219 34.747C25.8535 34.7943 25.8213 35.0035 25.9459 35.1256C26.1472 35.0422 26.1395 34.8096 26.295 34.7152C26.2207 34.6071 26.2563 34.4879 26.0991 34.409C25.9855 34.5703 25.8167 34.6899 25.6219 34.747ZM7.43832 29.1707C7.30269 29.1712 7.34099 29.0213 7.23263 28.9945C7.15717 29.0904 7.19057 29.2393 7.06807 29.3168C7.22259 29.4037 7.33019 29.5664 7.55967 29.5311C7.63528 29.4511 7.68372 29.3516 7.69852 29.2459C7.71331 29.1402 7.69373 29.0334 7.64241 28.9397C7.51504 28.9652 7.62576 29.1463 7.45384 29.168L7.43832 29.1707ZM12.8368 5.98903C13.055 6.23856 13.1418 6.53691 13.487 6.59499C13.5838 6.38984 13.3047 6.39216 13.3154 6.22056C13.3413 5.97466 13.1263 5.95474 12.8542 5.99738L12.8368 5.98903ZM6.07462 11.4173C5.92359 11.5148 5.98214 11.6708 5.92783 11.797C6.1543 11.8376 6.31009 11.6979 6.52517 11.6951C6.55033 11.5852 6.54621 11.5142 6.48515 11.4605L6.07462 11.4173ZM36.3598 15.4878C36.5707 15.4141 36.6288 15.1929 36.8236 15.1182C36.7927 15.0691 36.7512 15.0269 36.7016 14.9944C36.652 14.9619 36.5956 14.9398 36.536 14.9295C36.5791 15.1825 36.2375 15.0521 36.1906 15.245C36.2102 15.2842 36.2326 15.3219 36.2578 15.3581C36.289 15.4032 36.323 15.4466 36.3598 15.4878ZM21.2061 36.4736C21.3305 36.4071 21.4239 36.3459 21.327 36.2229C21.2302 36.0998 21.4476 36.0174 21.3727 35.9057C21.1516 35.9434 20.914 36.165 20.921 36.2997C20.995 36.3838 21.0943 36.4444 21.2061 36.4736ZM9.79656 9.48453C9.8442 9.56594 9.90915 9.63689 9.98738 9.69299C10.0656 9.74909 10.1555 9.78914 10.2514 9.81066C10.2176 9.61268 10.4104 9.43264 10.2047 9.25644C10.0535 9.30401 9.91425 9.38181 9.79656 9.48453ZM33.4583 10.9042C33.6334 10.9307 33.8139 10.8999 33.9703 10.8169L33.8647 10.5255L33.6061 10.4602C33.5116 10.5918 33.4602 10.7464 33.4583 10.9042ZM38.0051 23.5191C37.9418 23.2884 37.9895 23.0766 37.7658 22.8883C37.6907 23.1502 37.7211 23.3751 37.5845 23.5569C37.7545 23.6411 37.8476 23.5083 38.0032 23.5081L38.0051 23.5191ZM4.24256 24.7807C4.12256 24.8728 4.03297 24.956 4.03934 25.087C4.31122 25.3236 4.31122 25.3236 4.61415 25.204C4.36829 25.1667 4.3877 24.9295 4.24256 24.7807ZM35.8762 29.6663C35.9507 29.6935 36.032 29.7008 36.1113 29.6873C36.1907 29.6737 36.265 29.6399 36.3262 29.5895C36.3336 29.5523 36.3317 29.514 36.3207 29.4779C36.3096 29.4418 36.2898 29.4088 36.2628 29.3815C36.1293 29.4055 35.9925 29.4018 35.8617 29.3707C35.8427 29.4187 35.8341 29.4696 35.8366 29.5205C35.8391 29.5713 35.8526 29.6209 35.8762 29.6663ZM6.21731 12.5815C5.99196 12.5709 5.86045 12.6423 5.74645 12.9334C6.02398 12.7352 6.01771 13.0494 6.19101 13.0123C6.32415 12.8802 6.29913 12.7335 6.2018 12.5841L6.21731 12.5815ZM7.21029 10.6803C7.14974 10.5359 7.25236 10.3184 7.00337 10.2628C6.81429 10.4649 6.81429 10.4649 6.93489 10.7273C7.02377 10.7389 7.11478 10.7234 7.19478 10.6829L7.21029 10.6803ZM36.5691 21.0211C36.7409 20.905 36.7967 21.2086 36.957 21.0719C36.8568 20.8588 36.9286 20.6013 36.7451 20.3911C36.7209 20.6079 36.6616 20.8204 36.5691 21.0211ZM7.12432 28.2659L7.6919 28.0597C7.65236 27.9683 7.62572 27.8823 7.51999 27.8475C7.39112 27.9568 7.22766 28.0219 7.05652 28.0322C7.04265 28.0736 7.04168 28.1178 7.05371 28.1592C7.06575 28.2007 7.09027 28.2378 7.12432 28.2659ZM26.4297 35.4581C26.4039 35.6472 26.4365 35.8383 26.5236 36.0081C26.5765 35.7802 26.8882 35.9459 26.907 35.705L26.4297 35.4581ZM27.8259 4.39818C27.6041 4.33792 27.4489 4.36438 27.4107 4.6086C27.4163 4.64159 27.3968 4.66756 27.4239 4.68559C27.4509 4.70362 27.606 4.79412 27.7233 4.73262C27.7983 4.63559 27.8347 4.51696 27.8259 4.39818ZM30.3707 5.88457C30.23 6.08966 30.149 6.26951 30.3319 6.47601C30.5635 6.28935 30.5713 6.17106 30.3707 5.88457ZM6.46108 27.5603C6.2943 27.4718 6.20208 27.563 6.1006 27.5765L6.03977 27.8283C6.25762 27.678 6.22157 28.0048 6.40137 27.9591C6.45932 27.8332 6.47997 27.6952 6.46108 27.5603ZM18.4833 4.1996C18.5595 4.31866 18.5831 4.48064 18.7595 4.57883C18.8909 4.41305 18.7923 4.2563 18.8486 4.11841C18.7882 4.08923 18.7184 4.08138 18.6516 4.09622C18.5848 4.11107 18.5252 4.14767 18.4833 4.1996ZM19.6623 4.48898C19.8793 4.49725 19.9466 4.35371 20.0052 4.15884C19.7878 4.21855 19.5885 4.05635 19.4527 4.31344C19.5546 4.34889 19.5533 4.45852 19.6623 4.48898ZM38.6521 18.7C38.6058 18.7539 38.5759 18.8186 38.5657 18.8869C38.5555 18.9552 38.5654 19.0246 38.5944 19.0872C38.7499 18.9927 38.976 18.9843 39.0476 18.7722L38.6521 18.7ZM37.39 19.8661C37.3593 19.8998 37.3368 19.9394 37.3241 19.982C37.3113 20.0246 37.3087 20.0692 37.3163 20.1126C37.3633 20.1571 37.4217 20.1893 37.4861 20.2061C37.5504 20.2229 37.6185 20.2236 37.6839 20.2084C37.7272 19.9708 37.64 19.8574 37.3978 19.8648L37.39 19.8661ZM5.8792 11.0205C5.86686 11.0523 5.86205 11.0861 5.86512 11.1195C5.86818 11.1529 5.87905 11.1852 5.89693 11.2139C5.91481 11.2426 5.93926 11.267 5.96851 11.2855C5.99777 11.304 6.03111 11.316 6.06612 11.3207C6.05612 11.145 6.37493 11.1888 6.32915 10.9438L5.8792 11.0205ZM30.9763 7.1886C31.0064 7.36458 30.9144 7.52742 31.0177 7.75881C31.1479 7.58626 31.2343 7.38807 31.2703 7.17996C31.184 7.11921 31.1103 7.13178 30.9763 7.1886ZM33.3721 7.49682C33.2442 7.61296 33.2217 7.7149 33.314 7.83498C33.3739 7.86147 33.4423 7.86657 33.5067 7.84936C33.5711 7.83214 33.6274 7.79374 33.6652 7.74111C33.6438 7.67912 33.6055 7.62389 33.554 7.58099C33.5025 7.5381 33.4398 7.50906 33.3721 7.49682ZM3.16354 20.2334C3.33972 20.143 3.47586 20.0518 3.2987 19.8557C3.18621 19.8748 3.05984 19.836 2.98212 19.9889C2.99 20.0819 3.07683 20.1463 3.16354 20.2334ZM8.27067 11.3974C8.46226 11.0931 8.45713 11.0864 8.0745 11.0196C8.07174 11.1672 8.05221 11.3101 8.27067 11.3974ZM17.3725 6.25293C17.3456 6.09528 17.2342 5.93319 17.4319 5.80514C17.2223 5.74657 17.1121 5.82574 17.0848 5.96999C17.0575 6.11425 17.1388 6.23998 17.3648 6.25426L17.3725 6.25293ZM3.54938 24.6952C3.70754 24.5927 3.72307 24.4731 3.62298 24.3544C3.52288 24.2356 3.46683 24.2112 3.3427 24.3494C3.38449 24.4778 3.45496 24.5957 3.54938 24.6952ZM26.1422 4.84761C26.2838 4.9291 26.3583 5.13146 26.6377 4.9442C26.493 4.872 26.3743 4.7612 26.2959 4.6252C26.2096 4.68141 26.1784 4.73203 26.1422 4.84761ZM26.981 5.45914C27.024 5.26692 27.1555 5.42937 27.206 5.3038C27.1215 5.04277 27.047 4.98003 26.9141 5.06684C26.8566 5.17474 26.8884 5.26742 26.9829 5.47014L26.981 5.45914ZM26.8347 5.98213C26.8878 5.94949 26.9282 5.90126 26.9497 5.845C26.9712 5.78875 26.9724 5.72767 26.9533 5.67137C26.8343 5.58225 26.7272 5.56279 26.62 5.68296C26.7002 5.77869 26.6923 5.91964 26.8366 5.99313L26.8347 5.98213ZM27.2512 6.22425C26.9687 6.04228 26.9454 6.04625 26.8279 6.387C26.9404 6.25085 27.1884 6.48776 27.2531 6.23525L27.2512 6.22425ZM16.2793 6.20925C16.1776 6.03418 16.413 5.86952 16.1905 5.68863C16.1676 5.85855 16.0069 5.94633 16.0358 6.09232C16.0799 6.18668 16.1294 6.21973 16.2831 6.23125L16.2793 6.20925ZM11.0047 32.0826C11.0945 32.188 11.1766 32.2947 11.3991 32.2417C11.2749 32.1459 11.4338 32.0245 11.3079 31.9177C11.1955 31.9508 11.0919 32.0071 11.0047 32.0826ZM5.04043 15.8384C4.96198 15.8933 4.90617 15.9405 4.91993 16.0212C5.20295 16.1125 5.20295 16.1125 5.42718 15.9761C5.26539 16.0339 5.20109 15.8676 5.04431 15.8377L5.04043 15.8384ZM20.007 37.1196C20.0202 37.1966 19.9138 37.2751 19.983 37.3765C20.1674 37.428 20.2521 37.2929 20.3515 37.1967C20.3055 37.1594 20.2508 37.133 20.1916 37.1195C20.1325 37.106 20.0706 37.1058 20.0109 37.1189L20.007 37.1196ZM32.6313 31.7743C32.4534 32.0423 32.4553 32.0533 32.7126 32.2509C32.7538 32.0872 32.726 31.9158 32.6351 31.7736L32.6313 31.7743ZM5.86216 28.7528C5.81338 28.4669 5.77797 28.4465 5.49143 28.6387C5.53936 28.6836 5.59771 28.7172 5.66199 28.7369C5.72626 28.7567 5.79475 28.7622 5.86216 28.7528ZM5.89438 22.0616C5.74198 22.0574 5.60134 22.0285 5.51962 22.2047C5.64812 22.3262 5.78788 22.2797 5.90537 22.2898C5.92425 22.2537 5.93315 22.2137 5.93122 22.1738C5.9293 22.1338 5.91661 22.0952 5.89438 22.0616ZM3.26281 19.4581C3.20251 19.3853 3.1402 19.3243 3.01782 19.3791C2.98983 19.446 2.98139 19.5185 2.9934 19.5889C3.0054 19.6593 3.03741 19.7249 3.08599 19.7787C3.18722 19.6936 3.13906 19.5282 3.26281 19.4581ZM37.4508 13.951C37.3744 14.1112 37.4274 14.2115 37.6041 14.2644C37.6647 14.1995 37.6974 14.1157 37.6958 14.0299C37.6433 13.9559 37.5551 13.9068 37.4431 13.9523L37.4508 13.951ZM38.0243 17.313C38.0348 17.6319 38.0348 17.6319 38.3904 17.5637C38.2474 17.4976 38.2167 17.3179 38.0204 17.3137L38.0243 17.313ZM37.0248 22.9204C37.0117 23.0773 37.1308 23.1438 37.2195 23.2192C37.3397 23.1987 37.3859 23.1418 37.4041 23.0142C37.2683 23.0373 37.1916 22.892 37.0248 22.9204ZM19.2377 36.5642C19.3349 36.6193 19.4096 36.6593 19.5014 36.6361C19.5933 36.6129 19.6274 36.509 19.5666 36.4099C19.4159 36.3451 19.3129 36.3966 19.2377 36.5642ZM26.7164 6.45884C26.731 6.37845 26.723 6.29621 26.6933 6.22046C26.6636 6.14471 26.6131 6.07812 26.547 6.02743C26.5179 6.0648 26.4989 6.10833 26.4919 6.15404C26.4849 6.19974 26.4901 6.24617 26.5069 6.28908C26.5238 6.33199 26.5518 6.37001 26.5884 6.39967C26.625 6.42932 26.669 6.44967 26.7164 6.45884ZM9.73623 9.87967C9.76819 9.80882 9.77834 9.73117 9.76549 9.65584C9.75264 9.58051 9.71732 9.51062 9.66368 9.45437C9.47786 9.65208 9.503 9.77608 9.74786 9.87768L9.73623 9.87967ZM8.02178 11.787C8.09254 11.8121 8.16947 11.8186 8.24453 11.8058C8.31959 11.793 8.39002 11.7613 8.44845 11.7142C8.46273 11.5872 8.3809 11.5521 8.28743 11.519C8.26415 11.64 8.11037 11.6511 8.03341 11.785L8.02178 11.787ZM32.6007 8.45091C32.5119 8.51511 32.3912 8.50929 32.393 8.63726C32.4367 8.68263 32.4822 8.73901 32.5343 8.78672C32.5863 8.83444 32.5886 8.77746 32.6235 8.77151C32.7241 8.68266 32.6808 8.5693 32.6046 8.45024L32.6007 8.45091ZM7.35962 9.84739C7.25101 9.86591 7.12602 9.81177 7.04455 9.94263C7.09522 10.0057 7.07457 10.1186 7.21021 10.1181C7.25936 10.0906 7.29951 10.0505 7.32596 10.0026C7.35242 9.95465 7.36409 9.90082 7.35962 9.84739ZM10.3131 8.69841C10.3403 8.64585 10.3496 8.58689 10.3399 8.52972C10.3301 8.47256 10.3017 8.42002 10.2587 8.37944C10.1775 8.46498 10.088 8.52551 10.0661 8.63112C10.0912 8.66891 10.1301 8.69654 10.1755 8.70891C10.2209 8.72128 10.2698 8.71755 10.3131 8.69841ZM13.408 7.44231C13.3214 7.49711 13.2537 7.57504 13.2137 7.66597C13.1737 7.7569 13.1632 7.85663 13.1836 7.95221C13.2706 7.89776 13.3387 7.81988 13.3787 7.72883C13.4188 7.63779 13.429 7.53789 13.408 7.44231ZM4.74691 15.5451C4.6443 15.6456 4.48889 15.7174 4.48338 15.8957C4.74051 15.882 4.79357 15.7484 4.74691 15.5451ZM7.41128 14.0115C7.28634 14.0028 7.16107 14.0334 7.05492 14.0987C7.06868 14.1794 7.05478 14.2384 7.11784 14.2804C7.25686 14.2529 7.38824 14.2041 7.41128 14.0115ZM32.9375 9.20843C32.8323 9.19997 32.7292 9.15719 32.6611 9.31972C32.6742 9.35808 32.6995 9.39148 32.7336 9.41537C32.7676 9.43926 32.8088 9.45248 32.8515 9.45325C32.8935 9.42888 32.926 9.39214 32.9439 9.34879C32.9618 9.30544 32.9641 9.25795 32.9504 9.21378L32.9375 9.20843ZM34.6726 28.2265C34.7699 28.0477 34.7595 27.9401 34.6419 27.8356C34.4873 27.9827 34.4932 28.0874 34.6726 28.2265ZM6.58075 13.308C6.41758 13.3812 6.46925 13.4968 6.43384 13.5934C6.58161 13.6173 6.68358 13.6301 6.78707 13.4879C6.60801 13.5147 6.67722 13.3821 6.56198 13.315L6.58075 13.308ZM32.9451 29.9399C32.787 29.9027 32.6495 29.8922 32.5916 30.0907C32.7699 30.1999 32.8767 30.1477 32.9288 29.9615L32.9451 29.9399ZM30.3639 34.7229C30.425 34.7107 30.4821 34.6841 30.53 34.6456C30.5779 34.6071 30.6149 34.5579 30.6377 34.5026L30.3014 34.4732C30.2776 34.5154 30.2708 34.5642 30.2823 34.6102C30.2938 34.6563 30.3229 34.6964 30.3639 34.7229ZM20.5808 5.05296C20.5286 5.14486 20.4346 5.2024 20.5238 5.30414C20.6134 5.33791 20.6993 5.34968 20.7566 5.26445C20.7449 5.21914 20.7232 5.17687 20.6929 5.14041C20.6626 5.10396 20.6244 5.07415 20.5808 5.05296ZM6.4293 25.6188C6.33922 25.5587 6.25839 25.5763 6.16554 25.6638C6.23435 25.7162 6.22859 25.8228 6.3402 25.8453C6.42191 25.7861 6.48297 25.7229 6.4293 25.6188ZM37.022 20.6571C37.1522 20.8122 37.2613 20.82 37.3821 20.7088C37.2937 20.5654 37.173 20.5596 37.022 20.6571ZM33.9506 8.10369C34.0054 8.07542 34.0519 8.03426 34.0853 7.98424C34.1188 7.93422 34.1381 7.87705 34.1414 7.81835C33.7938 7.95687 33.7938 7.95687 33.8489 8.04558L33.9506 8.10369ZM9.68354 31.2175C9.53378 31.0884 9.53378 31.0884 9.40814 31.2645C9.51574 31.3103 9.60733 31.3324 9.68354 31.2175ZM4.74784 20.5819C4.90125 20.4048 4.90125 20.4048 4.75524 20.1807L4.74784 20.5819ZM35.7551 30.4302L35.8972 30.0702C35.7875 30.0587 35.7119 30.0603 35.6701 30.1429C35.6548 30.194 35.6546 30.248 35.6696 30.2987C35.6846 30.3494 35.7142 30.3949 35.7551 30.4302ZM15.6192 34.4233C15.4524 34.4517 15.3473 34.4206 15.257 34.5228C15.3936 34.6919 15.4996 34.6814 15.6192 34.4233ZM24.6369 5.38358C24.6284 5.52086 24.7102 5.55595 24.7992 5.58605C24.8277 5.57375 24.8526 5.55489 24.8716 5.5312C24.8906 5.50752 24.903 5.47978 24.9078 5.45056C24.863 5.37519 24.7931 5.2928 24.6447 5.38225L24.6369 5.38358ZM6.4153 15.7548C6.4611 15.6489 6.62315 15.5458 6.43071 15.4239C6.26742 15.5197 6.34749 15.6381 6.4153 15.7548ZM36.4139 13.7694C36.4932 13.9068 36.5698 13.9579 36.7016 13.958C36.7448 13.7431 36.6696 13.6767 36.4139 13.7694ZM15.2057 6.5848C15.2383 6.55409 15.2629 6.51659 15.2774 6.4754C15.2919 6.43422 15.2959 6.39054 15.2891 6.34798C15.2702 6.33523 15.2488 6.3262 15.226 6.32143C15.2033 6.31666 15.1797 6.31622 15.1566 6.32016C15.1335 6.3241 15.1114 6.33233 15.0915 6.34437C15.0717 6.35642 15.0544 6.37203 15.0408 6.39032C15.0343 6.51594 15.1096 6.55969 15.2057 6.5848ZM20.41 35.6209C20.4988 35.7906 20.3791 35.9544 20.6333 35.9941C20.6716 35.8442 20.6794 35.7259 20.41 35.6209Z" fill="#0F197B"/>
<path d="M3.90677 15.8658L3.49261 15.778C3.45621 15.7049 3.49525 15.653 3.51953 15.5847C3.67217 15.6605 3.86849 15.6648 3.92942 15.8581L3.90677 15.8658Z" fill="#0F197B"/>
<path d="M4.1482 13.9116L4.2857 14.156C4.27571 14.189 4.25254 14.2172 4.22116 14.2346C4.18978 14.2519 4.1527 14.257 4.1179 14.2488C4.10627 14.1338 4.02232 14.0161 4.1482 13.9116Z" fill="#0F197B"/>
<path d="M38.4781 26.1324L38.3007 26.2155C38.2873 26.2002 38.2776 26.1823 38.2721 26.163C38.2666 26.1438 38.2656 26.1236 38.269 26.1037C38.2724 26.0839 38.2802 26.0649 38.2919 26.0479C38.3036 26.031 38.3188 26.0166 38.3367 26.0056C38.4156 25.9997 38.4716 26.0241 38.4781 26.1324Z" fill="#0F197B"/>
<path d="M4.25694 26.5063C4.1666 26.4915 4.10605 26.4641 4.08003 26.3818C4.22567 26.323 4.25382 26.371 4.25694 26.5063Z" fill="#0F197B"/>
<path d="M12.0686 13.5415C12.2633 13.4309 12.4906 13.3854 12.7133 13.4127C12.8727 13.5515 12.6055 13.6235 12.6953 13.7516C12.8853 13.8361 13.0175 13.6513 13.1725 13.6475C13.2339 13.5163 13.14 13.4569 13.1009 13.3918C13.2109 13.241 13.2925 13.3214 13.3689 13.3952C13.8212 13.1274 14.3624 13.0351 14.8778 13.1378C14.911 13.3321 14.9404 13.5044 15.2239 13.3882C15.2523 13.2739 15.1062 13.3064 15.0989 13.2171C15.2028 12.8899 15.487 12.8943 15.7841 12.8813L15.9298 13.1734L16.183 12.8095C16.5127 12.7533 16.8431 12.5838 17.2227 12.7265C17.5142 12.4466 17.9452 12.5391 18.3276 12.4173L18.778 12.7178C18.675 12.8863 18.7847 13.0147 18.8512 13.1467L19.0609 13.1827L19.1418 12.7916L18.8377 12.6699C18.8336 12.6098 18.8143 12.5519 18.7813 12.501C18.7483 12.4501 18.7026 12.4078 18.6481 12.3777C19.4704 12.2375 20.2462 12.1051 21.0181 11.9735C21.2082 11.941 21.2762 12.1294 21.4832 12.079C21.5477 11.8718 21.7864 11.9141 21.9663 11.8457C22.1463 11.7773 22.3707 11.7126 22.5674 11.8828C22.6002 11.9111 22.7109 11.8583 22.7846 11.8457C22.7665 11.9733 22.8184 12.0437 22.9836 12.0759C23.0069 11.9549 23.1295 11.8548 23.045 11.7107C23.1924 11.6243 23.3574 11.5691 23.5284 11.5491L24.8201 11.3287C25.0179 11.295 25.2036 11.2369 25.3626 11.4437C25.4912 11.3086 25.5752 11.1924 25.7504 11.1663C26.596 11.022 27.4377 10.8785 28.2864 10.7526C28.4109 10.7407 28.5359 10.7383 28.6604 10.7454C28.6479 10.8127 28.6563 10.8818 28.6846 10.944C28.7129 11.0062 28.76 11.0588 28.8199 11.0954C29.0176 11.0844 29.0173 10.9184 29.1096 10.8046C29.4022 10.789 29.6889 10.874 29.9169 11.0442C29.9183 11.1569 29.8861 11.2683 29.824 11.3656C30.127 11.246 30.188 11.5337 30.3513 11.5549C30.5376 11.5005 30.4184 11.3397 30.5479 11.2799C30.5886 11.2821 30.6283 11.292 30.6646 11.309C31.128 11.5573 31.5279 11.8979 31.8375 12.3078C32.147 12.7178 32.359 13.1876 32.4591 13.6855C32.7328 15.1028 32.9438 16.5269 33.1864 17.9495C33.1986 18.2021 33.1911 18.4556 33.1641 18.7079C33.5049 19.0912 33.4587 19.616 33.5219 20.1033C33.5431 20.2279 33.3914 20.3444 33.3594 20.5083C33.3275 20.6722 33.6141 20.7139 33.4257 20.8969C33.3993 20.9225 33.3789 20.9532 33.366 20.9868C33.3531 21.0203 33.348 21.056 33.351 21.0913C33.354 21.1267 33.365 21.1609 33.3834 21.1915C33.4017 21.2221 33.4269 21.2485 33.4572 21.2688C33.3826 21.3696 33.3339 21.4852 33.3152 21.6062C33.5773 21.7388 33.399 22.0975 33.6686 22.2741C33.7774 22.116 33.6142 21.9552 33.7138 21.8137C33.9682 22.0646 33.9853 22.3522 33.7918 23.1134C33.8131 23.238 33.9641 23.1406 34.0167 23.2146C34.2227 23.5568 33.9862 23.8084 33.8587 24.0905C33.8491 24.1978 33.9756 24.2139 34.0132 24.2943C33.9033 24.9628 33.5951 25.5913 33.1247 26.106C33.0394 26.1205 32.9866 25.9748 32.886 26.0637C32.9141 26.2287 33.0342 26.4647 32.6681 26.448C32.6371 26.4434 32.6053 26.4504 32.5791 26.4675C32.553 26.4846 32.5348 26.5105 32.5281 26.5398C32.4325 26.8919 32.1128 26.8898 31.7998 26.9507C31.7783 27.0218 31.74 27.0877 31.6879 27.1432C31.6358 27.1987 31.5713 27.2424 31.4992 27.2711C31.4271 27.2998 31.3494 27.3126 31.2719 27.3086C31.1945 27.3046 31.1193 27.2839 31.0522 27.248C31.0899 27.0403 31.0639 26.8277 30.9774 26.6357C30.8908 26.4438 30.7474 26.2805 30.5642 26.1654L30.1751 26.4355C30.3541 26.7823 30.339 27.1622 30.5955 27.4957L29.2767 27.7207C29.0961 27.6685 29.2216 27.398 29.0139 27.3505C28.8738 27.4649 29.1237 27.5959 28.9971 27.6967C28.8706 27.7975 28.7657 27.8607 28.2948 27.8618L28.2285 27.2392C27.9614 27.3112 28.1538 27.667 27.8465 27.6439C27.8715 27.7906 28.0316 27.6991 28.0776 27.7818C28.1236 27.8645 27.9894 27.9667 27.8763 27.9822C26.8803 28.1106 25.913 28.4076 24.9009 28.418C24.6933 28.4578 24.4892 28.5141 24.2909 28.5862C23.2553 28.7629 22.2245 28.9915 21.1834 29.0899C20.9151 29.1338 20.649 29.1905 20.3861 29.2598C19.7733 29.3644 19.1565 29.4696 18.5437 29.5741C18.4079 29.5973 18.2642 29.6444 18.1713 29.5206C17.4666 29.8823 16.6834 29.831 15.9732 30.0201C15.9283 29.9674 15.9006 29.9457 15.8963 29.92C15.8919 29.8944 15.8875 29.8687 15.911 29.8194L16.4005 29.834C16.5587 29.7316 16.481 29.5335 16.5629 29.429C16.7076 29.3176 16.7516 29.5289 16.863 29.4797C16.9352 29.1542 16.9301 29.1475 16.4623 28.9557L16.3871 29.0062C16.3066 29.0728 16.3351 29.1698 16.3003 29.2701C15.9814 29.4008 15.6856 29.5786 15.4242 29.7968C15.4667 29.9292 15.6335 29.9007 15.6984 29.9538C15.7634 30.0068 15.7122 30.0344 15.6618 30.043C15.4976 30.0964 15.3226 30.1094 15.1533 30.0807C15.1107 30.0653 15.0449 30.0539 15.0164 30.0739C14.6554 30.2977 14.291 30.1976 13.9234 30.2188C13.807 30.2387 13.7829 30.0504 13.6359 30.1245C13.4888 30.1986 13.4697 30.2736 13.2923 30.2397C13.2164 30.1648 13.12 30.1113 13.0136 30.0849C12.9071 30.0586 12.7945 30.0603 12.6879 30.09C12.5483 30.1138 12.4157 30.0383 12.2719 29.9912C11.6579 29.7471 11.1196 29.362 10.705 28.87C10.2903 28.378 10.012 27.7944 9.89473 27.1707C9.71836 26.3707 9.61956 25.5575 9.48198 24.7509C9.45384 24.5859 9.42694 24.4283 9.59787 24.3539C9.54945 24.2338 9.48088 24.2531 9.41244 24.2497C9.40306 24.1947 9.39305 24.136 9.38367 24.081C9.04347 22.0865 8.70326 20.092 8.36305 18.0975C8.24355 17.4651 8.29409 16.8114 8.51002 16.1965C8.72596 15.5815 9.10036 15.0249 9.59888 14.5778C9.79417 14.3789 10.0287 14.2183 10.2887 14.1055C10.4485 14.0524 10.5947 13.9669 10.717 13.8551C10.8481 13.777 11.0013 13.7403 11.1542 13.7503C11.0774 13.9785 11.2086 14.0693 11.4195 14.1352L11.6165 14.0035L11.4803 13.6494C11.5598 13.5934 11.6537 13.5592 11.7516 13.5505C11.8495 13.5418 11.9475 13.559 12.0347 13.6001C11.962 13.7823 12.1248 13.8941 12.1663 14.0908C12.0995 14.2627 12.0764 14.4465 12.0988 14.627C12.1213 14.8075 12.1887 14.9795 12.2955 15.129C12.3528 15.1334 12.4104 15.1198 12.4595 15.0903C12.5085 15.0608 12.5463 15.017 12.567 14.9657C12.5394 14.9358 12.5188 14.9005 12.5068 14.8623C12.4948 14.824 12.4915 14.7836 12.4972 14.7437C12.5223 14.6564 12.7106 14.7073 12.7067 14.474C12.6375 14.2602 12.5474 14.0533 12.4376 13.8559C12.4574 13.7846 12.5958 13.7534 12.539 13.6311C12.3767 13.633 12.2164 13.6025 12.0686 13.5415ZM31.5991 19.9936C31.468 20.114 31.3943 20.2436 31.553 20.3787C31.6306 20.3655 31.7093 20.3823 31.7459 20.3157L31.6642 20.024C31.7486 19.9341 31.846 19.8496 31.8171 19.7036C31.7474 19.8098 31.4411 19.7225 31.5991 19.9936ZM13.2737 14.3811C13.2994 14.3503 13.3173 14.3145 13.3259 14.2763C13.3345 14.2381 13.3337 14.1987 13.3234 14.1613C13.3132 14.1238 13.2938 14.0893 13.2668 14.0605C13.2398 14.0317 13.2059 14.0094 13.168 13.9954C13.0361 14.1349 13.109 14.2583 13.1258 14.3799L13.1833 14.7172C13.1448 14.9124 12.8279 14.974 13.0438 15.1862L13.3485 14.8664L13.2737 14.3811ZM14.0858 18.9551C14.1757 19.0139 14.2871 19.0365 14.3959 19.0179C14.5047 18.9994 14.6023 18.9412 14.6676 18.8558C14.4821 18.7743 14.3039 18.8764 14.1243 18.8768C14.148 18.847 14.1651 18.8131 14.1746 18.7771C14.1841 18.7411 14.1858 18.7038 14.1796 18.6674C14.1734 18.631 14.1594 18.5964 14.1385 18.5656C14.1176 18.5348 14.0903 18.5084 14.058 18.4882C14.1267 18.4463 14.2038 18.4067 14.2714 18.4518C14.5075 18.5837 14.7623 18.6837 15.0286 18.749C15.7428 19.0045 16.4685 19.2806 17.1852 19.5507C17.3218 19.6029 17.4949 19.6111 17.5689 19.7645C17.5268 19.9151 17.2469 19.8421 17.2655 20.0917C17.4556 20.0593 17.6584 20.0549 17.8336 20.0287C17.9305 20.0122 17.9362 19.9282 17.9308 19.8499C18.117 19.9249 18.309 19.9867 18.5052 20.0349C18.6174 20.0608 18.7191 20.1161 18.7988 20.1945C18.8785 20.2729 18.933 20.3714 18.9562 20.4787C18.9868 20.6583 19.1138 20.9347 18.8474 21.1047C18.84 21.1081 18.8336 21.1132 18.8286 21.1194C18.8237 21.1256 18.8203 21.1328 18.8189 21.1405C18.8175 21.1481 18.818 21.1559 18.8204 21.1632C18.8228 21.1706 18.827 21.1772 18.8327 21.1826C18.9425 21.1941 18.8899 21.354 19.0558 21.3672C19.2217 21.3804 19.4058 21.266 19.6111 21.3932C19.5471 21.1815 19.5311 20.9239 19.3764 20.8598C19.0853 20.7208 19.4109 20.4766 19.205 20.323C19.6732 20.5639 20.2218 20.5269 20.6877 20.8247C20.7241 20.7531 20.7818 20.6928 20.8537 20.6517C20.9255 20.6105 21.0083 20.5903 21.0914 20.5936C21.5161 20.5603 21.928 20.4305 22.2922 20.2152C22.4404 20.1069 22.6242 20.0527 22.8091 20.0629C22.8324 20.059 22.8597 20.0317 22.8856 20.0197C22.9817 19.9279 22.7622 19.788 22.9564 19.7096C23.0728 19.6897 23.087 19.9137 23.2443 19.8529C23.3387 19.7274 23.1033 19.6581 23.1912 19.5412C23.5687 19.1671 23.9753 18.8202 24.4073 18.5037C24.5122 18.4937 24.6175 18.5081 24.7143 18.5454C24.8111 18.5828 24.8964 18.6422 24.9629 18.7184C24.9743 18.7335 24.9894 18.7459 25.0069 18.7544C25.0245 18.7628 25.044 18.7672 25.0638 18.7672C25.0837 18.7671 25.1033 18.7626 25.1211 18.7539C25.1389 18.7453 25.1544 18.7329 25.1663 18.7176C25.1816 18.6433 25.0373 18.5698 25.1592 18.4887C25.2872 18.4668 25.3804 18.4283 25.3858 18.2727C25.2528 18.2652 25.1284 18.0977 24.9892 18.2875C24.9361 18.3095 24.8788 18.3202 24.8213 18.3189C24.7638 18.3176 24.7076 18.3044 24.6566 18.2801C24.9707 18.0152 25.2523 17.771 25.5359 17.5378C25.8066 17.2845 26.0999 17.0539 26.4123 16.8487C26.7466 16.6559 26.9171 16.3212 27.2373 16.1156C27.5367 15.8943 27.8243 15.6589 28.0989 15.4103L28.9353 14.7205C29.143 14.7681 29.2363 14.9408 29.421 14.947C29.6963 14.6888 29.7291 14.6002 29.6096 14.4847C29.5165 14.5006 29.5455 14.624 29.4454 14.6222C29.3453 14.6204 29.2497 14.6216 29.2285 14.4969C29.451 14.21 29.8335 14.0655 30.0331 13.7145C29.8322 13.4129 29.5423 13.1746 29.1986 13.0284C28.8549 12.8821 28.472 12.8342 28.0962 12.8903C27.9976 12.8506 28.0631 12.696 27.9378 12.6872L27.8169 12.821L27.5533 12.7264C27.533 12.8246 27.4796 12.9145 27.4011 12.9824C27.3226 13.0503 27.2234 13.0924 27.1185 13.1024C26.7306 13.1686 26.3117 13.24 25.854 13.3181C25.9581 13.0626 25.6018 13.1272 25.654 13.0353C25.7949 12.7848 25.6203 12.8373 25.4906 12.8028C25.3147 13.0818 25.3147 13.0818 25.6201 13.3278C25.4725 13.4 25.3062 13.4284 25.143 13.4092L25.1092 13.2112C24.8558 13.0952 24.5901 13.004 24.3163 12.939C24.2797 13.0282 24.1027 13.0207 24.145 13.1983C24.2931 13.2428 24.4231 13.3283 24.5183 13.444L24.7221 13.2584C24.7329 13.3059 24.7324 13.3553 24.7205 13.4031C24.7086 13.4508 24.6857 13.4956 24.6534 13.5342L23.8272 13.6751C23.5227 13.753 23.2108 13.7999 22.897 13.8149C22.611 13.8472 22.328 13.9018 22.0506 13.9782C21.7557 14.0375 21.4573 14.0783 21.1574 14.1003C21.1108 13.9913 21.2197 13.9275 21.1594 13.8547C21.0991 13.782 20.9662 13.7519 20.8542 13.7974C20.8202 13.8185 20.7913 13.8462 20.7693 13.8786C20.7472 13.911 20.7327 13.9473 20.7266 13.9852C20.7146 14.0551 20.7516 14.1318 20.5903 14.2159C19.9291 14.2947 19.2179 14.5481 18.4591 14.4285C18.2097 14.7918 17.7617 14.6229 17.4135 14.7578C17.4135 14.7578 17.3626 14.7401 17.3368 14.7294L17.3678 14.6071C17.2552 14.532 17.163 14.6232 17.0609 14.6331C17.026 14.639 16.9868 14.5967 16.952 14.58C16.9516 14.4367 17.2199 14.489 17.1339 14.2886C16.9312 14.2426 16.7169 14.2619 16.5245 14.3435C16.5247 14.4097 16.5511 14.4729 16.5984 14.5207C16.6457 14.5685 16.7106 14.5974 16.7801 14.6017C16.6384 14.6599 16.7024 14.7546 16.7129 14.8396C16.4897 14.7946 16.2617 14.6751 16.0718 14.9188C16.0115 14.846 15.9686 14.7817 15.8728 14.8055C15.7771 14.8294 15.7661 14.952 15.6666 14.9539C15.5672 14.9558 15.4641 14.796 15.2864 14.8075C15.2342 14.8994 15.0947 14.9005 15.0045 14.9801C15.0145 15.0387 15.0519 15.0474 15.0971 15.0548C15.1422 15.0622 15.1357 15.0709 15.1358 15.0482C15.136 15.0256 15.1949 15.1136 15.1814 15.1046C14.9472 15.0653 14.7678 15.2544 14.5785 15.1508C14.5134 15.0261 14.6888 14.9547 14.6138 14.843C14.4669 14.7775 14.3549 15.0569 14.1668 14.8664C14.2129 14.8095 14.3453 14.8133 14.3513 14.6614C14.3574 14.5094 14.3723 14.3861 14.2012 14.2493C14.0533 14.3651 13.8183 14.3448 13.7472 14.5833C13.7317 14.6607 13.7455 14.7404 13.7863 14.8081C13.8271 14.8758 13.8922 14.927 13.9699 14.9528C13.8195 15.0539 13.6572 15.0854 13.6196 15.2389C13.8224 15.3515 13.9517 15.1031 14.182 15.143C13.9129 15.3225 13.592 15.4169 13.266 15.4124C12.9771 15.4146 12.6897 15.4636 12.4165 15.5573C12.1243 15.7166 11.8278 15.4993 11.5356 15.5416L11.5051 15.8071C11.4304 15.884 11.3334 15.7836 11.2761 15.8688C11.0705 16.2548 10.649 16.5455 10.6521 17.0317C10.838 17.1512 11.0421 17.2436 11.2577 17.3057C11.7465 17.4342 12.1958 17.6672 12.5715 17.9871C12.5959 18.0132 12.6624 18.0056 12.6602 18.0626C12.5911 18.1724 12.3834 18.2418 12.5219 18.4219C12.843 18.4087 12.7732 18.0697 12.9831 17.9433C13.3187 18.1087 13.717 18.1502 13.9984 18.4191C13.8172 18.3632 13.7268 18.4654 13.6336 18.6209C13.8126 18.6935 13.9682 18.8085 14.0858 18.9551ZM13.4595 19.9637C13.6013 19.9982 13.7499 20.0032 13.8951 19.9785C14.0404 19.9537 14.1788 19.8997 14.3012 19.8201C13.9127 19.6486 13.9127 19.6486 13.3991 19.9136C13.298 19.8591 13.2223 19.8834 13.1594 20.0299C13.3402 20.0368 13.3177 20.2557 13.475 20.3119C13.6851 20.1629 13.4239 20.0829 13.4517 19.965L13.4595 19.9637ZM26.1361 27.4452C26.1525 27.2839 26.3642 27.3082 26.4197 27.1893C26.2864 27.0158 26.1336 27.0796 25.9537 27.1481C25.9774 27.2874 25.9321 27.4196 26.0821 27.5034C26.2716 27.7013 25.973 27.9635 26.1649 28.176C26.261 28.111 26.3409 28.0267 26.3989 27.9294C26.4569 27.832 26.4914 27.724 26.5 27.6133C26.3843 27.5198 26.299 27.4174 26.1361 27.4452ZM15.7101 20.5909C15.7231 20.6048 15.7395 20.6156 15.7578 20.6225C15.7761 20.6293 15.7959 20.6321 15.8157 20.6305C15.8355 20.629 15.8547 20.6232 15.8719 20.6135C15.8891 20.6039 15.9038 20.5906 15.9149 20.5749L15.9095 20.3796C16.3949 20.0893 16.3949 20.0893 16.3945 19.8064C16.3674 19.811 16.3247 19.8183 16.3092 19.8209C16.2302 19.9394 16.1232 20.039 15.9969 20.1117C15.8706 20.1844 15.7285 20.2281 15.5822 20.2392C15.5689 20.2785 15.561 20.3191 15.5589 20.3601C15.4631 20.4067 15.2863 20.3765 15.3394 20.5711C15.4676 20.6436 15.5926 20.5808 15.7101 20.5909ZM32.7371 19.5278C32.751 19.4688 32.8809 19.458 32.8201 19.3589C32.7032 19.3525 32.5812 19.3393 32.505 19.4542C32.4991 19.5835 32.5876 19.5873 32.6832 19.586C32.5299 19.7405 32.727 19.8427 32.7729 19.948C32.7002 20.0133 32.615 20.0052 32.6306 20.0968L32.7781 20.166C32.5424 20.3986 32.1755 20.4008 31.9077 20.5861C31.9366 20.6482 31.9802 20.7028 32.0353 20.7457C32.0904 20.7887 32.1555 20.8188 32.2254 20.8338C32.3418 20.8139 32.409 20.693 32.556 20.7359C32.6077 20.8516 32.7367 20.9993 32.541 21.1157C32.3453 21.2321 32.5168 21.3953 32.3591 21.5241C32.1686 21.4132 32.0187 21.5406 31.8675 21.6607C31.7164 21.7808 31.6916 21.9398 31.8641 22.0386C32.0366 22.1375 32.1937 22.239 32.3688 22.3298C32.4464 22.3166 32.4876 22.2303 32.5923 22.2125C32.9802 22.1463 32.9758 22.1206 32.8539 21.7566C32.7225 21.8054 32.7454 22.1034 32.4549 21.9454C32.8266 21.7839 32.7185 21.4778 32.7658 21.217C32.7777 21.2866 32.7908 21.3636 32.8648 21.4227C32.9425 21.3639 33.0087 21.2925 33.0603 21.212C33.097 21.1228 33.2071 21.0662 33.189 20.9599C32.9808 20.886 32.9197 21.0662 32.823 21.1544C32.8111 21.0847 32.7992 21.0151 32.8468 20.9428C32.9613 20.795 33.1571 20.8899 33.3002 20.8164C33.1847 20.5948 33.0343 20.3915 32.8541 20.2134C32.9622 20.1685 33.1028 20.1974 33.2024 20.0559C33.1819 19.9358 33.128 19.8236 33.0463 19.7308C32.9645 19.6381 32.8578 19.568 32.7371 19.5278ZM14.3518 13.4237C14.3186 13.3464 14.3218 13.2477 14.2342 13.2023C14.1952 13.1915 14.1532 13.1937 14.1151 13.2084C14.077 13.2231 14.0451 13.2495 14.0245 13.2834C14.0946 13.3746 14.1909 13.4445 14.3024 13.485C14.2451 13.5702 14.0735 13.524 14.0686 13.706C14.1658 13.7611 14.1559 13.9137 14.2801 14.0095C14.4119 13.987 14.5941 13.9785 14.5453 13.8095C14.4965 13.6405 14.7845 13.6669 14.6852 13.5065C14.5872 13.4451 14.4701 13.4161 14.3518 13.4237ZM9.80036 15.9696L10.0973 15.7681C10.0511 15.708 9.98907 15.7186 9.93226 15.7132C9.89378 15.711 9.85684 15.699 9.82526 15.6785C9.79369 15.658 9.76864 15.6297 9.75272 15.5967C9.888 15.1963 9.888 15.1963 9.50589 14.9219C9.52602 15.019 9.52478 15.1193 9.50223 15.2166C9.47969 15.3139 9.43633 15.4062 9.37485 15.4876C9.60294 15.5845 9.56927 15.8317 9.7373 15.9276C9.68265 15.9351 9.63196 15.9599 9.59351 15.998C9.55506 16.0361 9.53111 16.0852 9.52558 16.1372C9.58526 16.2063 9.65145 16.2667 9.76344 16.2212C9.87543 16.1757 9.79923 16.0566 9.80036 15.9696ZM19.0614 27.4144C19.0858 27.2065 19.2783 27.2114 19.4451 27.1829C20.5157 27.0003 21.5862 26.8177 22.6568 26.6351C22.8081 26.6093 22.9558 26.6331 23.113 26.595C24.2448 26.3265 25.4017 26.182 26.5492 25.9825C26.6811 25.96 26.8224 25.9925 26.9371 25.9163C26.9371 25.9163 26.9913 25.9297 27.0209 25.9397C27.0463 25.9729 27.0631 26.0114 27.07 26.0521C27.077 26.0928 27.0739 26.1347 27.0609 26.1744C26.7235 26.232 26.8091 26.523 26.6588 26.7184C26.8033 26.7466 26.8937 26.7387 26.9305 26.6268C26.9673 26.5148 27.0275 26.3763 27.1453 26.3411C27.3963 26.2681 27.4237 26.1012 27.3969 25.9209C27.5193 25.8341 27.6626 25.7781 27.813 25.7584C27.9634 25.7387 28.1159 25.7559 28.2559 25.8083C28.5156 25.5754 28.846 25.6171 29.1383 25.5522C29.4306 25.4872 29.7318 25.4509 30.0227 25.4013C30.3136 25.3517 30.6075 25.2261 30.9052 25.3564C30.9111 25.2271 30.9341 25.1515 31.1188 25.1578C31.2041 25.1432 31.15 24.8959 31.3458 24.8738C31.4654 24.9666 31.2845 25.0993 31.3775 25.2004C31.4033 25.2172 31.4329 25.2281 31.464 25.2322C31.4952 25.2363 31.527 25.2335 31.5571 25.224C31.5872 25.2145 31.6147 25.1985 31.6374 25.1774C31.6601 25.1562 31.6775 25.1305 31.6881 25.1021C31.7325 25.0153 31.7434 24.917 31.7189 24.8245C31.6943 24.732 31.6359 24.6514 31.554 24.5968C31.5593 24.4638 31.6845 24.3557 31.6389 24.205C31.4122 24.2495 31.1782 24.2354 30.9616 24.1641C30.745 24.0928 30.5538 23.967 30.4082 23.7999C30.2704 23.9517 30.1328 23.8469 30.0059 23.7818L27.4484 22.8295C27.2525 22.7573 27.0299 22.7161 27.0051 22.4071C26.8474 22.4712 26.6754 22.4953 26.5064 22.4772C26.3373 22.459 26.1771 22.3992 26.0414 22.3036C25.7615 22.1662 25.4672 22.0558 25.163 21.9743C24.9928 21.9497 24.8349 21.8782 24.7088 21.7688C24.8345 21.453 24.8345 21.453 24.6287 21.2995C24.5783 21.542 24.4663 21.7045 24.1675 21.6611C24.1132 21.6704 24.0296 21.7186 23.9654 21.7635C23.4777 22.0949 22.94 22.3533 22.3717 22.5296C21.3551 22.8694 20.2601 22.9143 19.2282 22.6584C19.1016 22.6123 18.9659 22.5918 18.8296 22.5982C18.6933 22.6045 18.5593 22.6376 18.4361 22.6954C18.3668 22.7336 18.2833 22.6422 18.2645 22.6718C18.1648 22.8133 18.3234 22.8768 18.2349 22.99C18.1081 23.1168 17.9646 23.2275 17.8081 23.3194C17.7276 23.269 17.6798 23.1526 17.5518 23.1745C17.5269 23.2314 17.5191 23.2935 17.5294 23.3537C17.5396 23.414 17.5676 23.47 17.61 23.5154L12.7186 27.6021C12.903 27.8876 13.1992 27.9389 13.4219 28.0745L13.3511 28.2677C13.4552 28.3138 13.5716 28.3306 13.6867 28.3161C13.7681 28.3022 13.7028 28.2001 13.7913 28.2039L13.8244 28.3982C14.0079 28.3303 14.1751 28.2272 14.3157 28.0956C14.5038 27.9579 14.7425 28.1171 14.9534 28.0434C15.0116 28.0335 15.0592 27.9612 15.118 27.955C15.5109 27.9182 15.8987 27.6407 16.2382 28.0167C16.4608 27.8183 16.7359 27.6813 17.0329 27.6208C17.6497 27.5156 18.2703 27.4097 18.8637 27.3085C18.9269 27.3279 18.8948 27.4202 19.0614 27.4144ZM14.0797 20.7445C14.0497 20.5685 14.2235 20.5578 14.1655 20.4054C14.0458 20.3353 13.9894 20.1449 13.8004 20.0904C13.666 20.2152 13.6443 20.4151 13.4363 20.5298C12.756 20.2157 11.9474 20.1084 11.2811 19.5957C11.2478 19.775 11.055 19.6041 10.9669 19.7663C11.0543 20.1161 11.0208 20.4855 10.8712 20.8202C11.1663 20.8415 11.1872 21.0342 11.2171 21.2328C11.4191 22.417 11.6217 23.6049 11.8237 24.7892C11.8203 24.9478 11.8676 25.1029 11.9594 25.2339C12.1204 25.181 12.2645 25.0887 12.3768 24.9665L15.1754 22.6516C15.3123 22.5415 15.4228 22.417 15.6609 22.4556C15.899 22.4943 15.8561 22.3129 15.7651 22.1775C15.9316 21.9831 16.1918 21.8708 16.3588 21.5858L14.0797 20.7445ZM30.5616 16.3447C30.5266 16.3507 30.4879 16.3573 30.4685 16.3606C29.1405 17.4524 27.8166 18.5447 26.4968 19.6377C26.4038 19.7171 26.3156 19.8014 26.2325 19.8902C26.2325 19.8902 26.2369 19.9159 26.2388 19.9269C26.2386 19.9469 26.242 19.9667 26.2488 19.9856C26.7846 20.2715 27.4032 20.4112 27.9592 20.6522C28.5152 20.8931 29.1637 21.1145 29.7604 21.3599C30.3386 21.6082 30.9413 21.8036 31.5604 21.9433C31.5219 21.503 31.4567 21.0656 31.365 20.6334C31.2615 20.2608 31.1964 19.879 31.1705 19.4932C31.1506 19.1193 31.0182 18.7645 30.9828 18.3933C30.8903 17.8507 30.7952 17.2934 30.7058 16.7691C30.6673 16.6134 30.6843 16.4558 30.5616 16.3447ZM32.3543 24.8187C32.4385 24.8911 32.5301 25.0302 32.7085 24.9998C32.8869 24.9693 32.9794 25.0668 33.1426 24.9937C33.1701 24.921 33.2977 24.8502 33.2096 24.7785C33.0385 24.6643 32.9699 24.9175 32.8498 24.7983C32.6507 24.5908 32.9313 24.1996 32.5303 24.0718L32.8252 23.8819C32.9079 23.9923 33.0492 24.0248 33.0844 24.1848C33.0988 24.2691 32.9575 24.3536 33.0065 24.5C33.3825 24.3641 33.309 24.0975 33.2974 23.8655C33.3789 23.8423 33.4498 23.7931 33.4981 23.7263C33.5464 23.6596 33.5691 23.5795 33.5623 23.4996C33.2552 23.337 33.354 23.0975 33.5007 22.8574C33.2758 22.723 33.0857 22.5429 32.9437 22.3299C32.761 22.6629 32.7705 22.6952 33.1326 22.9692C33.1743 23.0036 33.1463 23.0499 33.1169 23.1115L32.8909 22.9803C32.7825 22.9761 32.7726 23.1288 32.6352 23.0956C32.5227 22.9978 32.5147 22.8105 32.3319 22.6983L32.0226 22.687C31.962 22.8935 32.0851 23.0536 32.1077 23.1856C32.2871 23.3248 32.4407 23.4532 32.6697 23.3915C32.616 23.7554 32.1592 23.7918 32.0326 24.1265C32.2278 24.2301 32.3804 24.3923 32.4667 24.5883C32.4269 24.6592 32.3273 24.6837 32.3543 24.8187ZM11.0507 14.5943C10.9785 14.6858 10.8719 14.5757 10.7831 14.6399C10.7887 14.8605 10.826 15.0788 10.8937 15.2889C11.1822 15.1803 11.497 15.1569 11.7964 15.2217L11.8333 14.9701C11.797 14.7575 11.6733 14.8276 11.5986 14.7876C11.6075 14.6993 11.7137 14.6434 11.6885 14.5421C11.6632 14.4407 11.6093 14.382 11.475 14.3672C11.3079 14.373 11.142 14.4013 10.9824 14.4512C10.9727 14.5585 11.0373 14.5626 11.0585 14.5929L11.0507 14.5943ZM17.7117 13.8618C17.7438 13.6752 17.6329 13.6338 17.4734 13.6346C17.4734 13.6346 17.4703 13.6162 17.4659 13.5906C17.6308 13.5078 17.8093 13.4531 17.9932 13.4289C17.9296 13.2089 17.8159 13.0055 17.66 12.833C17.6307 13.1059 17.396 13.1573 17.2028 13.2883C17.2948 13.5707 17.0531 13.8383 17.1388 14.1067C17.4896 14.3147 17.4326 13.7698 17.7272 13.8591L17.7117 13.8618ZM12.109 19.7224C12.1702 19.7026 12.2267 19.6714 12.2753 19.6307C12.3239 19.59 12.3636 19.5406 12.392 19.4855C12.3069 19.2892 12.1936 19.1054 12.0553 18.9392C12.0162 18.8742 11.9153 18.914 11.8225 18.9789C11.8936 19.0913 11.931 19.217 11.7284 19.293C11.6128 19.06 11.4071 19.1177 11.186 19.1554C11.2885 19.5454 11.6093 19.4605 11.8862 19.4925C11.951 19.5682 11.9322 19.6922 12.1252 19.7234L12.109 19.7224ZM26.9949 13.0329C27.1291 12.9308 27.0925 12.7861 27.137 12.6729C27.2129 12.626 27.331 12.6398 27.3723 12.5309C27.3842 12.4397 27.3668 12.3478 27.3224 12.2671C27.278 12.1865 27.2087 12.1209 27.1236 12.079C26.8861 12.2121 26.7016 12.4164 26.5997 12.6589C26.8282 12.6878 26.7087 13.0402 27.0091 13.0229L26.9949 13.0329ZM24.6602 12.4275C24.5676 12.2358 24.5018 12.1074 24.33 12.1066C24.2571 12.1131 24.1865 12.1354 24.1235 12.1716C24.0605 12.2079 24.0068 12.2572 23.9665 12.3157C23.8741 12.4522 23.727 12.4094 23.6221 12.4726C23.6333 12.5342 23.6587 12.5924 23.6963 12.6434C23.7339 12.6943 23.783 12.7366 23.84 12.7674C24.0942 12.6038 24.377 12.4852 24.6745 12.4176L24.6602 12.4275ZM31.7664 26.0056C31.8365 26.0863 31.9264 26.1495 32.0285 26.1899C32.1305 26.2303 32.2417 26.2466 32.3528 26.2376L32.4287 25.9568C32.295 25.9456 32.149 25.9555 32.052 25.855C32.0603 25.7993 32.0552 25.7428 32.0372 25.6897C32.0191 25.6366 31.9886 25.5883 31.9478 25.5483C31.7969 25.5062 31.6433 25.3777 31.4217 25.3891C31.5582 25.6978 31.5582 25.6978 31.796 25.7817L31.7664 26.0056ZM27.2761 18.1917C27.232 17.7465 27.232 17.7465 27.5614 17.5243L27.5201 17.2823C27.3879 17.2558 27.267 17.1557 27.0913 17.2724C27.1219 17.2941 27.1459 17.323 27.161 17.3564C27.1761 17.3897 27.1819 17.4263 27.1776 17.4627C27.1734 17.4991 27.1594 17.534 27.1369 17.564C27.1144 17.5941 27.0842 17.6183 27.0492 17.6343C26.9948 17.6875 26.9531 17.7511 26.927 17.8208C26.901 17.8904 26.8912 17.9643 26.8984 18.0373C26.9393 18.0941 26.9963 18.1387 27.063 18.1659C27.1298 18.1932 27.2035 18.2021 27.2761 18.1917ZM20.474 13.417C20.4116 13.2617 20.257 13.2918 20.1661 13.2733C20.0751 13.2549 20.0658 13.4112 19.9752 13.4417L19.7219 13.3604C19.6609 13.518 19.6691 13.6826 19.5488 13.8201C19.4285 13.9576 19.5021 14.0846 19.7006 14.1715C19.6884 13.7963 19.9411 13.6626 20.2463 13.603C20.298 13.5983 20.347 13.5778 20.386 13.5446C20.425 13.5114 20.4518 13.4674 20.4624 13.419L20.474 13.417ZM9.43348 20.1373C9.32463 20.0841 9.28722 19.9585 9.13019 19.9739C9.11595 20.1145 9.0698 20.2511 8.9949 20.3743C9.05997 20.4563 9.15125 20.516 9.25553 20.5449C9.33711 20.5084 9.30371 20.3594 9.44247 20.3772C9.50165 20.4199 9.50415 20.5516 9.63366 20.4917C9.74867 20.1363 9.73441 20.0293 9.5655 19.9751C9.48529 19.9964 9.4978 20.0697 9.43348 20.1373ZM31.2266 23.6603L30.8991 23.0974C30.8904 23.1767 30.86 23.2527 30.8109 23.318C30.7618 23.3833 30.6957 23.4356 30.6193 23.4696C30.7857 23.6261 30.7666 23.9124 31.0388 23.9867C31.0924 23.9475 31.1368 23.8981 31.1692 23.8419C31.2015 23.7857 31.2211 23.7238 31.2266 23.6603ZM25.667 12.4558C25.5751 12.362 25.5843 12.2284 25.5307 12.1017L25.1239 12.1975C25.1096 12.4033 25.1653 12.6067 25.2828 12.7779C25.4486 12.7202 25.5861 12.605 25.667 12.4558ZM14.9204 28.8791C14.8168 29.1006 14.7848 29.3452 14.8286 29.5815C14.9372 29.5629 15.0108 29.69 15.1638 29.6979C15.1688 29.6102 15.3301 29.6431 15.3173 29.4981C15.0847 29.3982 15.083 29.1306 14.9204 28.8791ZM14.8265 19.2023C14.7206 19.4241 14.3804 19.2783 14.3277 19.5779L14.4617 19.755C14.5829 19.6928 14.6668 19.5766 14.8459 19.6668C14.8852 19.6865 15.0405 19.5204 15.1417 19.4352L14.8265 19.2023ZM20.9414 21.8907C20.8887 21.7224 20.9696 21.5879 21.1659 21.4751C21.0065 21.4598 20.845 21.4859 20.6985 21.5508C20.552 21.6156 20.4262 21.7168 20.3346 21.8433C20.412 21.9697 20.4857 22.0741 20.5911 21.9429C20.6964 21.8118 20.8145 21.9426 20.9414 21.8907ZM18.5087 27.9652C18.2124 27.9365 18.2077 28.3297 17.8785 28.2953C18.0763 28.4955 17.7195 28.6507 17.9698 28.8306C18.0423 28.6711 18.2063 28.579 18.3026 28.4418C18.399 28.3046 18.514 28.1831 18.5087 27.9652ZM27.8388 26.9435C28.0045 27.002 28.1511 27.1128 28.2972 26.9634C28.3829 26.6696 28.0951 26.6205 27.9559 26.4368C27.9851 26.6157 27.9441 26.7998 27.8407 26.9545L27.8388 26.9435ZM29.3901 23.1435C29.4058 23.1426 29.4215 23.14 29.4366 23.1356L29.5339 23.0737C29.5936 23.2091 29.6837 23.3302 29.798 23.4286C29.8945 23.0349 29.8612 22.9802 29.4004 22.806C29.2872 22.9385 29.3577 23.0472 29.392 23.1545L29.3901 23.1435ZM24.6187 20.3278L24.2452 20.3613C24.2259 20.4337 24.2223 20.5087 24.2348 20.5819C24.2473 20.655 24.2755 20.7247 24.3177 20.7866C24.4035 20.7984 24.4794 20.8684 24.5715 20.7999L24.6187 20.3278ZM13.3286 26.4039C13.0853 26.3586 13.0021 26.5728 12.7425 26.6887C12.8478 26.7273 12.9616 26.7418 13.0748 26.731C13.1881 26.7202 13.2975 26.6844 13.3945 26.6266C13.4089 26.5865 13.4103 26.5434 13.3984 26.503C13.3866 26.4625 13.362 26.4267 13.3279 26.4002L13.3286 26.4039ZM30.5213 11.99C30.5711 12.0947 30.5588 12.2099 30.6494 12.2964C30.7047 12.3098 30.7633 12.3074 30.8177 12.2894C30.8722 12.2713 30.9201 12.2385 30.9555 12.1951C30.9193 12.0668 30.8513 11.9491 30.7572 11.8516L30.5213 11.99ZM29.8316 26.9959C29.6991 27.3657 29.5505 26.9156 29.3935 27.048C29.471 27.2687 29.6355 27.4142 29.7681 27.3954C29.8783 27.3162 29.926 27.2213 29.8316 26.9959ZM24.7459 27.6031C24.6665 27.7223 24.8355 27.8708 24.6987 27.9582C24.562 28.0457 24.4731 28.1099 24.6235 28.2427C25.0227 28.0086 25.0518 27.8754 24.7653 27.5998L24.7459 27.6031ZM15.6313 19.7781C15.6436 19.5458 15.8199 19.3158 15.5275 19.1695C15.5519 19.3125 15.4035 19.4019 15.3647 19.5255C15.4126 19.6192 15.4455 19.7419 15.6313 19.7781ZM31.2332 12.1855C31.1914 12.2217 31.1608 12.2681 31.1449 12.3195C31.129 12.3709 31.1284 12.4251 31.1431 12.4763C31.3378 12.6581 31.4383 12.475 31.5616 12.3785C31.5298 12.3217 31.4828 12.274 31.4252 12.2402C31.3677 12.2063 31.3015 12.1875 31.2332 12.1855ZM11.657 18.8977L11.8584 18.4634C11.6845 18.5156 11.5237 18.6022 11.3868 18.7174C11.3907 18.7468 11.4009 18.775 11.4168 18.8002C11.4328 18.8254 11.4541 18.8471 11.4794 18.8641C11.5048 18.881 11.5336 18.8927 11.5642 18.8985C11.5947 18.9043 11.6263 18.904 11.657 18.8977ZM28.1321 11.79C28.0614 11.9606 27.8725 12.0003 27.6909 12.1521C27.9343 12.152 28.0919 12.1629 28.2495 12.0341C28.261 11.9864 28.2557 11.9366 28.2345 11.8926C28.2133 11.8485 28.1773 11.8125 28.1321 11.79ZM32.6252 18.9885C32.9118 19.1245 32.9118 19.1245 33.0674 18.9131C32.7603 18.8447 32.7603 18.8447 32.6252 18.9885ZM19.8551 12.6435C19.996 12.9552 19.996 12.9552 20.3821 12.8781C20.1671 12.8581 20.1183 12.5722 19.8551 12.6435ZM27.9208 17.8063C27.8572 17.6436 27.926 17.4621 27.6825 17.3452C27.7996 17.5402 27.6618 17.692 27.6023 17.8342C27.7208 17.897 27.7926 17.8735 27.9208 17.8063ZM30.3071 15.7656C30.279 15.6006 30.3306 15.3654 30.0237 15.3913C29.9241 15.6498 30.1137 15.708 30.3071 15.7656ZM22.1061 21.511C22.2252 21.8113 22.3742 21.8425 22.5907 21.7075C22.5155 21.5241 22.3429 21.5422 22.121 21.5046L22.1061 21.511ZM16.1943 13.7886C16.0406 13.6828 15.8772 13.5673 15.7209 13.7977C15.8808 13.9628 16.0382 13.8794 16.1943 13.7886ZM32.4586 25.1028C32.5377 25.2947 32.6696 25.4624 32.8408 25.5884L32.9566 25.448C32.8021 25.3611 32.7671 25.1558 32.4586 25.1028ZM29.8936 14.7457C29.9965 14.5999 30.1303 14.4714 29.9664 14.3296C29.9298 14.3171 29.8898 14.3161 29.8522 14.3266C29.8145 14.3371 29.7811 14.3586 29.7568 14.388L29.8936 14.7457ZM17.9679 14.4746C18.0364 14.431 18.0892 14.3685 18.1191 14.2958C18.1489 14.2231 18.1542 14.1437 18.1343 14.0689C17.8229 14.1862 17.8171 14.1985 17.9679 14.4746ZM31.2077 25.5387C31.1557 25.5136 31.0962 25.5054 31.0381 25.5153C30.98 25.5252 30.9265 25.5527 30.8858 25.5937C30.973 25.7071 31.0538 25.8065 31.2181 25.7634C31.2453 25.7305 31.2592 25.6897 31.2573 25.6484C31.2554 25.6071 31.2378 25.5682 31.2077 25.5387ZM9.03714 21.2538C9.13209 21.4828 9.13209 21.4828 9.36658 21.4768C9.39687 21.2565 9.23083 21.266 9.03714 21.2538ZM18.8824 13.9149C18.6574 13.9533 18.4657 13.8124 18.3839 14.1282C18.5597 14.1058 18.7242 14.1343 18.8715 13.8979L18.8824 13.9149ZM31.2087 22.7126C30.9184 22.8829 30.9184 22.8829 31.182 23.0944C31.1627 22.9581 31.3046 22.8773 31.2087 22.7126ZM28.9696 26.1544C28.8923 26.0054 28.8412 25.8934 28.6464 25.9681C28.6136 26.1737 28.6797 26.2567 28.9696 26.1544ZM27.2556 26.8241C27.433 26.741 27.4364 26.5971 27.463 26.4718C27.4895 26.3465 27.4029 26.3538 27.2768 26.3866C27.3007 26.5033 27.1857 26.6247 27.2537 26.8131L27.2556 26.8241ZM26.8134 27.3674C26.7164 27.3839 26.6383 27.3708 26.5843 27.4517C26.608 27.5911 26.6859 27.6495 26.8378 27.6273C26.9061 27.5365 26.9007 27.4581 26.8115 27.3564L26.8134 27.3674ZM26.7728 12.0823C26.8671 11.9794 26.9514 11.9122 26.9592 11.7939C26.8437 11.7721 26.7237 11.6303 26.6062 11.8541L26.7728 12.0823ZM26.4109 16.981C26.362 17.0344 26.3367 17.1034 26.3405 17.1732C26.3442 17.2431 26.3766 17.3083 26.4308 17.3549C26.5755 17.2208 26.6052 17.1139 26.4207 16.968L26.4109 16.981ZM23.2285 13.4414L23.5 13.3951C23.5186 13.2939 23.5172 13.2149 23.4095 13.1691C23.2699 13.1929 23.2075 13.2715 23.2285 13.4414ZM15.0868 20.3539C14.8591 20.306 14.7318 20.3088 14.6907 20.512C14.8183 20.5582 14.9488 20.551 15.0868 20.3539ZM25.6655 19.1871C25.7461 19.0979 25.8681 19.228 25.9353 19.1071C25.9409 19.0231 25.9421 18.9362 25.8188 18.9157C25.6956 18.8952 25.6368 19.0184 25.6558 19.2001L25.6655 19.1871ZM22.7742 13.3756C22.6637 13.617 22.6637 13.617 22.9474 13.6894C23.0071 13.5245 22.8744 13.4717 22.7742 13.3756ZM32.2517 22.4856C32.1546 22.4079 32.0931 22.3278 31.9562 22.321L31.8863 22.5668C31.9487 22.5856 32.0156 22.588 32.0799 22.5737C32.1442 22.5594 32.2035 22.529 32.2517 22.4856ZM8.96163 16.3881C9.04008 16.4502 9.07724 16.5042 9.10439 16.4996C9.23574 16.4853 9.35778 16.4255 9.44699 16.3317C9.22916 16.1312 9.14006 16.3577 8.96163 16.3881ZM30.4574 23.3161C30.3109 23.2996 30.1744 23.2248 30.0022 23.2919C30.0277 23.3403 30.0634 23.3831 30.107 23.4178C30.1507 23.4524 30.2014 23.4783 30.2562 23.4938C30.3006 23.4789 30.3415 23.4553 30.3761 23.4247C30.4107 23.3941 30.4384 23.3572 30.4574 23.3161ZM29.326 25.8333C29.1836 26.0048 29.1358 26.1223 29.3652 26.2039C29.4583 26.0711 29.4292 25.9704 29.3221 25.834L29.326 25.8333ZM19.6368 27.886C19.5875 27.8848 19.5388 27.8994 19.4987 27.9275C19.4586 27.9555 19.4294 27.9954 19.4157 28.0406C19.4839 28.0894 19.4703 28.22 19.6054 28.1932C19.6315 28.1765 19.6535 28.1546 19.6696 28.129C19.6858 28.1034 19.6958 28.0748 19.6988 28.0453C19.7018 28.0159 19.6978 27.9862 19.6871 27.9586C19.6764 27.931 19.6592 27.9062 19.6368 27.886ZM29.3547 26.7038C29.5041 26.433 29.5041 26.433 29.2922 26.3371C29.2721 26.3992 29.2673 26.4646 29.2782 26.5282C29.289 26.5917 29.3152 26.6518 29.3547 26.7038ZM12.4476 18.1969C12.1995 17.9827 12.1995 17.9827 12.0366 18.1274C12.1532 18.1792 12.2509 18.2607 12.4476 18.1969ZM25.1945 21.4105C25.1165 21.2804 25.246 21.2206 25.1464 21.1282C25.0509 21.1067 24.9631 21.1066 24.9263 21.2186C24.8895 21.3305 25.0076 21.3443 25.1945 21.4105ZM12.3369 26.9088C12.3828 26.7803 12.6046 26.7462 12.5179 26.5422C12.3449 26.6283 12.1838 26.6897 12.3369 26.9088ZM31.9382 23.6899L31.6086 23.8404C31.8375 24.0353 31.9087 23.8911 31.9382 23.6899ZM28.748 26.2828C28.6365 26.4716 28.7886 26.5211 28.9114 26.6322C28.9175 26.4576 28.9732 26.3161 28.748 26.2828ZM25.4532 11.6471C25.3101 11.716 25.1897 11.8216 25.1059 11.9516C25.3471 11.9142 25.3471 11.9142 25.4377 11.6497L25.4532 11.6471ZM13.5528 19.1064C13.6441 18.9399 13.6441 18.9399 13.5449 18.7794C13.3596 18.8865 13.5081 19.0083 13.5411 19.1083L13.5528 19.1064ZM15.1465 14.4088C15.0728 14.4213 15.0146 14.4313 15.0078 14.5079C15.0179 14.5581 15.0418 14.6047 15.077 14.6431C15.1123 14.6814 15.1577 14.7101 15.2087 14.7264C15.2268 14.6712 15.2283 14.6126 15.2132 14.5572C15.1982 14.5018 15.167 14.4518 15.1232 14.4127L15.1465 14.4088ZM12.3723 19.885L12.6393 20.0696C12.6708 19.9737 12.7429 19.9048 12.6795 19.8137C12.6268 19.7983 12.5704 19.7967 12.5163 19.8093C12.4622 19.8218 12.4124 19.848 12.3723 19.885ZM25.6926 17.6846C25.6787 17.8605 25.7085 17.9648 25.899 17.9814C25.9289 17.8292 25.9107 17.7228 25.6926 17.6846ZM32.0817 16.9721C32.1769 16.8049 32.1923 16.708 31.9987 16.6731C31.9076 16.7942 31.922 16.8786 32.0817 16.9721ZM28.7054 12.2959C28.8091 12.4594 28.9208 12.4592 29.0628 12.3557C28.9641 12.2216 28.868 12.1965 28.7054 12.2959ZM26.3462 19.0823C26.0475 19.2502 26.0475 19.2502 26.1373 19.4726L26.3462 19.0823ZM24.344 20.2388C24.239 20.068 24.1438 20.0013 23.9812 20.1007C23.9424 20.1073 23.9369 20.1686 23.9792 20.2293L24.344 20.2388ZM20.1098 21.1572C20.2765 21.1288 20.3855 21.1593 20.4914 21.0544C20.3515 20.8896 20.2455 20.9002 20.1098 21.1572Z" fill="#0F197B"/>
<path d="M22.7621 11.8307C22.7741 11.7607 22.6999 11.747 22.664 11.7003C22.7193 11.6677 22.7826 11.6499 22.8472 11.6489C22.9118 11.6478 22.9751 11.6636 23.0302 11.6944L22.7698 11.8294L22.7621 11.8307Z" fill="#0F197B"/>
<path d="M34.8999 29.048C34.917 28.9847 34.8994 28.9047 35.0005 28.8422C35.0243 28.8668 35.04 28.8975 35.0456 28.9307C35.0513 28.9639 35.0467 28.9981 35.0324 29.0292L34.8966 29.0523L34.8999 29.048Z" fill="#0F197B"/>
<path d="M29.7319 33.7592C29.7113 33.8157 29.6709 33.8643 29.6176 33.8967C29.5644 33.9291 29.5013 33.9435 29.439 33.9374C29.3947 33.6544 29.6135 33.7907 29.7319 33.7592Z" fill="#0F197B"/>
<path d="M11.2418 14.7315C11.251 14.9261 11.0964 14.8619 11.0386 14.9208C11.045 14.8179 11.1421 14.7787 11.2418 14.7315Z" fill="#0F197B"/>
</svg>
