<svg width="18" height="18" viewBox="0 0 18 18" fill="none" xmlns="http://www.w3.org/2000/svg">
<path d="M9.00319 9.62614e-08C5.40206 -0.000524904 2.14744 2.14646 0.730047 5.4576L0.617871 5.4948L0.661362 5.6253C-1.20485 10.229 1.01353 15.4743 5.61629 17.3409C6.69131 17.7768 7.84048 18.0006 9.00052 18C13.97 18.0007 17.9992 13.9719 18 9.00135C18.0007 4.0308 13.9727 0.000712596 9.00319 9.62614e-08ZM16.0612 13.5376L15.5991 13.0758V12C15.5997 11.9536 15.5894 11.9077 15.5692 11.8659L14.3994 9.5292V8.4C14.3994 8.29972 14.3493 8.20605 14.2659 8.1504L13.3661 7.5504C13.2956 7.5033 13.2084 7.48826 13.1262 7.509L12.0242 7.7844L10.1733 6.99L9.91863 5.2056L10.6244 4.5H12.1394L12.6493 5.2665C12.6953 5.33542 12.7679 5.38226 12.8496 5.3958L14.6492 5.6958C14.6975 5.7039 14.7469 5.69996 14.7932 5.6844L16.4507 5.1318C17.8408 7.80011 17.6922 11.0094 16.0612 13.5376ZM14.8241 2.9562L14.3364 3.2814L12.9768 3.0093L12.0947 2.7156C12.0407 2.69726 11.9826 2.69494 11.9273 2.709L10.8121 2.9877L10.3232 2.8248L10.6856 2.1H11.7C11.7465 2.10004 11.7924 2.08927 11.834 2.0685L12.8718 1.5495C13.5865 1.92262 14.244 2.39633 14.8241 2.9562ZM5.71531 1.2699L6.43516 1.7499C6.47055 1.77345 6.51052 1.7892 6.55243 1.7961L8.00593 2.0385L7.86406 2.463L7.10672 2.7159C7.0389 2.73848 6.98135 2.78453 6.94445 2.8458L6.08303 4.2816L4.69942 5.112L2.65985 5.4033C2.51201 5.42419 2.40209 5.55067 2.4019 5.7V6.6C2.4019 6.67957 2.43354 6.75585 2.48978 6.8121L3.00177 7.3242V7.8396L1.75403 7.0074L1.30143 5.6493C2.16255 3.6813 3.74086 2.1153 5.71531 1.2699ZM4.86139 11.106L3.50567 10.8345L3.00177 9.8292V9.1242L4.11934 8.0064L4.53296 8.8341C4.58376 8.9358 4.68772 9.00004 4.8014 9H6.7312L7.54373 10.3545C7.59794 10.4448 7.6955 10.5 7.80077 10.5H8.6346L8.42464 11.5521L7.28908 12.6879C7.23273 12.7441 7.20101 12.8204 7.2009 12.9V13.65L6.12112 14.46C6.04562 14.5167 6.00115 14.6056 6.00115 14.7V15.7836L5.62803 15.66L5.10134 14.3424V11.4C5.10137 11.2574 5.00105 11.1345 4.86139 11.106ZM3.95977 15.7178C1.13178 13.5957 -0.0641872 9.9291 0.968498 6.5472L1.21775 7.2948C1.23874 7.35806 1.28021 7.41255 1.33562 7.4496L2.83081 8.4465L2.48978 8.7879C2.43354 8.84415 2.4019 8.92042 2.4019 9V9.9C2.40186 9.94654 2.41262 9.99244 2.43339 10.0341L3.03327 11.2341C3.07481 11.317 3.15231 11.376 3.24322 11.394L4.50296 11.6457V14.4C4.50292 14.4381 4.51016 14.4759 4.52426 14.5113L5.12413 16.0113C5.15697 16.0932 5.22424 16.1566 5.30799 16.1844L6.20781 16.4844C6.23787 16.4946 6.26937 16.4998 6.30109 16.5C6.46673 16.5 6.60102 16.3657 6.60102 16.2V14.85L7.6808 14.04C7.75631 13.9833 7.80077 13.8944 7.80077 13.8V13.0242L8.91264 11.9121C8.95445 11.8702 8.98294 11.8168 8.99453 11.7588L9.29446 10.2588C9.32693 10.0963 9.22158 9.93829 9.05912 9.90581C9.03982 9.90195 9.02021 9.9 9.00052 9.9H7.97054L7.15801 8.5455C7.10379 8.45524 7.00624 8.40004 6.90096 8.4H4.98676L4.47147 7.3659C4.42831 7.27957 4.34628 7.21927 4.25101 7.2039C4.15578 7.18744 4.05857 7.21886 3.99097 7.2879L3.60165 7.6758V7.2C3.60165 7.12042 3.57001 7.04415 3.51377 6.9879L3.00177 6.4758V5.9601L4.84399 5.697C4.88354 5.69126 4.9216 5.67769 4.95587 5.6571L6.45555 4.7571C6.49762 4.73182 6.53286 4.69657 6.55813 4.6545L7.40096 3.2496L8.19549 2.9844C8.28521 2.95496 8.35562 2.88458 8.38505 2.7948L8.68499 1.8948C8.73695 1.73749 8.65158 1.5678 8.4943 1.51582C8.4798 1.51102 8.46491 1.50735 8.44984 1.5048L6.7138 1.2153L6.40876 1.0119C8.29623 0.397425 10.3405 0.473475 12.1772 1.2264L11.6292 1.5H10.5002C10.386 1.49936 10.2813 1.56371 10.2303 1.6659L9.63039 2.8659C9.5565 3.01417 9.61675 3.19433 9.76499 3.26824C9.77763 3.27454 9.79067 3.27994 9.80406 3.2844L10.7039 3.5844C10.7579 3.60274 10.816 3.60506 10.8712 3.591L11.9864 3.3123L12.8034 3.5844C12.8151 3.5886 12.8272 3.59183 12.8394 3.594L14.3391 3.894C14.4171 3.9099 14.4982 3.89392 14.5644 3.8496L15.247 3.3942C15.583 3.76849 15.8849 4.17199 16.1492 4.5999L14.6735 5.0919L13.0758 4.8255L12.5479 4.0335C12.4925 3.95051 12.3996 3.90049 12.2998 3.9H10.5002C10.4207 3.9 10.3444 3.93165 10.2882 3.9879L9.38834 4.8879C9.32153 4.95469 9.29008 5.04907 9.30346 5.1426L9.6034 7.2426C9.61851 7.34644 9.68674 7.43482 9.78336 7.4757L11.8829 8.3757C11.9431 8.40176 12.0102 8.40712 12.0737 8.391L13.1448 8.1231L13.7995 8.5605V9.6C13.799 9.64642 13.8093 9.69233 13.8295 9.7341L14.9993 12.0708V13.2C14.9993 13.2796 15.0309 13.3558 15.0872 13.4121L15.7146 14.04C12.9318 17.75 7.66899 18.5012 3.95977 15.7178Z" fill="#5A5B5E"/>
</svg>
