<svg width="19" height="17" viewBox="0 0 19 17" fill="none" xmlns="http://www.w3.org/2000/svg">
<path d="M6.72915 12.75H7.52081C7.73942 12.75 7.91665 12.9086 7.91665 13.1042V15.5834H17.4167V1.41668H7.91665V3.89586C7.91665 4.09145 7.73942 4.25003 7.52081 4.25003H6.72915C6.51054 4.25003 6.33331 4.09145 6.33331 3.89586V1.41668C6.33335 0.634279 7.04221 0 7.91665 0H17.4167C18.2911 0 19 0.634279 19 1.41668V15.5834C19 16.3658 18.2911 17 17.4167 17H7.91665C7.04221 17 6.33331 16.3658 6.33331 15.5833V13.1041C6.33335 12.9086 6.51054 12.75 6.72915 12.75Z" fill="#656D78"/>
<path d="M0.128325 8.23886L4.87832 4.34303C4.99429 4.2486 5.16243 4.22267 5.30508 4.28008C5.44888 4.33646 5.54165 4.46373 5.54165 4.60414V5.3125C5.54165 5.41281 5.49412 5.5086 5.41062 5.5757L2.65892 7.79168H13.8542C14.073 7.79168 14.25 7.95009 14.25 8.14585V8.85418C14.25 9.04994 14.073 9.20835 13.8542 9.20835H2.65892L5.41062 11.4243C5.49412 11.4914 5.54165 11.5872 5.54165 11.6875V12.3959C5.54165 12.5363 5.44888 12.6636 5.30508 12.7199C5.25406 12.7403 5.19954 12.75 5.14581 12.75C5.04877 12.75 4.95291 12.7178 4.87832 12.657L0.128325 8.76114C0.0463867 8.69404 0 8.59928 0 8.5C0 8.40072 0.0463867 8.30596 0.128325 8.23886Z" fill="#656D78"/>
</svg>
