<svg width="22" height="22" viewBox="0 0 22 22" fill="none" xmlns="http://www.w3.org/2000/svg">
<path d="M21.0833 11.8977H0.916667C0.410665 11.8977 0 11.487 0 10.981C0 10.475 0.410665 10.0644 0.916667 10.0644H21.0833C21.5893 10.0644 22 10.475 22 10.981C22 11.487 21.5893 11.8977 21.0833 11.8977Z" fill="#656D78"/>
<path d="M21.0833 4.86977H0.916667C0.410665 4.86977 0 4.45911 0 3.9531C0 3.4471 0.410665 3.03644 0.916667 3.03644H21.0833C21.5893 3.03644 22 3.4471 22 3.9531C22 4.45911 21.5893 4.86977 21.0833 4.86977Z" fill="#656D78"/>
<path d="M21.0833 18.9253H0.916667C0.410665 18.9253 0 18.5146 0 18.0086C0 17.5026 0.410665 17.0919 0.916667 17.0919H21.0833C21.5893 17.0919 22 17.5026 22 18.0086C22 18.5146 21.5893 18.9253 21.0833 18.9253Z" fill="#656D78"/>
</svg>
